<svg width="245" height="31" viewBox="0 0 245 31" fill="none" xmlns="http://www.w3.org/2000/svg">
<path d="M22.4571 0.939999L23.2491 1.516L23.0691 2.488C22.8291 2.464 22.5891 2.452 22.3491 2.452C22.1331 2.452 21.9051 2.452 21.6651 2.452C17.6571 2.452 14.0091 3.58 10.7211 5.836L8.88506 11.812L17.6331 9.652L19.6851 10.012L20.1171 11.2C15.7731 11.272 11.6331 12.256 7.69706 14.152C4.98506 17.944 3.01706 22.06 1.79306 26.5L0.425062 25.708L0.605062 23.836L5.17706 15.088L5.35706 13.36C7.22906 12.016 8.26106 10.084 8.45306 7.564L7.33706 6.808L7.69706 5.512L9.31706 3.856L20.7291 0.939999H22.4571ZM31.3834 15.34L32.3914 16.636V17.68C29.4874 20.416 26.0074 22.12 21.9514 22.792L22.7434 24.34L24.4714 25.024L31.8154 24.16V25.204L27.3874 26.5H23.8594L21.9514 25.816L19.3594 22L19.7194 20.812H20.9074C22.5394 17.62 25.3594 15.796 29.3674 15.34H31.3834ZM27.2074 17.68L23.4994 20.02V20.2L27.6394 19.084L30.7714 17.248L29.6554 16.924L27.2074 17.68ZM39.0623 17.86V18.724L37.3343 21.676L42.2663 18.112L43.9943 18.04L44.2463 19.84L42.0863 23.548L47.1623 21.388L48.7463 21.568L49.5023 22.972L48.9983 26.32L47.7743 25.708L47.3423 23.224C45.0143 23.704 42.9743 24.676 41.2223 26.14H39.6743L39.1343 24.412L41.4743 21.244L41.2223 20.632L33.6263 26.5L32.4023 25.996L32.5823 24.592L37.9463 17.5L39.0623 17.86ZM56.1483 17.86V18.724L54.4203 21.676L59.3523 18.112L61.0803 18.04L61.3323 19.84L59.1723 23.548L64.2483 21.388L65.8323 21.568L66.5883 22.972L66.0843 26.32L64.8603 25.708L64.4283 23.224C62.1003 23.704 60.0603 24.676 58.3083 26.14H56.7603L56.2203 24.412L58.5603 21.244L58.3083 20.632L50.7123 26.5L49.4883 25.996L49.6683 24.592L55.0323 17.5L56.1483 17.86ZM78.5982 15.34L79.6062 16.636V17.68C76.7022 20.416 73.2222 22.12 69.1662 22.792L69.9582 24.34L71.6862 25.024L79.0302 24.16V25.204L74.6022 26.5H71.0742L69.1662 25.816L66.5742 22L66.9342 20.812H68.1222C69.7542 17.62 72.5742 15.796 76.5822 15.34H78.5982ZM74.4222 17.68L70.7142 20.02V20.2L74.8542 19.084L77.9862 17.248L76.8702 16.924L74.4222 17.68ZM83.5772 21.46L85.1252 22.072L86.1692 24.556L84.9452 28.552L82.4612 30.352L81.4172 30.1L84.3692 26.032L83.5772 21.46ZM112.961 17.932L112.421 19.516C108.989 22.468 105.221 24.82 101.117 26.572L99.2093 26.068L98.7773 23.044L99.3893 19.516L100.577 20.092L100.505 23.836L100.937 24.7H101.549C105.509 23.068 108.845 20.668 111.557 17.5L112.961 17.932ZM117.517 18.292L118.633 18.724L118.309 19.84L115.717 22.792L114.169 26.5L112.945 25.708L114.313 21.82L117.517 18.292ZM120.289 9.04L121.225 9.22L122.809 10.948L122.089 11.812L120.721 11.56L119.857 10.264L120.289 9.04ZM132.071 15.34L133.079 16.636V17.68C130.175 20.416 126.695 22.12 122.639 22.792L123.431 24.34L125.159 25.024L132.503 24.16V25.204L128.075 26.5H124.547L122.639 25.816L120.047 22L120.407 20.812H121.595C123.227 17.62 126.047 15.796 130.055 15.34H132.071ZM127.895 17.68L124.187 20.02V20.2L128.327 19.084L131.459 17.248L130.343 16.924L127.895 17.68ZM137.05 21.46L138.598 22.072L139.642 24.556L138.418 28.552L135.934 30.352L134.89 30.1L137.842 26.032L137.05 21.46ZM162.69 12.424L162.114 14.152L154.05 23.548L154.41 24.412C155.778 24.82 157.122 25.024 158.442 25.024C159.57 25.024 160.734 24.88 161.934 24.592L162.546 25.708L155.958 26.5L153.042 25.816L152.25 24.952L152.682 22.612L161.754 12.172L162.69 12.424ZM167.263 18.292L168.379 18.724L168.055 19.84L165.463 22.792L163.915 26.5L162.691 25.708L164.059 21.82L167.263 18.292ZM170.035 9.04L170.971 9.22L172.555 10.948L171.835 11.812L170.467 11.56L169.603 10.264L170.035 9.04ZM191.213 1.804V2.56C188.549 5.008 186.005 7.54 183.581 10.156C181.181 12.748 178.889 15.46 176.705 18.292L177.137 18.652L181.385 15.952L182.825 16.132L184.229 17.68C184.349 18.088 184.421 18.496 184.445 18.904C184.493 19.288 184.517 19.672 184.517 20.056C184.517 22.912 183.041 25.06 180.089 26.5L176.273 26.14L173.933 23.836L171.161 25.204L169.793 24.772L170.153 23.404L179.045 12.748L188.549 2.56L190.277 1.696L191.213 1.804ZM176.885 20.632L175.337 22.432L175.481 23.548L177.641 24.952L180.665 23.98L183.005 20.452L182.825 18.652L181.457 17.68L176.885 20.632ZM198.481 15.34L199.489 16.636V17.68C196.585 20.416 193.105 22.12 189.049 22.792L189.841 24.34L191.569 25.024L198.913 24.16V25.204L194.485 26.5H190.957L189.049 25.816L186.457 22L186.817 20.812H188.005C189.637 17.62 192.457 15.796 196.465 15.34H198.481ZM194.305 17.68L190.597 20.02V20.2L194.737 19.084L197.869 17.248L196.753 16.924L194.305 17.68ZM213.936 13.54L213.504 17.5L209.364 21.82L210.732 23.728L213.324 25.204L213.072 26.5C210.24 26.188 208.332 24.772 207.348 22.252L207.636 20.884L211.956 16.924L212.28 15.088L210.552 16.312L210.3 17.68C207.42 20.8 204.276 23.62 200.868 26.14L199.5 25.996L199.932 24.34L212.712 12.748L213.936 13.54ZM223.789 15.088L230.521 16.312L230.341 16.924C229.933 16.972 229.537 17.008 229.153 17.032C228.793 17.056 228.409 17.068 228.001 17.068C226.657 17.068 225.337 16.924 224.041 16.636C222.289 19.684 220.045 22.336 217.309 24.592L216.337 26.5L214.969 25.996L215.149 24.592L221.629 17.356L221.269 16.636H220.333L218.353 18.112L217.489 17.86L217.921 15.952L220.333 15.088H223.789ZM237.987 13.612L238.995 14.368L238.851 17.14C236.307 20.284 232.935 21.844 228.735 21.82L228.123 22.576L228.375 24.556L231.507 25.168C234.411 24.376 237.027 22.876 239.355 20.668L239.967 20.848L239.787 21.82L237.447 23.98L230.967 26.896L228.195 26.572L226.827 25.168L226.395 23.62C226.875 20.092 228.663 17.332 231.759 15.34L235.827 13.324L237.987 13.612ZM232.371 16.888L229.599 19.66L229.923 20.092C233.163 19.996 235.791 18.604 237.807 15.916L237.195 14.728H236.259L232.371 16.888ZM244.719 7.276L243.927 8.572C241.695 9.22 239.799 10.432 238.239 12.208L237.015 11.956L238.059 9.976L243.495 7.024L244.719 7.276Z" fill="#1A1A1A"/>
</svg>
