<svg width="225" height="36" viewBox="0 0 225 36" fill="none" xmlns="http://www.w3.org/2000/svg">
<path d="M0.226484 27.536C0.226484 26.96 0.274484 26.348 0.370484 25.7C0.490484 25.028 0.658484 24.32 0.874484 23.576C1.11448 22.808 1.40248 22.004 1.73848 21.164L4.33048 22.172C4.09048 22.844 3.87448 23.48 3.68248 24.08C3.51448 24.68 3.38248 25.244 3.28648 25.772C3.21448 26.3 3.17848 26.804 3.17848 27.284C3.17848 28.22 3.37048 29.036 3.75448 29.732C4.16248 30.428 4.72648 31.004 5.44648 31.46C6.16648 31.94 7.00648 32.3 7.96648 32.54C8.92649 32.78 9.95849 32.9 11.0625 32.9C12.7905 32.9 14.3025 32.708 15.5985 32.324C16.8945 31.964 17.9745 31.496 18.8385 30.92C19.7025 30.344 20.3385 29.744 20.7465 29.12C21.1785 28.496 21.3945 27.944 21.3945 27.464C21.3945 27.128 21.1905 26.828 20.7825 26.564C20.3745 26.3 19.8465 26.048 19.1985 25.808C18.5505 25.568 17.8665 25.316 17.1465 25.052C16.4265 24.764 15.7425 24.428 15.0945 24.044C14.4465 23.66 13.9185 23.204 13.5105 22.676C13.1025 22.124 12.8985 21.476 12.8985 20.732C12.8985 19.748 13.1385 18.776 13.6185 17.816C14.1225 16.832 14.7945 15.932 15.6345 15.116C16.4985 14.3 17.4585 13.652 18.5145 13.172C19.5705 12.668 20.6625 12.416 21.7905 12.416C22.7985 12.416 23.6625 12.56 24.3825 12.848C25.1025 13.112 25.6185 13.364 25.9305 13.604L24.7425 16.16C24.3345 15.968 23.8785 15.788 23.3745 15.62C22.8705 15.452 22.3425 15.368 21.7905 15.368C21.0945 15.368 20.3865 15.512 19.6665 15.8C18.9705 16.088 18.3225 16.472 17.7225 16.952C17.1465 17.432 16.6785 17.96 16.3185 18.536C15.9585 19.112 15.7785 19.688 15.7785 20.264C15.7785 20.672 15.9825 21.044 16.3905 21.38C16.8225 21.716 17.3745 22.028 18.0465 22.316C18.7185 22.604 19.4265 22.904 20.1705 23.216C20.9385 23.504 21.6585 23.828 22.3305 24.188C23.0025 24.524 23.5425 24.92 23.9505 25.376C24.3825 25.832 24.5985 26.372 24.5985 26.996C24.5985 27.884 24.2985 28.844 23.6985 29.876C23.0985 30.908 22.2105 31.868 21.0345 32.756C19.8585 33.668 18.4185 34.412 16.7145 34.988C15.0345 35.564 13.0905 35.852 10.8825 35.852C9.37048 35.852 7.96648 35.684 6.67048 35.348C5.39848 35.012 4.27048 34.496 3.28648 33.8C2.32648 33.128 1.57048 32.264 1.01848 31.208C0.490484 30.176 0.226484 28.952 0.226484 27.536ZM27.758 25.88L29.198 23.396C29.678 23.708 30.35 24.008 31.214 24.296C32.078 24.584 33.086 24.728 34.238 24.728C35.438 24.728 36.386 24.608 37.082 24.368C37.802 24.128 38.318 23.78 38.63 23.324C38.966 22.844 39.134 22.292 39.134 21.668C39.134 21.188 39.026 20.6 38.81 19.904C38.618 19.184 38.186 18.224 37.514 17.024C36.842 15.8 35.81 14.204 34.418 12.236L36.902 10.616C38.174 12.368 39.182 13.952 39.926 15.368C40.694 16.784 41.234 18.032 41.546 19.112C41.882 20.168 42.05 21.08 42.05 21.848C42.05 22.808 41.81 23.744 41.33 24.656C40.85 25.544 40.046 26.276 38.918 26.852C37.79 27.428 36.23 27.716 34.238 27.716C33.374 27.716 32.534 27.644 31.718 27.5C30.926 27.356 30.194 27.152 29.522 26.888C28.85 26.6 28.262 26.264 27.758 25.88ZM46.9663 27.5L46.2463 1.796H49.1623L49.8823 27.5H46.9663ZM51.4624 35.78L50.4184 33.044C52.8424 32.276 54.7024 31.352 55.9984 30.272C57.3184 29.216 58.2184 28.112 58.6984 26.96C59.2024 25.808 59.4544 24.704 59.4544 23.648C59.4544 22.976 59.3824 22.328 59.2384 21.704C59.0944 21.08 58.8424 20.372 58.4824 19.58C58.1224 18.788 57.6184 17.804 56.9704 16.628L59.5984 15.296C60.5104 16.856 61.1584 18.332 61.5424 19.724C61.9504 21.116 62.1544 22.34 62.1544 23.396C62.1544 24.908 61.9024 26.276 61.3984 27.5C60.9184 28.724 60.2704 29.804 59.4544 30.74C58.6624 31.7 57.7864 32.516 56.8264 33.188C55.8904 33.86 54.9424 34.412 53.9824 34.844C53.0464 35.276 52.2064 35.588 51.4624 35.78ZM57.6904 11.156C57.1864 11.156 56.7544 10.988 56.3944 10.652C56.0584 10.292 55.8904 9.872 55.8904 9.392C55.8904 8.912 56.0584 8.492 56.3944 8.132C56.7544 7.772 57.1864 7.592 57.6904 7.592C58.1704 7.592 58.5784 7.772 58.9144 8.132C59.2744 8.492 59.4544 8.912 59.4544 9.392C59.4544 9.872 59.2744 10.292 58.9144 10.652C58.5784 10.988 58.1704 11.156 57.6904 11.156ZM75.0131 27.68C73.0931 27.68 71.6171 27.464 70.5851 27.032C69.5771 26.6 68.8811 25.928 68.4971 25.016C68.1131 24.104 67.8971 22.928 67.8491 21.488L67.1291 1.796H70.0811L70.8011 20.336C70.8491 21.512 70.9571 22.424 71.1251 23.072C71.3171 23.696 71.7251 24.128 72.3491 24.368C72.9971 24.608 74.0051 24.728 75.3731 24.728C75.8771 24.728 76.2371 24.872 76.4531 25.16C76.6931 25.424 76.8131 25.748 76.8131 26.132C76.8131 26.516 76.6451 26.876 76.3091 27.212C75.9731 27.524 75.5411 27.68 75.0131 27.68ZM75.0137 27.68L75.3737 24.728C76.5497 24.728 77.4857 24.656 78.1817 24.512C78.8777 24.368 79.3817 24.08 79.6937 23.648C80.0057 23.192 80.1617 22.52 80.1617 21.632C80.1617 21.032 80.0657 20.324 79.8737 19.508C79.6817 18.668 79.4297 17.78 79.1177 16.844C78.8057 15.908 78.4697 14.984 78.1097 14.072L81.0257 12.992C81.3377 13.76 81.6257 14.636 81.8897 15.62C82.1777 16.604 82.4177 17.576 82.6097 18.536C82.8017 19.496 82.8977 20.336 82.8977 21.056C82.8977 22.016 82.7897 22.868 82.5737 23.612C82.3817 24.332 82.0817 24.956 81.6737 25.484C81.2657 25.988 80.7377 26.408 80.0897 26.744C79.4657 27.056 78.7337 27.296 77.8937 27.464C77.0537 27.608 76.0937 27.68 75.0137 27.68ZM76.3457 8.996L75.9137 7.052C76.5377 6.908 77.0417 6.788 77.4257 6.692C77.8097 6.596 78.2417 6.488 78.7217 6.368L78.5417 7.124C77.9177 6.932 77.3177 6.524 76.7417 5.9C76.1897 5.276 75.9137 4.568 75.9137 3.776C75.9137 3.056 76.0817 2.456 76.4177 1.976C76.7777 1.472 77.2337 1.1 77.7857 0.86C78.3617 0.619998 78.9737 0.499998 79.6217 0.499998C79.8857 0.499998 80.1617 0.523998 80.4497 0.571999C80.7617 0.619998 81.0497 0.691998 81.3137 0.787998L81.0257 2.588C80.7857 2.54 80.5577 2.492 80.3417 2.444C80.1257 2.396 79.8857 2.372 79.6217 2.372C79.0697 2.372 78.6377 2.492 78.3257 2.732C78.0137 2.948 77.8577 3.26 77.8577 3.668C77.8577 4.172 78.0137 4.604 78.3257 4.964C78.6617 5.324 79.0337 5.612 79.4417 5.828C79.8737 6.02 80.2217 6.116 80.4857 6.116L79.0097 6.26C79.6577 6.092 80.2577 5.924 80.8097 5.756C81.3857 5.564 81.9017 5.384 82.3577 5.216L82.9337 7.052C82.3577 7.268 81.6737 7.496 80.8817 7.736C80.1137 7.976 79.3337 8.204 78.5417 8.42C77.7497 8.636 77.0177 8.828 76.3457 8.996ZM101.199 27.644C100.887 27.644 100.539 27.584 100.155 27.464C99.7706 27.32 99.4346 27.08 99.1466 26.744C98.8586 26.384 98.7146 25.892 98.7146 25.268C98.7146 24.692 98.8346 24.068 99.0746 23.396C99.3146 22.724 99.6146 22.052 99.9746 21.38C100.359 20.684 100.719 20.048 101.055 19.472L103.215 20.588C102.975 21.02 102.747 21.488 102.531 21.992C102.315 22.472 102.135 22.904 101.991 23.288C101.847 23.648 101.763 23.9 101.739 24.044C102.291 24.188 102.687 24.416 102.927 24.728C103.191 25.016 103.323 25.328 103.323 25.664C103.323 26.192 103.155 26.66 102.819 27.068C102.483 27.452 101.943 27.644 101.199 27.644ZM108.367 27.536C108.367 26.96 108.415 26.348 108.511 25.7C108.631 25.028 108.799 24.32 109.015 23.576C109.255 22.808 109.543 22.004 109.879 21.164L112.471 22.172C112.231 22.844 112.015 23.48 111.823 24.08C111.655 24.68 111.523 25.244 111.427 25.772C111.355 26.3 111.319 26.804 111.319 27.284C111.319 28.532 111.643 29.564 112.291 30.38C112.939 31.196 113.827 31.808 114.955 32.216C116.083 32.624 117.355 32.828 118.771 32.828C120.379 32.828 121.723 32.612 122.803 32.18C123.907 31.748 124.783 31.172 125.431 30.452C126.079 29.756 126.535 28.976 126.799 28.112C127.087 27.248 127.231 26.396 127.231 25.556C127.231 24.644 127.051 23.54 126.691 22.244C126.355 20.948 125.719 19.34 124.783 17.42L127.483 16.052C127.963 16.964 128.395 17.924 128.779 18.932C129.187 19.916 129.511 20.936 129.751 21.992C130.015 23.024 130.147 24.08 130.147 25.16C130.147 26.096 130.027 27.056 129.787 28.04C129.571 29.024 129.199 29.972 128.671 30.884C128.143 31.82 127.435 32.648 126.547 33.368C125.683 34.112 124.603 34.7 123.307 35.132C122.035 35.564 120.511 35.78 118.735 35.78C117.343 35.78 116.011 35.612 114.739 35.276C113.491 34.964 112.387 34.472 111.427 33.8C110.491 33.128 109.747 32.276 109.195 31.244C108.643 30.212 108.367 28.976 108.367 27.536ZM119.239 13.172C118.735 13.172 118.303 13.004 117.943 12.668C117.607 12.308 117.439 11.888 117.439 11.408C117.439 10.928 117.607 10.508 117.943 10.148C118.303 9.788 118.735 9.608 119.239 9.608C119.719 9.608 120.127 9.788 120.463 10.148C120.823 10.508 121.003 10.928 121.003 11.408C121.003 11.888 120.823 12.308 120.463 12.668C120.127 13.004 119.719 13.172 119.239 13.172ZM142.408 27.68C140.488 27.68 139.012 27.464 137.98 27.032C136.972 26.6 136.276 25.928 135.892 25.016C135.508 24.104 135.292 22.928 135.244 21.488L134.524 1.796H137.476L138.196 20.336C138.244 21.512 138.352 22.424 138.52 23.072C138.712 23.696 139.12 24.128 139.744 24.368C140.392 24.608 141.4 24.728 142.768 24.728C143.272 24.728 143.632 24.872 143.848 25.16C144.088 25.424 144.208 25.748 144.208 26.132C144.208 26.516 144.04 26.876 143.704 27.212C143.368 27.524 142.936 27.68 142.408 27.68ZM142.408 27.68L142.768 24.728C144.184 24.728 145.288 24.68 146.08 24.584C146.872 24.464 147.436 24.188 147.772 23.756C148.108 23.3 148.276 22.592 148.276 21.632C148.276 21.032 148.18 20.324 147.988 19.508C147.796 18.668 147.544 17.78 147.232 16.844C146.92 15.908 146.584 14.984 146.224 14.072L149.14 12.992C149.452 13.76 149.74 14.636 150.004 15.62C150.292 16.604 150.532 17.576 150.724 18.536C150.916 19.496 151.012 20.336 151.012 21.056C151.012 22.256 150.844 23.276 150.508 24.116C150.196 24.956 149.692 25.64 148.996 26.168C148.3 26.696 147.4 27.08 146.296 27.32C145.216 27.56 143.92 27.68 142.408 27.68ZM149.068 34.484C148.564 34.484 148.132 34.304 147.772 33.944C147.436 33.608 147.268 33.2 147.268 32.72C147.268 32.24 147.436 31.82 147.772 31.46C148.132 31.1 148.564 30.92 149.068 30.92C149.548 30.92 149.956 31.1 150.292 31.46C150.652 31.82 150.832 32.24 150.832 32.72C150.832 33.2 150.652 33.608 150.292 33.944C149.956 34.304 149.548 34.484 149.068 34.484ZM144.136 34.484C143.632 34.484 143.2 34.304 142.84 33.944C142.504 33.608 142.336 33.2 142.336 32.72C142.336 32.24 142.504 31.82 142.84 31.46C143.2 31.1 143.632 30.92 144.136 30.92C144.616 30.92 145.024 31.1 145.36 31.46C145.72 31.82 145.9 32.24 145.9 32.72C145.9 33.2 145.72 33.608 145.36 33.944C145.024 34.304 144.616 34.484 144.136 34.484ZM153.31 35.78L152.266 33.044C154.69 32.276 156.55 31.352 157.846 30.272C159.166 29.216 160.066 28.112 160.546 26.96C161.05 25.808 161.302 24.704 161.302 23.648C161.302 22.976 161.23 22.328 161.086 21.704C160.942 21.08 160.69 20.372 160.33 19.58C159.97 18.788 159.466 17.804 158.818 16.628L161.446 15.296C162.358 16.856 163.006 18.332 163.39 19.724C163.798 21.116 164.002 22.34 164.002 23.396C164.002 24.908 163.75 26.276 163.246 27.5C162.766 28.724 162.118 29.804 161.302 30.74C160.51 31.7 159.634 32.516 158.674 33.188C157.738 33.86 156.79 34.412 155.83 34.844C154.894 35.276 154.054 35.588 153.31 35.78ZM159.61 7.196C159.106 7.196 158.674 7.028 158.314 6.692C157.978 6.332 157.81 5.912 157.81 5.432C157.81 4.952 157.978 4.532 158.314 4.172C158.674 3.812 159.106 3.632 159.61 3.632C160.09 3.632 160.498 3.812 160.834 4.172C161.194 4.532 161.374 4.952 161.374 5.432C161.374 5.912 161.194 6.332 160.834 6.692C160.498 7.028 160.09 7.196 159.61 7.196ZM157.162 11.156C156.658 11.156 156.226 10.988 155.866 10.652C155.53 10.292 155.362 9.872 155.362 9.392C155.362 8.912 155.53 8.492 155.866 8.132C156.226 7.772 156.658 7.592 157.162 7.592C157.642 7.592 158.05 7.772 158.386 8.132C158.746 8.492 158.926 8.912 158.926 9.392C158.926 9.872 158.746 10.292 158.386 10.652C158.05 10.988 157.642 11.156 157.162 11.156ZM162.058 11.156C161.554 11.156 161.122 10.988 160.762 10.652C160.426 10.292 160.258 9.872 160.258 9.392C160.258 8.912 160.426 8.492 160.762 8.132C161.122 7.772 161.554 7.592 162.058 7.592C162.538 7.592 162.946 7.772 163.282 8.132C163.642 8.492 163.822 8.912 163.822 9.392C163.822 9.872 163.642 10.292 163.282 10.652C162.946 10.988 162.538 11.156 162.058 11.156ZM182.902 27.644C182.59 27.644 182.242 27.584 181.858 27.464C181.474 27.32 181.138 27.08 180.85 26.744C180.562 26.384 180.418 25.892 180.418 25.268C180.418 24.692 180.538 24.068 180.778 23.396C181.018 22.724 181.318 22.052 181.678 21.38C182.062 20.684 182.422 20.048 182.758 19.472L184.918 20.588C184.678 21.02 184.45 21.488 184.234 21.992C184.018 22.472 183.838 22.904 183.694 23.288C183.55 23.648 183.466 23.9 183.442 24.044C183.994 24.188 184.39 24.416 184.63 24.728C184.894 25.016 185.026 25.328 185.026 25.664C185.026 26.192 184.858 26.66 184.522 27.068C184.186 27.452 183.646 27.644 182.902 27.644ZM190.07 27.536C190.07 26.96 190.118 26.348 190.214 25.7C190.334 25.028 190.502 24.32 190.718 23.576C190.958 22.808 191.246 22.004 191.582 21.164L194.174 22.172C193.934 22.844 193.718 23.48 193.526 24.08C193.358 24.68 193.226 25.244 193.13 25.772C193.058 26.3 193.022 26.804 193.022 27.284C193.022 28.532 193.346 29.564 193.994 30.38C194.642 31.196 195.53 31.808 196.658 32.216C197.786 32.624 199.058 32.828 200.474 32.828C202.082 32.828 203.426 32.612 204.506 32.18C205.61 31.748 206.486 31.172 207.134 30.452C207.782 29.756 208.238 28.976 208.502 28.112C208.79 27.248 208.934 26.396 208.934 25.556C208.934 24.644 208.754 23.54 208.394 22.244C208.058 20.948 207.422 19.34 206.486 17.42L209.186 16.052C209.666 16.964 210.098 17.924 210.482 18.932C210.89 19.916 211.214 20.936 211.454 21.992C211.718 23.024 211.85 24.08 211.85 25.16C211.85 26.096 211.73 27.056 211.49 28.04C211.274 29.024 210.902 29.972 210.374 30.884C209.846 31.82 209.138 32.648 208.25 33.368C207.386 34.112 206.306 34.7 205.01 35.132C203.738 35.564 202.214 35.78 200.438 35.78C199.046 35.78 197.714 35.612 196.442 35.276C195.194 34.964 194.09 34.472 193.13 33.8C192.194 33.128 191.45 32.276 190.898 31.244C190.346 30.212 190.07 28.976 190.07 27.536ZM200.942 13.172C200.438 13.172 200.006 13.004 199.646 12.668C199.31 12.308 199.142 11.888 199.142 11.408C199.142 10.928 199.31 10.508 199.646 10.148C200.006 9.788 200.438 9.608 200.942 9.608C201.422 9.608 201.83 9.788 202.166 10.148C202.526 10.508 202.706 10.928 202.706 11.408C202.706 11.888 202.526 12.308 202.166 12.668C201.83 13.004 201.422 13.172 200.942 13.172ZM213.779 35.78L212.735 33.044C215.159 32.276 217.019 31.352 218.315 30.272C219.635 29.216 220.535 28.112 221.015 26.96C221.519 25.808 221.771 24.704 221.771 23.648C221.771 22.976 221.699 22.328 221.555 21.704C221.411 21.08 221.159 20.372 220.799 19.58C220.439 18.788 219.935 17.804 219.287 16.628L221.915 15.296C222.827 16.856 223.475 18.332 223.859 19.724C224.267 21.116 224.471 22.34 224.471 23.396C224.471 24.908 224.219 26.276 223.715 27.5C223.235 28.724 222.587 29.804 221.771 30.74C220.979 31.7 220.103 32.516 219.143 33.188C218.207 33.86 217.259 34.412 216.299 34.844C215.363 35.276 214.523 35.588 213.779 35.78ZM220.079 7.196C219.575 7.196 219.143 7.028 218.783 6.692C218.447 6.332 218.279 5.912 218.279 5.432C218.279 4.952 218.447 4.532 218.783 4.172C219.143 3.812 219.575 3.632 220.079 3.632C220.559 3.632 220.967 3.812 221.303 4.172C221.663 4.532 221.843 4.952 221.843 5.432C221.843 5.912 221.663 6.332 221.303 6.692C220.967 7.028 220.559 7.196 220.079 7.196ZM217.631 11.156C217.127 11.156 216.695 10.988 216.335 10.652C215.999 10.292 215.831 9.872 215.831 9.392C215.831 8.912 215.999 8.492 216.335 8.132C216.695 7.772 217.127 7.592 217.631 7.592C218.111 7.592 218.519 7.772 218.855 8.132C219.215 8.492 219.395 8.912 219.395 9.392C219.395 9.872 219.215 10.292 218.855 10.652C218.519 10.988 218.111 11.156 217.631 11.156ZM222.527 11.156C222.023 11.156 221.591 10.988 221.231 10.652C220.895 10.292 220.727 9.872 220.727 9.392C220.727 8.912 220.895 8.492 221.231 8.132C221.591 7.772 222.023 7.592 222.527 7.592C223.007 7.592 223.415 7.772 223.751 8.132C224.111 8.492 224.291 8.912 224.291 9.392C224.291 9.872 224.111 10.292 223.751 10.652C223.415 10.988 223.007 11.156 222.527 11.156Z" fill="#1A1A1A"/>
</svg>
