<svg width="281" height="43" viewBox="0 0 281 43" fill="none" xmlns="http://www.w3.org/2000/svg">
<path d="M16.4823 34.68C15.1863 34.68 14.0343 34.5 13.0263 34.14C12.0423 33.756 11.2503 33.12 10.6503 32.232C10.0743 31.32 9.75033 30.06 9.67833 28.452L9.10233 15.924H12.0183L12.5943 27.804C12.6663 28.932 12.8703 29.784 13.2063 30.36C13.5423 30.912 14.0103 31.284 14.6103 31.476C15.2343 31.644 15.9783 31.728 16.8423 31.728C17.3463 31.728 17.7063 31.872 17.9223 32.16C18.1623 32.424 18.2823 32.748 18.2823 33.132C18.2823 33.516 18.1143 33.876 17.7783 34.212C17.4423 34.524 17.0103 34.68 16.4823 34.68ZM11.0463 30.72C9.67833 31.152 8.34633 31.368 7.05033 31.368C5.75433 31.368 4.57833 31.176 3.52233 30.792C2.46633 30.408 1.62633 29.856 1.00233 29.136C0.378328 28.392 0.0663282 27.504 0.0663282 26.472C0.0663282 25.464 0.318328 24.516 0.822328 23.628C1.35033 22.74 2.05833 21.948 2.94633 21.252C3.85833 20.556 4.90233 19.98 6.07833 19.524C7.27833 19.044 8.55033 18.72 9.89433 18.552L10.3983 21.576C9.19833 21.624 8.13033 21.792 7.19433 22.08C6.28233 22.344 5.50233 22.692 4.85433 23.124C4.23033 23.556 3.75033 24.024 3.41433 24.528C3.07833 25.032 2.91033 25.524 2.91033 26.004C2.91033 26.532 3.10233 26.964 3.48633 27.3C3.87033 27.636 4.36233 27.9 4.96233 28.092C5.56233 28.26 6.22233 28.368 6.94233 28.416C7.66233 28.44 8.35833 28.416 9.03033 28.344C9.70233 28.248 10.2783 28.116 10.7583 27.948L11.0463 30.72ZM10.2903 11.784C9.78633 11.784 9.35433 11.616 8.99433 11.28C8.65833 10.92 8.49033 10.5 8.49033 10.02C8.49033 9.54 8.65833 9.12 8.99433 8.76C9.35433 8.4 9.78633 8.22 10.2903 8.22C10.7703 8.22 11.1783 8.4 11.5143 8.76C11.8743 9.12 12.0543 9.54 12.0543 10.02C12.0543 10.5 11.8743 10.92 11.5143 11.28C11.1783 11.616 10.7703 11.784 10.2903 11.784ZM5.35833 11.784C4.85433 11.784 4.42233 11.616 4.06233 11.28C3.72633 10.92 3.55833 10.5 3.55833 10.02C3.55833 9.54 3.72633 9.12 4.06233 8.76C4.42233 8.4 4.85433 8.22 5.35833 8.22C5.83833 8.22 6.24633 8.4 6.58233 8.76C6.94233 9.12 7.12233 9.54 7.12233 10.02C7.12233 10.5 6.94233 10.92 6.58233 11.28C6.24633 11.616 5.83833 11.784 5.35833 11.784ZM16.4941 34.68L16.8541 31.728C18.2701 31.728 19.3741 31.68 20.1661 31.584C20.9581 31.464 21.5221 31.188 21.8581 30.756C22.1941 30.3 22.3621 29.592 22.3621 28.632C22.3621 28.032 22.2661 27.324 22.0741 26.508C21.8821 25.668 21.6301 24.78 21.3181 23.844C21.0061 22.908 20.6701 21.984 20.3101 21.072L23.2261 19.992C23.5381 20.76 23.8261 21.636 24.0901 22.62C24.3781 23.604 24.6181 24.576 24.8101 25.536C25.0021 26.496 25.0981 27.336 25.0981 28.056C25.0981 29.256 24.9301 30.276 24.5941 31.116C24.2821 31.956 23.7781 32.64 23.0821 33.168C22.3861 33.696 21.4861 34.08 20.3821 34.32C19.3021 34.56 18.0061 34.68 16.4941 34.68ZM23.1541 41.484C22.6501 41.484 22.2181 41.304 21.8581 40.944C21.5221 40.608 21.3541 40.2 21.3541 39.72C21.3541 39.24 21.5221 38.82 21.8581 38.46C22.2181 38.1 22.6501 37.92 23.1541 37.92C23.6341 37.92 24.0421 38.1 24.3781 38.46C24.7381 38.82 24.9181 39.24 24.9181 39.72C24.9181 40.2 24.7381 40.608 24.3781 40.944C24.0421 41.304 23.6341 41.484 23.1541 41.484ZM18.2221 41.484C17.7181 41.484 17.2861 41.304 16.9261 40.944C16.5901 40.608 16.4221 40.2 16.4221 39.72C16.4221 39.24 16.5901 38.82 16.9261 38.46C17.2861 38.1 17.7181 37.92 18.2221 37.92C18.7021 37.92 19.1101 38.1 19.4461 38.46C19.8061 38.82 19.9861 39.24 19.9861 39.72C19.9861 40.2 19.8061 40.608 19.4461 40.944C19.1101 41.304 18.7021 41.484 18.2221 41.484ZM27.396 42.852L26.352 40.116C28.104 39.54 29.556 38.88 30.708 38.136C31.884 37.392 32.808 36.6 33.48 35.76C34.176 34.92 34.668 34.068 34.956 33.204C35.244 32.316 35.388 31.464 35.388 30.648C35.388 29.472 35.124 28.284 34.596 27.084C34.092 25.86 33.528 24.708 32.904 23.628L35.532 22.296C35.988 23.136 36.384 23.964 36.72 24.78C37.08 25.596 37.392 26.364 37.656 27.084C37.944 27.804 38.172 28.464 38.34 29.064C38.676 30.096 39.108 30.804 39.636 31.188C40.188 31.548 40.932 31.728 41.868 31.728C42.372 31.728 42.732 31.872 42.948 32.16C43.188 32.424 43.308 32.748 43.308 33.132C43.308 33.516 43.14 33.876 42.804 34.212C42.468 34.524 42.036 34.68 41.508 34.68C40.452 34.68 39.588 34.5 38.916 34.14C38.268 33.756 37.776 33.264 37.44 32.664C37.104 32.04 36.876 31.392 36.756 30.72L37.908 31.368C37.908 32.952 37.548 34.392 36.828 35.688C36.132 37.008 35.232 38.148 34.128 39.108C33.024 40.092 31.872 40.896 30.672 41.52C29.472 42.144 28.38 42.588 27.396 42.852ZM64.4574 34.68C63.4494 34.68 62.5254 34.62 61.6854 34.5C60.8454 34.356 60.0894 34.104 59.4174 33.744C58.7454 33.384 58.1814 32.868 57.7254 32.196C57.2694 31.5 56.9214 30.588 56.6814 29.46L58.8054 28.2C59.1174 29.16 59.5014 29.892 59.9574 30.396C60.4134 30.9 61.0254 31.248 61.7934 31.44C62.5854 31.632 63.5934 31.728 64.8174 31.728C65.3214 31.728 65.6814 31.872 65.8974 32.16C66.1374 32.424 66.2574 32.748 66.2574 33.132C66.2574 33.516 66.0894 33.876 65.7534 34.212C65.4174 34.524 64.9854 34.68 64.4574 34.68ZM41.5254 34.68L41.8494 31.728C43.0974 31.728 44.3214 31.632 45.5214 31.44C46.7214 31.248 47.8974 30.972 49.0494 30.612C50.2014 30.252 51.3054 29.82 52.3614 29.316C53.4414 28.788 54.4614 28.188 55.4214 27.516C54.7974 26.964 54.0774 26.484 53.2614 26.076C52.4454 25.668 51.5454 25.356 50.5614 25.14C49.6014 24.9 48.5814 24.78 47.5014 24.78C47.1174 24.78 46.7574 24.792 46.4214 24.816C46.0854 24.84 45.7494 24.888 45.4134 24.96C45.0774 25.008 44.6934 25.08 44.2614 25.176L43.6854 22.44C44.3334 22.248 44.9814 22.104 45.6294 22.008C46.2774 21.888 46.9014 21.828 47.5014 21.828C48.7494 21.828 49.8774 21.984 50.8854 22.296C51.8934 22.584 52.8054 22.944 53.6214 23.376C54.4614 23.808 55.2414 24.24 55.9614 24.672C56.7054 25.104 57.4254 25.476 58.1214 25.788C58.8174 26.076 59.5374 26.22 60.2814 26.22H61.0374L61.2894 28.812C60.2574 28.812 59.3094 28.956 58.4454 29.244C57.5814 29.532 56.7294 29.904 55.8894 30.36C55.0734 30.792 54.2094 31.26 53.2974 31.764C52.3854 32.244 51.3774 32.712 50.2734 33.168C49.1694 33.6 47.8974 33.96 46.4574 34.248C45.0414 34.536 43.3974 34.68 41.5254 34.68ZM64.4473 34.68L64.7713 31.728C66.1393 31.728 67.0993 31.596 67.6513 31.332C68.2033 31.068 68.5153 30.6 68.5873 29.928C68.6833 29.256 68.7073 28.32 68.6593 27.12L67.9753 8.796H70.8913L71.6113 26.796C71.6593 28.068 71.6113 29.196 71.4673 30.18C71.3473 31.164 71.0353 31.992 70.5313 32.664C70.0513 33.336 69.3193 33.84 68.3353 34.176C67.3753 34.512 66.0793 34.68 64.4473 34.68ZM77.1108 34.5L76.3908 8.796H79.3068L80.0268 34.5H77.1108ZM98.8939 34.644C98.5819 34.644 98.2339 34.584 97.8499 34.464C97.4659 34.32 97.1299 34.08 96.8419 33.744C96.5539 33.384 96.4099 32.892 96.4099 32.268C96.4099 31.692 96.5299 31.068 96.7699 30.396C97.0099 29.724 97.3099 29.052 97.6699 28.38C98.0539 27.684 98.4139 27.048 98.7499 26.472L100.91 27.588C100.67 28.02 100.442 28.488 100.226 28.992C100.01 29.472 99.8299 29.904 99.6859 30.288C99.5419 30.648 99.4579 30.9 99.4339 31.044C99.9859 31.188 100.382 31.416 100.622 31.728C100.886 32.016 101.018 32.328 101.018 32.664C101.018 33.192 100.85 33.66 100.514 34.068C100.178 34.452 99.6379 34.644 98.8939 34.644ZM112.254 34.5C111.078 34.5 110.022 34.296 109.086 33.888C108.15 33.48 107.406 32.856 106.854 32.016C106.326 31.176 106.062 30.108 106.062 28.812C106.062 27.78 106.458 26.496 107.25 24.96C108.042 23.4 109.422 21.756 111.39 20.028L112.074 21.972L109.626 19.776L111.498 17.544C112.746 18.528 113.898 19.584 114.954 20.712C116.01 21.84 116.862 23.04 117.51 24.312C118.158 25.584 118.482 26.928 118.482 28.344C118.482 28.896 118.386 29.52 118.194 30.216C118.002 30.912 117.678 31.596 117.222 32.268C116.766 32.916 116.13 33.456 115.314 33.888C114.498 34.296 113.478 34.5 112.254 34.5ZM112.254 31.548C113.07 31.548 113.742 31.416 114.27 31.152C114.822 30.864 115.23 30.468 115.494 29.964C115.782 29.46 115.926 28.872 115.926 28.2C115.926 27.6 115.818 26.976 115.602 26.328C115.41 25.656 115.002 24.936 114.378 24.168C113.778 23.376 112.854 22.488 111.606 21.504L113.19 21.432C112.302 22.2 111.534 23.016 110.886 23.88C110.238 24.72 109.746 25.548 109.41 26.364C109.074 27.156 108.906 27.876 108.906 28.524C108.906 29.532 109.218 30.288 109.842 30.792C110.49 31.296 111.294 31.548 112.254 31.548ZM114.99 14.34C114.486 14.34 114.054 14.172 113.694 13.836C113.358 13.476 113.19 13.056 113.19 12.576C113.19 12.096 113.358 11.676 113.694 11.316C114.054 10.956 114.486 10.776 114.99 10.776C115.47 10.776 115.878 10.956 116.214 11.316C116.574 11.676 116.754 12.096 116.754 12.576C116.754 13.056 116.574 13.476 116.214 13.836C115.878 14.172 115.47 14.34 114.99 14.34ZM110.058 14.34C109.554 14.34 109.122 14.172 108.762 13.836C108.426 13.476 108.258 13.056 108.258 12.576C108.258 12.096 108.426 11.676 108.762 11.316C109.122 10.956 109.554 10.776 110.058 10.776C110.538 10.776 110.946 10.956 111.282 11.316C111.642 11.676 111.822 12.096 111.822 12.576C111.822 13.056 111.642 13.476 111.282 13.836C110.946 14.172 110.538 14.34 110.058 14.34ZM130.048 34.68C128.128 34.68 126.652 34.464 125.62 34.032C124.612 33.6 123.916 32.928 123.532 32.016C123.148 31.104 122.932 29.928 122.884 28.488L122.164 8.796H125.116L125.836 27.336C125.884 28.512 125.992 29.424 126.16 30.072C126.352 30.696 126.76 31.128 127.384 31.368C128.032 31.608 129.04 31.728 130.408 31.728C130.912 31.728 131.272 31.872 131.488 32.16C131.728 32.424 131.848 32.748 131.848 33.132C131.848 33.516 131.68 33.876 131.344 34.212C131.008 34.524 130.576 34.68 130.048 34.68ZM130.049 34.68L130.409 31.728C131.609 31.728 132.545 31.644 133.217 31.476C133.889 31.284 134.393 30.936 134.729 30.432C135.089 29.904 135.377 29.148 135.593 28.164C135.809 27.18 136.073 25.896 136.385 24.312L139.193 24.852C139.097 25.284 138.989 25.764 138.869 26.292C138.749 26.82 138.641 27.348 138.545 27.876C138.473 28.38 138.437 28.824 138.437 29.208C138.437 29.568 138.461 29.904 138.509 30.216C138.557 30.528 138.737 30.792 139.049 31.008C139.361 31.224 139.889 31.404 140.633 31.548C141.377 31.668 142.445 31.728 143.837 31.728C144.341 31.728 144.701 31.872 144.917 32.16C145.157 32.424 145.277 32.748 145.277 33.132C145.277 33.516 145.109 33.876 144.773 34.212C144.437 34.524 144.005 34.68 143.477 34.68C142.013 34.68 140.849 34.608 139.985 34.464C139.121 34.296 138.461 34.056 138.005 33.744C137.573 33.432 137.261 33.048 137.069 32.592C136.901 32.112 136.769 31.56 136.673 30.936L137.753 31.008C137.369 31.776 136.949 32.4 136.493 32.88C136.061 33.36 135.557 33.732 134.981 33.996C134.405 34.26 133.709 34.44 132.893 34.536C132.101 34.632 131.153 34.68 130.049 34.68ZM139.121 41.484C138.617 41.484 138.185 41.304 137.825 40.944C137.489 40.608 137.321 40.2 137.321 39.72C137.321 39.24 137.489 38.82 137.825 38.46C138.185 38.1 138.617 37.92 139.121 37.92C139.601 37.92 140.009 38.1 140.345 38.46C140.705 38.82 140.885 39.24 140.885 39.72C140.885 40.2 140.705 40.608 140.345 40.944C140.009 41.304 139.601 41.484 139.121 41.484ZM134.189 41.484C133.685 41.484 133.253 41.304 132.893 40.944C132.557 40.608 132.389 40.2 132.389 39.72C132.389 39.24 132.557 38.82 132.893 38.46C133.253 38.1 133.685 37.92 134.189 37.92C134.669 37.92 135.077 38.1 135.413 38.46C135.773 38.82 135.953 39.24 135.953 39.72C135.953 40.2 135.773 40.608 135.413 40.944C135.077 41.304 134.669 41.484 134.189 41.484ZM166.411 34.68C165.403 34.68 164.479 34.62 163.639 34.5C162.799 34.356 162.043 34.104 161.371 33.744C160.699 33.384 160.135 32.868 159.679 32.196C159.223 31.5 158.875 30.588 158.635 29.46L160.759 28.2C161.071 29.16 161.455 29.892 161.911 30.396C162.367 30.9 162.979 31.248 163.747 31.44C164.539 31.632 165.547 31.728 166.771 31.728C167.275 31.728 167.635 31.872 167.851 32.16C168.091 32.424 168.211 32.748 168.211 33.132C168.211 33.516 168.043 33.876 167.707 34.212C167.371 34.524 166.939 34.68 166.411 34.68ZM143.479 34.68L143.803 31.728C145.051 31.728 146.275 31.632 147.475 31.44C148.675 31.248 149.851 30.972 151.003 30.612C152.155 30.252 153.259 29.82 154.315 29.316C155.395 28.788 156.415 28.188 157.375 27.516C156.751 26.964 156.031 26.484 155.215 26.076C154.399 25.668 153.499 25.356 152.515 25.14C151.555 24.9 150.535 24.78 149.455 24.78C149.071 24.78 148.711 24.792 148.375 24.816C148.039 24.84 147.703 24.888 147.367 24.96C147.031 25.008 146.647 25.08 146.215 25.176L145.639 22.44C146.287 22.248 146.935 22.104 147.583 22.008C148.231 21.888 148.855 21.828 149.455 21.828C150.703 21.828 151.831 21.984 152.839 22.296C153.847 22.584 154.759 22.944 155.575 23.376C156.415 23.808 157.195 24.24 157.915 24.672C158.659 25.104 159.379 25.476 160.075 25.788C160.771 26.076 161.491 26.22 162.235 26.22H162.991L163.243 28.812C162.211 28.812 161.263 28.956 160.399 29.244C159.535 29.532 158.683 29.904 157.843 30.36C157.027 30.792 156.163 31.26 155.251 31.764C154.339 32.244 153.331 32.712 152.227 33.168C151.123 33.6 149.851 33.96 148.411 34.248C146.995 34.536 145.351 34.68 143.479 34.68ZM166.4 34.68L166.724 31.728C168.092 31.728 169.052 31.596 169.604 31.332C170.156 31.068 170.468 30.6 170.54 29.928C170.636 29.256 170.66 28.32 170.612 27.12L169.928 8.796H172.844L173.564 26.796C173.612 28.068 173.564 29.196 173.42 30.18C173.3 31.164 172.988 31.992 172.484 32.664C172.004 33.336 171.272 33.84 170.288 34.176C169.328 34.512 168.032 34.68 166.4 34.68ZM179.064 34.5L178.344 8.796H181.26L181.98 34.5H179.064ZM200.847 34.644C200.535 34.644 200.187 34.584 199.803 34.464C199.419 34.32 199.083 34.08 198.795 33.744C198.507 33.384 198.363 32.892 198.363 32.268C198.363 31.692 198.483 31.068 198.723 30.396C198.963 29.724 199.263 29.052 199.623 28.38C200.007 27.684 200.367 27.048 200.703 26.472L202.863 27.588C202.623 28.02 202.395 28.488 202.179 28.992C201.963 29.472 201.783 29.904 201.639 30.288C201.495 30.648 201.411 30.9 201.387 31.044C201.939 31.188 202.335 31.416 202.575 31.728C202.839 32.016 202.971 32.328 202.971 32.664C202.971 33.192 202.803 33.66 202.467 34.068C202.131 34.452 201.591 34.644 200.847 34.644ZM214.208 34.5C213.032 34.5 211.976 34.296 211.04 33.888C210.104 33.48 209.36 32.856 208.808 32.016C208.28 31.176 208.016 30.108 208.016 28.812C208.016 27.78 208.412 26.496 209.204 24.96C209.996 23.4 211.376 21.756 213.344 20.028L214.028 21.972L211.58 19.776L213.452 17.544C214.7 18.528 215.852 19.584 216.908 20.712C217.964 21.84 218.816 23.04 219.464 24.312C220.112 25.584 220.436 26.928 220.436 28.344C220.436 28.896 220.34 29.52 220.148 30.216C219.956 30.912 219.632 31.596 219.176 32.268C218.72 32.916 218.084 33.456 217.268 33.888C216.452 34.296 215.432 34.5 214.208 34.5ZM214.208 31.548C215.024 31.548 215.696 31.416 216.224 31.152C216.776 30.864 217.184 30.468 217.448 29.964C217.736 29.46 217.88 28.872 217.88 28.2C217.88 27.6 217.772 26.976 217.556 26.328C217.364 25.656 216.956 24.936 216.332 24.168C215.732 23.376 214.808 22.488 213.56 21.504L215.144 21.432C214.256 22.2 213.488 23.016 212.84 23.88C212.192 24.72 211.7 25.548 211.364 26.364C211.028 27.156 210.86 27.876 210.86 28.524C210.86 29.532 211.172 30.288 211.796 30.792C212.444 31.296 213.248 31.548 214.208 31.548ZM216.944 14.34C216.44 14.34 216.008 14.172 215.648 13.836C215.312 13.476 215.144 13.056 215.144 12.576C215.144 12.096 215.312 11.676 215.648 11.316C216.008 10.956 216.44 10.776 216.944 10.776C217.424 10.776 217.832 10.956 218.168 11.316C218.528 11.676 218.708 12.096 218.708 12.576C218.708 13.056 218.528 13.476 218.168 13.836C217.832 14.172 217.424 14.34 216.944 14.34ZM212.012 14.34C211.508 14.34 211.076 14.172 210.716 13.836C210.38 13.476 210.212 13.056 210.212 12.576C210.212 12.096 210.38 11.676 210.716 11.316C211.076 10.956 211.508 10.776 212.012 10.776C212.492 10.776 212.9 10.956 213.236 11.316C213.596 11.676 213.776 12.096 213.776 12.576C213.776 13.056 213.596 13.476 213.236 13.836C212.9 14.172 212.492 14.34 212.012 14.34ZM224.729 34.5L224.117 11.316H227.033L227.645 34.5H224.729ZM222.353 9.156L221.921 7.212C222.545 7.068 223.049 6.948 223.433 6.852C223.817 6.756 224.249 6.648 224.729 6.528L224.549 7.284C223.925 7.092 223.325 6.684 222.749 6.06C222.197 5.436 221.921 4.728 221.921 3.936C221.921 3.216 222.089 2.616 222.425 2.136C222.785 1.632 223.241 1.26 223.793 1.02C224.369 0.779998 224.981 0.659998 225.629 0.659998C225.893 0.659998 226.169 0.683998 226.457 0.731999C226.769 0.779999 227.057 0.851998 227.321 0.947999L227.033 2.748C226.793 2.7 226.565 2.652 226.349 2.604C226.133 2.556 225.893 2.532 225.629 2.532C225.077 2.532 224.645 2.652 224.333 2.892C224.021 3.108 223.865 3.42 223.865 3.828C223.865 4.332 224.021 4.764 224.333 5.124C224.669 5.484 225.041 5.772 225.449 5.988C225.881 6.18 226.229 6.276 226.493 6.276L225.017 6.42C225.665 6.252 226.265 6.084 226.817 5.916C227.393 5.724 227.909 5.544 228.365 5.376L228.941 7.212C228.365 7.428 227.681 7.656 226.889 7.896C226.121 8.136 225.341 8.364 224.549 8.58C223.757 8.796 223.025 8.988 222.353 9.156ZM230.142 42.852L229.098 40.116C230.85 39.54 232.302 38.88 233.454 38.136C234.63 37.392 235.554 36.6 236.226 35.76C236.922 34.92 237.414 34.068 237.702 33.204C237.99 32.316 238.134 31.464 238.134 30.648C238.134 29.472 237.87 28.284 237.342 27.084C236.838 25.86 236.274 24.708 235.65 23.628L238.278 22.296C238.734 23.136 239.13 23.964 239.466 24.78C239.826 25.596 240.138 26.364 240.402 27.084C240.69 27.804 240.918 28.464 241.086 29.064C241.422 30.096 241.854 30.804 242.382 31.188C242.934 31.548 243.678 31.728 244.614 31.728C245.118 31.728 245.478 31.872 245.694 32.16C245.934 32.424 246.054 32.748 246.054 33.132C246.054 33.516 245.886 33.876 245.55 34.212C245.214 34.524 244.782 34.68 244.254 34.68C243.198 34.68 242.334 34.5 241.662 34.14C241.014 33.756 240.522 33.264 240.186 32.664C239.85 32.04 239.622 31.392 239.502 30.72L240.654 31.368C240.654 32.952 240.294 34.392 239.574 35.688C238.878 37.008 237.978 38.148 236.874 39.108C235.77 40.092 234.618 40.896 233.418 41.52C232.218 42.144 231.126 42.588 230.142 42.852ZM244.271 34.68L244.631 31.728C245.303 31.728 245.831 31.584 246.215 31.296C246.623 31.008 247.007 30.528 247.367 29.856C247.751 29.184 248.231 28.284 248.807 27.156C249.383 26.004 249.959 25.068 250.535 24.348C251.135 23.604 251.711 23.028 252.263 22.62C252.839 22.188 253.379 21.888 253.883 21.72C254.387 21.552 254.855 21.468 255.287 21.468C256.079 21.468 256.787 21.648 257.411 22.008C258.035 22.344 258.623 22.932 259.175 23.772C259.727 24.588 260.291 25.716 260.867 27.156C261.419 28.476 261.911 29.472 262.343 30.144C262.799 30.792 263.267 31.224 263.747 31.44C264.251 31.632 264.815 31.728 265.439 31.728C265.943 31.728 266.303 31.872 266.519 32.16C266.759 32.424 266.879 32.748 266.879 33.132C266.879 33.516 266.711 33.876 266.375 34.212C266.039 34.524 265.607 34.68 265.079 34.68C264.143 34.68 263.279 34.524 262.487 34.212C261.719 33.9 261.071 33.408 260.543 32.736L261.047 31.98C260.783 32.724 260.423 33.336 259.967 33.816C259.535 34.272 259.043 34.608 258.491 34.824C257.939 35.064 257.351 35.184 256.727 35.184C255.935 35.184 255.119 35.016 254.279 34.68C253.463 34.344 252.671 33.864 251.903 33.24C251.135 32.616 250.463 31.884 249.887 31.044C249.263 32.148 248.663 32.964 248.087 33.492C247.535 33.996 246.959 34.32 246.359 34.464C245.759 34.608 245.063 34.68 244.271 34.68ZM251.255 28.308C251.663 28.98 252.095 29.568 252.551 30.072C253.031 30.576 253.511 30.996 253.991 31.332C254.471 31.644 254.939 31.884 255.395 32.052C255.875 32.196 256.307 32.268 256.691 32.268C257.531 32.268 258.143 31.968 258.527 31.368C258.935 30.768 258.923 29.928 258.491 28.848C258.275 28.296 258.047 27.756 257.807 27.228C257.591 26.7 257.351 26.22 257.087 25.788C256.823 25.332 256.523 24.984 256.187 24.744C255.851 24.48 255.479 24.348 255.071 24.348C254.711 24.348 254.327 24.468 253.919 24.708C253.535 24.948 253.115 25.356 252.659 25.932C252.227 26.508 251.759 27.3 251.255 28.308ZM265.084 34.68L265.408 31.728C266.776 31.728 267.736 31.596 268.288 31.332C268.84 31.068 269.152 30.6 269.224 29.928C269.32 29.256 269.344 28.32 269.296 27.12L268.612 8.796H271.528L272.248 26.796C272.296 28.068 272.248 29.196 272.104 30.18C271.984 31.164 271.672 31.992 271.168 32.664C270.688 33.336 269.956 33.84 268.972 34.176C268.012 34.512 266.716 34.68 265.084 34.68ZM277.748 34.5L277.028 8.796H279.944L280.664 34.5H277.748Z" fill="#1A1A1A"/>
</svg>
