<svg width="225" height="42" viewBox="0 0 225 42" fill="none" xmlns="http://www.w3.org/2000/svg">
<path d="M33.4404 0.372V1.38C30.2004 6.492 27.7884 11.808 26.2044 17.328C24.6204 22.848 23.8284 28.632 23.8284 34.68C23.8284 35.04 23.8284 35.388 23.8284 35.724C23.8284 36.084 23.8404 36.444 23.8644 36.804L22.5684 39.756L18.9324 41.916C12.0684 41.532 6.08041 38.964 0.968405 34.212L1.32841 33.276H2.51641C7.14841 37.716 12.5364 40.08 18.6804 40.368L20.8404 39.144L22.6404 35.004V33.672C22.6404 22.992 25.1244 12.864 30.0924 3.288L23.2524 4.332L19.9044 2.964L18.6804 1.128L19.9044 0.623998C21.5124 2.16 23.2764 2.928 25.1964 2.928C26.6604 2.928 28.2324 2.472 29.9124 1.56L32.0724 0.0119998L33.4404 0.372ZM37.5056 17.292L38.6216 17.724L38.2976 18.84L35.7056 21.792L34.1576 25.5L32.9336 24.708L34.3016 20.82L37.5056 17.292ZM40.2776 8.04L41.2136 8.22L42.7976 9.948L42.0776 10.812L40.7096 10.56L39.8456 9.264L40.2776 8.04ZM44.3552 17.796L43.4192 21.18L48.8552 18.516H50.2232L50.9072 19.632V21.792L50.0432 23.412L49.8992 25.5L48.4952 25.14C48.1352 24.612 47.9552 24.084 47.9552 23.556C47.9552 22.692 48.4592 21.84 49.4672 21L49.1072 20.388L41.7632 23.772L40.0352 23.34L43.1312 17.472L44.3552 17.796ZM54.8584 20.46L56.4064 21.072L57.4504 23.556L56.2264 27.552L53.7424 29.352L52.6984 29.1L55.6504 25.032L54.8584 20.46ZM74.7386 19.02C73.0106 25.044 69.7826 30.228 65.0546 34.572L60.9146 36.984L59.3306 36.804L58.3946 35.364L59.0066 33.276L59.9426 33.456L60.1946 35.184L61.3466 35.004C67.2506 30.972 71.3066 25.44 73.5146 18.408L74.7386 19.02ZM77.5826 10.812L77.1506 11.748H75.9266L74.3786 10.02L74.8106 8.832L77.5826 10.812ZM85.0453 14.268L84.8653 15.168C83.0653 18.024 80.9053 20.832 78.3853 23.592L77.4133 25.536L76.8373 25.788L75.6133 25.644C75.9013 24.06 77.0293 22.536 78.9973 21.072L83.8933 14.088L85.0453 14.268ZM87.9613 11.208L88.3933 11.82L87.9613 12.828L86.2333 12.648V11.928L83.3173 12.648L81.9133 12.504C82.2733 11.712 83.7973 11.232 86.4853 11.064L87.9613 11.208ZM91.0022 15.78L90.7502 19.236L91.5062 20.1L94.2782 19.344L97.8422 16.752L98.8502 17.184L98.7782 18.66C97.1942 20.172 95.7902 21.6 94.5662 22.944C93.3422 24.288 92.2382 25.644 91.2542 27.012C90.2942 28.404 89.4062 29.88 88.5902 31.44C87.7982 33.024 87.0182 34.812 86.2502 36.804L86.8622 38.352L86.5382 39.396H85.3142L84.5222 38.208L86.1062 33.096L94.4582 21.684L93.7742 21.252L91.1822 22.008L89.5262 20.712L89.2022 17.076L89.7782 15.096L91.0022 15.78ZM110.696 14.88L111.02 16.5L111.884 17.472L111.812 18.84L108.86 23.16L110.696 23.592L116.744 22.044L116.06 23.16L110.516 25.32L107.744 24.708L107.132 23.952V22.224H106.556L101.372 25.5H99.8956L98.8516 24.204L99.2836 22.224C101.78 18.504 104.972 15.732 108.86 13.908L110.696 14.88ZM106.124 17.292L100.832 22.98L101.012 23.412L104.828 21.792L109.652 18.228L109.472 16.248L108.536 15.744L106.124 17.292ZM119.836 17.796L118.9 21.18L124.336 18.516H125.704L126.388 19.632V21.792L125.524 23.412L125.38 25.5L123.976 25.14C123.616 24.612 123.436 24.084 123.436 23.556C123.436 22.692 123.94 21.84 124.948 21L124.588 20.388L117.244 23.772L115.516 23.34L118.612 17.472L119.836 17.796ZM130.339 20.46L131.887 21.072L132.931 23.556L131.707 27.552L129.223 29.352L128.179 29.1L131.131 25.032L130.339 20.46ZM157.383 14.88L157.707 16.5L158.571 17.472L158.499 18.84L155.547 23.16L157.383 23.592L163.431 22.044L162.747 23.16L157.203 25.32L154.431 24.708L153.819 23.952V22.224H153.243L148.059 25.5H146.583L145.539 24.204L145.971 22.224C148.467 18.504 151.659 15.732 155.547 13.908L157.383 14.88ZM152.811 17.292L147.519 22.98L147.699 23.412L151.515 21.792L156.339 18.228L156.159 16.248L155.223 15.744L152.811 17.292ZM170.339 19.884L167.135 22.044L166.955 22.836L172.823 23.412L174.047 24.024V24.816L173.075 25.5L163.751 23.952L162.203 22.98L162.635 21.792L167.135 20.388L168.503 19.272L167.459 17.724L164.543 16.68L164.363 15.924L164.975 15.312C167.567 15.408 169.403 16.44 170.483 18.408L170.339 19.884ZM185.895 14.88L186.219 16.5L187.083 17.472L187.011 18.84L184.059 23.16L185.895 23.592L191.943 22.044L191.259 23.16L185.715 25.32L182.943 24.708L182.331 23.952V22.224H181.755L176.571 25.5H175.095L174.051 24.204L174.483 22.224C176.979 18.504 180.171 15.732 184.059 13.908L185.895 14.88ZM181.323 17.292L176.031 22.98L176.211 23.412L180.027 21.792L184.851 18.228L184.671 16.248L183.735 15.744L181.323 17.292ZM213.791 10.812L213.179 12.36C209.195 14.904 206.807 18.276 206.015 22.476L206.699 23.592L210.587 24.024L210.407 24.816L207.995 25.428C207.899 25.452 207.815 25.476 207.743 25.5C207.671 25.5 207.587 25.5 207.491 25.5C205.955 25.5 204.947 24.72 204.467 23.16L204.899 19.272L194.099 24.996L191.759 25.32L190.715 24.204L191.075 22.404L195.287 18.84L199.967 16.68H201.515L203.747 18.336C207.203 16.248 210.143 13.596 212.567 10.38L213.791 10.812ZM197.987 19.092L192.695 22.98L193.055 23.412L198.059 21.432L201.767 19.092L201.335 18.336L200.291 18.228L197.987 19.092ZM220.819 14.268L220.639 15.168C218.839 18.024 216.679 20.832 214.159 23.592L213.187 25.536L212.611 25.788L211.387 25.644C211.675 24.06 212.803 22.536 214.771 21.072L219.667 14.088L220.819 14.268ZM223.735 11.208L224.167 11.82L223.735 12.828L222.007 12.648V11.928L219.091 12.648L217.687 12.504C218.047 11.712 219.571 11.232 222.259 11.064L223.735 11.208Z" fill="#1A1A1A"/>
</svg>
