<svg width="264" height="37" viewBox="0 0 264 37" fill="none" xmlns="http://www.w3.org/2000/svg">
<path d="M22.8038 5.88L23.2358 6.996V8.58L21.5798 9.444L16.3238 21.432L13.3718 24.996L12.0038 25.752L10.7798 25.5L9.41184 23.34L8.36784 18.228L2.67984 24.708L1.27584 24.816L0.339844 22.548L2.49984 6.564L3.72384 6.996V8.148C3.72384 12.9 3.11184 17.592 1.88784 22.224L2.49984 22.548C4.82784 20.388 6.61584 17.856 7.86384 14.952L9.23184 14.52L9.84384 15.312L10.0238 20.064L11.2118 23.52L12.0038 23.772L13.9118 22.224C15.6398 19.68 17.1518 17.04 18.4478 14.304C19.7678 11.544 20.8718 8.652 21.7598 5.628L22.8038 5.88ZM31.002 16.428L32.19 18.66C32.142 21.324 30.762 23.292 28.05 24.564L25.134 25.752H22.974L21.75 24.384V24.276C21.75 20.196 24.054 17.412 28.662 15.924L31.002 16.428ZM27.114 18.516L23.298 23.16L23.73 24.132C26.754 23.892 29.118 22.452 30.822 19.812L30.57 17.904L29.022 17.652L27.114 18.516ZM38.8514 16.86V17.724L37.1234 20.676L42.0554 17.112L43.7834 17.04L44.0354 18.84L41.8754 22.548L46.9514 20.388L48.5354 20.568L49.2914 21.972L48.7874 25.32L47.5634 24.708L47.1314 22.224C44.8034 22.704 42.7634 23.676 41.0114 25.14H39.4634L38.9234 23.412L41.2634 20.244L41.0114 19.632L33.4154 25.5L32.1914 24.996L32.3714 23.592L37.7354 16.5L38.8514 16.86ZM61.1213 14.88L61.4453 16.5L62.3093 17.472L62.2373 18.84L59.2853 23.16L61.1213 23.592L67.1693 22.044L66.4853 23.16L60.9413 25.32L58.1693 24.708L57.5573 23.952V22.224H56.9813L51.7973 25.5H50.3213L49.2773 24.204L49.7093 22.224C52.2053 18.504 55.3973 15.732 59.2853 13.908L61.1213 14.88ZM56.5493 17.292L51.2573 22.98L51.4373 23.412L55.2533 21.792L60.0773 18.228L59.8973 16.248L58.9613 15.744L56.5493 17.292ZM70.2614 17.796L69.3254 21.18L74.7614 18.516H76.1294L76.8134 19.632V21.792L75.9494 23.412L75.8054 25.5L74.4014 25.14C74.0414 24.612 73.8614 24.084 73.8614 23.556C73.8614 22.692 74.3654 21.84 75.3734 21L75.0134 20.388L67.6694 23.772L65.9414 23.34L69.0374 17.472L70.2614 17.796ZM80.7647 20.46L82.3127 21.072L83.3567 23.556L82.1327 27.552L79.6487 29.352L78.6047 29.1L81.5567 25.032L80.7647 20.46ZM106.405 11.424L105.829 13.152L97.7648 22.548L98.1248 23.412C99.4928 23.82 100.837 24.024 102.157 24.024C103.285 24.024 104.449 23.88 105.649 23.592L106.261 24.708L99.6728 25.5L96.7568 24.816L95.9648 23.952L96.3968 21.612L105.469 11.172L106.405 11.424ZM110.978 17.292L112.094 17.724L111.77 18.84L109.178 21.792L107.63 25.5L106.406 24.708L107.774 20.82L110.978 17.292ZM113.75 8.04L114.686 8.22L116.27 9.948L115.55 10.812L114.182 10.56L113.318 9.264L113.75 8.04ZM138.672 0.731999L139.176 1.488C138.432 5.184 136.272 7.896 132.696 9.624L126.216 12.72L120.276 19.632L120.528 20.244L125.64 21.792L125.964 22.764L124.848 23.196L121.032 21.72L118.548 21.972C117.324 23.484 116.292 24.768 115.452 25.824C114.612 26.904 113.856 27.948 113.184 28.956C112.488 29.964 111.816 31.056 111.168 32.232C110.52 33.408 109.764 34.872 108.9 36.624L108.144 36.192L108.72 33.42L112.248 26.724C112.92 25.404 113.724 24.216 114.66 23.16C115.596 22.104 116.688 21.192 117.936 20.424L121.644 15.672V15.24H120.888L115.776 17.472H114.84L114.732 16.428L124.596 12.108C128.052 7.284 132.396 3.432 137.628 0.551999L138.672 0.731999ZM128.736 9.948L134.1 7.032L137.448 3.036L137.016 2.604L134.1 4.44L128.736 9.624V9.948ZM139.629 14.34L140.637 15.636V16.68C137.733 19.416 134.253 21.12 130.197 21.792L130.989 23.34L132.717 24.024L140.061 23.16V24.204L135.633 25.5H132.105L130.197 24.816L127.605 21L127.965 19.812H129.153C130.785 16.62 133.605 14.796 137.613 14.34H139.629ZM135.453 16.68L131.745 19.02V19.2L135.885 18.084L139.017 16.248L137.901 15.924L135.453 16.68ZM144.608 20.46L146.156 21.072L147.2 23.556L145.976 27.552L143.492 29.352L142.448 29.1L145.4 25.032L144.608 20.46ZM184.973 0.731999L185.477 1.488C184.733 5.184 182.573 7.896 178.997 9.624L172.517 12.72L166.577 19.632L166.829 20.244L171.941 21.792L172.265 22.764L171.149 23.196L167.333 21.72L164.849 21.972C163.625 23.484 162.593 24.768 161.753 25.824C160.913 26.904 160.157 27.948 159.485 28.956C158.789 29.964 158.117 31.056 157.469 32.232C156.821 33.408 156.065 34.872 155.201 36.624L154.445 36.192L155.021 33.42L158.549 26.724C159.221 25.404 160.025 24.216 160.961 23.16C161.897 22.104 162.989 21.192 164.237 20.424L167.945 15.672V15.24H167.189L162.077 17.472H161.141L161.033 16.428L170.897 12.108C174.353 7.284 178.697 3.432 183.929 0.551999L184.973 0.731999ZM175.037 9.948L180.401 7.032L183.749 3.036L183.317 2.604L180.401 4.44L175.037 9.624V9.948ZM188.342 12.54L187.91 16.5L183.77 20.82L185.138 22.728L187.73 24.204L187.478 25.5C184.646 25.188 182.738 23.772 181.754 21.252L182.042 19.884L186.362 15.924L186.686 14.088L184.958 15.312L184.706 16.68C181.826 19.8 178.682 22.62 175.274 25.14L173.906 24.996L174.338 23.34L187.118 11.748L188.342 12.54ZM201.399 14.34L202.407 15.636V16.68C199.503 19.416 196.023 21.12 191.967 21.792L192.759 23.34L194.487 24.024L201.831 23.16V24.204L197.403 25.5H193.875L191.967 24.816L189.375 21L189.735 19.812H190.923C192.555 16.62 195.375 14.796 199.383 14.34H201.399ZM197.223 16.68L193.515 19.02V19.2L197.655 18.084L200.787 16.248L199.671 15.924L197.223 16.68ZM214.442 14.34L215.45 15.636V16.68C212.546 19.416 209.066 21.12 205.01 21.792L205.802 23.34L207.53 24.024L214.874 23.16V24.204L210.446 25.5H206.918L205.01 24.816L202.418 21L202.778 19.812H203.966C205.598 16.62 208.418 14.796 212.426 14.34H214.442ZM210.266 16.68L206.558 19.02V19.2L210.698 18.084L213.83 16.248L212.714 15.924L210.266 16.68ZM238.537 10.812L237.925 12.36C233.941 14.904 231.553 18.276 230.761 22.476L231.445 23.592L235.333 24.024L235.153 24.816L232.741 25.428C232.645 25.452 232.561 25.476 232.489 25.5C232.417 25.5 232.333 25.5 232.237 25.5C230.701 25.5 229.693 24.72 229.213 23.16L229.645 19.272L218.845 24.996L216.505 25.32L215.461 24.204L215.821 22.404L220.033 18.84L224.713 16.68H226.261L228.493 18.336C231.949 16.248 234.889 13.596 237.313 10.38L238.537 10.812ZM222.733 19.092L217.441 22.98L217.801 23.412L222.805 21.432L226.513 19.092L226.081 18.336L225.037 18.228L222.733 19.092ZM245.385 16.428L246.573 18.66C246.525 21.324 245.145 23.292 242.433 24.564L239.517 25.752H237.357L236.133 24.384V24.276C236.133 20.196 238.437 17.412 243.045 15.924L245.385 16.428ZM241.497 18.516L237.681 23.16L238.113 24.132C241.137 23.892 243.501 22.452 245.205 19.812L244.953 17.904L243.405 17.652L241.497 18.516ZM253.234 16.86V17.724L251.506 20.676L256.438 17.112L258.166 17.04L258.418 18.84L256.258 22.548L261.334 20.388L262.918 20.568L263.674 21.972L263.17 25.32L261.946 24.708L261.514 22.224C259.186 22.704 257.146 23.676 255.394 25.14H253.846L253.306 23.412L255.646 20.244L255.394 19.632L247.798 25.5L246.574 24.996L246.754 23.592L252.118 16.5L253.234 16.86Z" fill="#1A1A1A"/>
</svg>
