<svg width="259" height="42" viewBox="0 0 259 42" fill="none" xmlns="http://www.w3.org/2000/svg">
<path d="M25.3612 4.22L25.0012 5.624C21.6652 8.624 18.1732 11.408 14.5252 13.976C10.9012 16.544 7.0972 18.932 3.1132 21.14L3.4732 21.464C4.9612 20.864 6.4492 20.42 7.9372 20.132C9.4492 19.844 10.9852 19.7 12.5452 19.7C13.0492 19.7 13.5652 19.712 14.0932 19.736C14.6212 19.76 15.1612 19.82 15.7132 19.916L17.0092 20.672L17.4772 21.284L17.1532 21.968H15.6412L14.4532 21.14C14.0452 21.092 13.6492 21.056 13.2652 21.032C12.8812 21.008 12.4972 20.996 12.1132 20.996C8.7532 20.996 5.4412 21.716 2.1772 23.156L0.485203 22.256L0.665203 21.392C6.5932 15.632 13.4332 10.904 21.1852 7.208L23.5252 4.832L22.8052 4.22C22.5892 4.244 22.3852 4.256 22.1932 4.256C22.0012 4.256 21.8212 4.256 21.6532 4.256C17.8372 4.256 14.4652 3.2 11.5372 1.088L12.0052 0.115999C15.5812 2.18 19.4692 3.128 23.6692 2.96L25.3612 4.22ZM40.4202 10.88L40.7442 12.5L41.6082 13.472L41.5362 14.84L38.5842 19.16L40.4202 19.592L46.4682 18.044L45.7842 19.16L40.2402 21.32L37.4682 20.708L36.8562 19.952V18.224H36.2802L31.0962 21.5H29.6202L28.5762 20.204L29.0082 18.224C31.5042 14.504 34.6962 11.732 38.5842 9.908L40.4202 10.88ZM35.8482 13.292L30.5562 18.98L30.7362 19.412L34.5522 17.792L39.3762 14.228L39.1962 12.248L38.2602 11.744L35.8482 13.292ZM49.5602 13.796L48.6242 17.18L54.0602 14.516H55.4282L56.1122 15.632V17.792L55.2482 19.412L55.1042 21.5L53.7002 21.14C53.3402 20.612 53.1602 20.084 53.1602 19.556C53.1602 18.692 53.6642 17.84 54.6722 17L54.3122 16.388L46.9682 19.772L45.2402 19.34L48.3362 13.472L49.5602 13.796ZM60.0635 16.46L61.6115 17.072L62.6555 19.556L61.4315 23.552L58.9475 25.352L57.9035 25.1L60.8555 21.032L60.0635 16.46ZM83.3997 15.884L80.1957 18.044L80.0157 18.836L85.8837 19.412L87.1077 20.024V20.816L86.1357 21.5L76.8117 19.952L75.2637 18.98L75.6957 17.792L80.1957 16.388L81.5637 15.272L80.5197 13.724L77.6037 12.68L77.4237 11.924L78.0357 11.312C80.6277 11.408 82.4637 12.44 83.5437 14.408L83.3997 15.884ZM99.1353 10.34L100.143 11.636V12.68C97.2393 15.416 93.7593 17.12 89.7033 17.792L90.4953 19.34L92.2233 20.024L99.5673 19.16V20.204L95.1393 21.5H91.6113L89.7033 20.816L87.1113 17L87.4713 15.812H88.6593C90.2913 12.62 93.1113 10.796 97.1193 10.34H99.1353ZM94.9593 12.68L91.2513 15.02V15.2L95.3913 14.084L98.5233 12.248L97.4073 11.924L94.9593 12.68ZM104.474 13.796L103.538 17.18L108.974 14.516H110.342L111.026 15.632V17.792L110.162 19.412L110.018 21.5L108.614 21.14C108.254 20.612 108.074 20.084 108.074 19.556C108.074 18.692 108.578 17.84 109.586 17L109.226 16.388L101.882 19.772L100.154 19.34L103.25 13.472L104.474 13.796ZM134.094 6.812L133.482 8.36C129.498 10.904 127.11 14.276 126.318 18.476L127.002 19.592L130.89 20.024L130.71 20.816L128.298 21.428C128.202 21.452 128.118 21.476 128.046 21.5C127.974 21.5 127.89 21.5 127.794 21.5C126.258 21.5 125.25 20.72 124.77 19.16L125.202 15.272L114.402 20.996L112.062 21.32L111.018 20.204L111.378 18.404L115.59 14.84L120.27 12.68H121.818L124.05 14.336C127.506 12.248 130.446 9.596 132.87 6.38L134.094 6.812ZM118.29 15.092L112.998 18.98L113.358 19.412L118.362 17.432L122.07 15.092L121.638 14.336L120.594 14.228L118.29 15.092ZM143.713 10.34L144.721 11.636V12.68C141.817 15.416 138.337 17.12 134.281 17.792L135.073 19.34L136.801 20.024L144.145 19.16V20.204L139.717 21.5H136.189L134.281 20.816L131.689 17L132.049 15.812H133.237C134.869 12.62 137.689 10.796 141.697 10.34H143.713ZM139.537 12.68L135.829 15.02V15.2L139.969 14.084L143.101 12.248L141.985 11.924L139.537 12.68ZM156.576 6.02L158.124 8.18L157.332 11.924L156.756 12.5L155.352 12.356C152.136 14.876 149.868 18.008 148.548 21.752L150.276 21.932L150.42 22.616L147.144 24.344L141.348 36.368L139.188 39.896L137.208 41.624H136.452L135.48 40.076C135.552 34.148 137.856 29.108 142.392 24.956L146.532 22.184L148.872 17.792V17.252H147.144L145.668 16.244C145.548 13.172 147.084 10.808 150.276 9.152L155.604 5.876L156.576 6.02ZM137.028 38.96L139.476 36.548L145.092 25.568L144.552 25.136C140.28 28.232 137.772 32.492 137.028 37.916V38.96ZM150.6 10.952L147.324 15.02L147.684 15.452L150.096 14.84L154.164 10.88L156.216 10.196L156.576 9.332L156.396 7.928L155.604 7.748L150.6 10.952ZM161.328 13.292L162.444 13.724L162.12 14.84L159.528 17.792L157.98 21.5L156.756 20.708L158.124 16.82L161.328 13.292ZM164.1 4.04L165.036 4.22L166.62 5.948L165.9 6.812L164.532 6.56L163.668 5.264L164.1 4.04ZM167.817 16.46L169.365 17.072L170.409 19.556L169.185 23.552L166.701 25.352L165.657 25.1L168.609 21.032L167.817 16.46ZM194.862 10.88L195.186 12.5L196.05 13.472L195.978 14.84L193.026 19.16L194.862 19.592L200.91 18.044L200.226 19.16L194.682 21.32L191.91 20.708L191.298 19.952V18.224H190.722L185.538 21.5H184.062L183.018 20.204L183.45 18.224C185.946 14.504 189.138 11.732 193.026 9.908L194.862 10.88ZM190.29 13.292L184.998 18.98L185.178 19.412L188.994 17.792L193.818 14.228L193.638 12.248L192.702 11.744L190.29 13.292ZM207.818 15.884L204.614 18.044L204.434 18.836L210.302 19.412L211.526 20.024V20.816L210.554 21.5L201.23 19.952L199.682 18.98L200.114 17.792L204.614 16.388L205.982 15.272L204.938 13.724L202.022 12.68L201.842 11.924L202.454 11.312C205.046 11.408 206.882 12.44 207.962 14.408L207.818 15.884ZM223.373 10.88L223.697 12.5L224.561 13.472L224.489 14.84L221.537 19.16L223.373 19.592L229.421 18.044L228.737 19.16L223.193 21.32L220.421 20.708L219.809 19.952V18.224H219.233L214.049 21.5H212.573L211.529 20.204L211.961 18.224C214.457 14.504 217.649 11.732 221.537 9.908L223.373 10.88ZM218.801 13.292L213.509 18.98L213.689 19.412L217.505 17.792L222.329 14.228L222.149 12.248L221.213 11.744L218.801 13.292ZM251.269 6.812L250.657 8.36C246.673 10.904 244.285 14.276 243.493 18.476L244.177 19.592L248.065 20.024L247.885 20.816L245.473 21.428C245.377 21.452 245.293 21.476 245.221 21.5C245.149 21.5 245.065 21.5 244.969 21.5C243.433 21.5 242.425 20.72 241.945 19.16L242.377 15.272L231.577 20.996L229.237 21.32L228.193 20.204L228.553 18.404L232.765 14.84L237.445 12.68H238.993L241.225 14.336C244.681 12.248 247.621 9.596 250.045 6.38L251.269 6.812ZM235.465 15.092L230.173 18.98L230.533 19.412L235.537 17.432L239.245 15.092L238.813 14.336L237.769 14.228L235.465 15.092ZM253.437 13.292L254.553 13.724L254.229 14.84L251.637 17.792L250.089 21.5L248.865 20.708L250.233 16.82L253.437 13.292ZM256.209 4.04L257.145 4.22L258.729 5.948L258.009 6.812L256.641 6.56L255.777 5.264L256.209 4.04Z" fill="#1A1A1A"/>
</svg>
