<svg width="241" height="45" viewBox="0 0 241 45" fill="none" xmlns="http://www.w3.org/2000/svg">
<path d="M0.949141 30.536C0.949141 29.96 0.997141 29.348 1.09314 28.7C1.21314 28.028 1.38114 27.32 1.59714 26.576C1.83714 25.808 2.12514 25.004 2.46114 24.164L5.05314 25.172C4.81314 25.844 4.59714 26.48 4.40514 27.08C4.23714 27.68 4.10514 28.244 4.00914 28.772C3.93714 29.3 3.90114 29.804 3.90114 30.284C3.90114 31.292 4.11714 32.144 4.54914 32.84C5.00514 33.56 5.62914 34.148 6.42114 34.604C7.21314 35.06 8.11314 35.396 9.12114 35.612C10.1531 35.828 11.2451 35.936 12.3971 35.936C13.7891 35.936 15.0851 35.816 16.2851 35.576C17.5091 35.336 18.5771 34.988 19.4891 34.532C20.4251 34.1 21.1571 33.596 21.6851 33.02C22.2131 32.468 22.4771 31.868 22.4771 31.22C22.4771 30.908 22.3571 30.62 22.1171 30.356C21.8771 30.092 21.5171 29.84 21.0371 29.6C20.5571 29.36 19.9811 29.132 19.3091 28.916C18.6371 28.676 17.8691 28.436 17.0051 28.196L17.6891 25.208C18.9371 25.688 20.0411 26.096 21.0011 26.432C21.9611 26.744 22.8011 26.996 23.5211 27.188C24.2411 27.38 24.8651 27.524 25.3931 27.62C25.9211 27.692 26.3651 27.728 26.7251 27.728C27.2291 27.728 27.5891 27.872 27.8051 28.16C28.0451 28.424 28.1651 28.748 28.1651 29.132C28.1651 29.516 27.9971 29.876 27.6611 30.212C27.3251 30.524 26.8931 30.68 26.3651 30.68C26.2211 30.68 26.0771 30.68 25.9331 30.68C25.7891 30.68 25.6331 30.68 25.4651 30.68C25.3211 30.68 25.1771 30.68 25.0331 30.68C25.0811 30.896 25.1171 31.064 25.1411 31.184C25.1651 31.328 25.1771 31.508 25.1771 31.724C25.1771 32.612 24.8651 33.476 24.2411 34.316C23.6411 35.156 22.7531 35.912 21.5771 36.584C20.4011 37.28 18.9731 37.832 17.2931 38.24C15.6371 38.648 13.7411 38.852 11.6051 38.852C9.70914 38.852 7.94514 38.54 6.31314 37.916C4.70514 37.316 3.40914 36.404 2.42514 35.18C1.44114 33.956 0.949141 32.408 0.949141 30.536ZM26.377 30.68L26.737 27.728C27.913 27.728 28.849 27.656 29.545 27.512C30.241 27.368 30.745 27.08 31.057 26.648C31.369 26.192 31.525 25.52 31.525 24.632C31.525 24.032 31.429 23.324 31.237 22.508C31.045 21.668 30.793 20.78 30.481 19.844C30.169 18.908 29.833 17.984 29.473 17.072L32.389 15.992C32.701 16.76 32.989 17.636 33.253 18.62C33.541 19.604 33.781 20.576 33.973 21.536C34.165 22.496 34.261 23.336 34.261 24.056C34.261 25.016 34.153 25.868 33.937 26.612C33.745 27.332 33.445 27.956 33.037 28.484C32.629 28.988 32.101 29.408 31.453 29.744C30.829 30.056 30.097 30.296 29.257 30.464C28.417 30.608 27.457 30.68 26.377 30.68ZM27.709 11.996L27.277 10.052C27.901 9.908 28.405 9.788 28.789 9.692C29.173 9.596 29.605 9.488 30.085 9.368L29.905 10.124C29.281 9.932 28.681 9.524 28.105 8.9C27.553 8.276 27.277 7.568 27.277 6.776C27.277 6.056 27.445 5.456 27.781 4.976C28.141 4.472 28.597 4.1 29.149 3.86C29.725 3.62 30.337 3.5 30.985 3.5C31.249 3.5 31.525 3.524 31.813 3.572C32.125 3.62 32.413 3.692 32.677 3.788L32.389 5.588C32.149 5.54 31.921 5.492 31.705 5.444C31.489 5.396 31.249 5.372 30.985 5.372C30.433 5.372 30.001 5.492 29.689 5.732C29.377 5.948 29.221 6.26 29.221 6.668C29.221 7.172 29.377 7.604 29.689 7.964C30.025 8.324 30.397 8.612 30.805 8.828C31.237 9.02 31.585 9.116 31.849 9.116L30.373 9.26C31.021 9.092 31.621 8.924 32.173 8.756C32.749 8.564 33.265 8.384 33.721 8.216L34.297 10.052C33.721 10.268 33.037 10.496 32.245 10.736C31.477 10.976 30.697 11.204 29.905 11.42C29.113 11.636 28.381 11.828 27.709 11.996ZM38.1329 38.78L37.4849 35.828C38.9249 35.636 40.2449 35.36 41.4449 35C42.6689 34.664 43.7129 34.172 44.5769 33.524C45.4649 32.876 46.1489 32.024 46.6289 30.968C47.1089 29.912 47.3489 28.592 47.3489 27.008C47.3489 25.376 47.0489 24.02 46.4489 22.94C45.8489 21.86 45.0689 21.32 44.1089 21.32C43.6049 21.32 43.1369 21.512 42.7049 21.896C42.2729 22.28 41.9129 22.796 41.6249 23.444C41.3609 24.092 41.2289 24.8 41.2289 25.568C41.2289 26 41.3249 26.36 41.5169 26.648C41.7089 26.912 41.9849 27.128 42.3449 27.296C42.7289 27.44 43.2089 27.548 43.7849 27.62C44.3609 27.692 45.0329 27.728 45.8009 27.728H53.3969C53.9009 27.728 54.2609 27.872 54.4769 28.16C54.7169 28.424 54.8369 28.748 54.8369 29.132C54.8369 29.516 54.6689 29.876 54.3329 30.212C53.9969 30.524 53.5649 30.68 53.0369 30.68H44.4329C43.3529 30.68 42.3449 30.524 41.4089 30.212C40.4969 29.9 39.7529 29.42 39.1769 28.772C38.6249 28.1 38.3489 27.224 38.3489 26.144C38.3489 25.136 38.5049 24.176 38.8169 23.264C39.1289 22.328 39.5489 21.5 40.0769 20.78C40.6289 20.036 41.2649 19.448 41.9849 19.016C42.7289 18.584 43.5329 18.368 44.3969 18.368C45.5009 18.368 46.4849 18.692 47.3489 19.34C48.2129 19.988 48.8969 20.972 49.4009 22.292C49.9049 23.588 50.1569 25.232 50.1569 27.224C50.1569 29.456 49.7009 31.376 48.7889 32.984C47.9009 34.616 46.5569 35.912 44.7569 36.872C42.9809 37.832 40.7729 38.468 38.1329 38.78ZM53.0254 30.68L53.3494 27.728C54.5974 27.728 55.8214 27.632 57.0214 27.44C58.2214 27.248 59.3974 26.972 60.5494 26.612C61.7014 26.252 62.8054 25.82 63.8614 25.316C64.9414 24.788 65.9614 24.188 66.9214 23.516C66.2974 22.964 65.5774 22.484 64.7614 22.076C63.9454 21.668 63.0454 21.356 62.0614 21.14C61.1014 20.9 60.0814 20.78 59.0014 20.78C58.6174 20.78 58.2574 20.792 57.9214 20.816C57.5854 20.84 57.2494 20.888 56.9134 20.96C56.5774 21.008 56.1934 21.08 55.7614 21.176L55.1854 18.44C55.8334 18.248 56.4814 18.104 57.1294 18.008C57.7774 17.888 58.4014 17.828 59.0014 17.828C60.2494 17.828 61.3774 17.984 62.3854 18.296C63.3934 18.584 64.3054 18.944 65.1214 19.376C65.9614 19.808 66.7414 20.24 67.4614 20.672C68.2054 21.104 68.9254 21.476 69.6214 21.788C70.3174 22.076 71.0374 22.22 71.7814 22.22H72.5374L72.7894 24.812C71.7574 24.812 70.8094 24.956 69.9454 25.244C69.0814 25.532 68.2294 25.904 67.3894 26.36C66.5734 26.792 65.7094 27.26 64.7974 27.764C63.8854 28.244 62.8774 28.712 61.7734 29.168C60.6694 29.6 59.3974 29.96 57.9574 30.248C56.5414 30.536 54.8974 30.68 53.0254 30.68ZM63.0694 37.196C62.5654 37.196 62.1334 37.016 61.7734 36.656C61.4374 36.32 61.2694 35.912 61.2694 35.432C61.2694 34.952 61.4374 34.532 61.7734 34.172C62.1334 33.812 62.5654 33.632 63.0694 33.632C63.5494 33.632 63.9574 33.812 64.2934 34.172C64.6534 34.532 64.8334 34.952 64.8334 35.432C64.8334 35.912 64.6534 36.32 64.2934 36.656C63.9574 37.016 63.5494 37.196 63.0694 37.196ZM77.4286 30.5L76.8166 7.316H79.7326L80.3446 30.5H77.4286ZM80.6686 3.824C79.9486 3.824 79.3006 3.704 78.7246 3.464C78.1486 3.2 77.6206 2.948 77.1406 2.708C76.6606 2.468 76.2166 2.348 75.8086 2.348C75.3766 2.348 74.9806 2.456 74.6206 2.672C74.2846 2.888 73.9246 3.188 73.5406 3.572L72.1726 2.42C72.7246 1.724 73.3006 1.184 73.9006 0.799998C74.5006 0.391998 75.1366 0.187998 75.8086 0.187998C76.4086 0.187998 76.9606 0.307998 77.4646 0.547999C77.9686 0.787999 78.4726 1.028 78.9766 1.268C79.5046 1.508 80.0686 1.628 80.6686 1.628C81.0526 1.628 81.4126 1.568 81.7486 1.448C82.0846 1.304 82.4926 1.088 82.9726 0.799998L84.0166 2.276C83.2486 2.948 82.5886 3.38 82.0366 3.572C81.5086 3.74 81.0526 3.824 80.6686 3.824ZM99.2142 30.644C98.9022 30.644 98.5542 30.584 98.1702 30.464C97.7862 30.32 97.4502 30.08 97.1622 29.744C96.8742 29.384 96.7302 28.892 96.7302 28.268C96.7302 27.692 96.8502 27.068 97.0902 26.396C97.3302 25.724 97.6302 25.052 97.9902 24.38C98.3742 23.684 98.7342 23.048 99.0702 22.472L101.23 23.588C100.99 24.02 100.762 24.488 100.546 24.992C100.33 25.472 100.15 25.904 100.006 26.288C99.8622 26.648 99.7782 26.9 99.7542 27.044C100.306 27.188 100.702 27.416 100.942 27.728C101.206 28.016 101.338 28.328 101.338 28.664C101.338 29.192 101.17 29.66 100.834 30.068C100.498 30.452 99.9582 30.644 99.2142 30.644ZM113.043 27.728C114.243 27.728 115.191 27.608 115.887 27.368C116.607 27.128 117.123 26.78 117.435 26.324C117.771 25.844 117.939 25.292 117.939 24.668C117.939 24.188 117.807 23.612 117.543 22.94C117.303 22.268 116.967 21.524 116.535 20.708C116.103 19.868 115.599 18.992 115.023 18.08C114.471 17.144 113.871 16.196 113.223 15.236L115.707 13.616C116.643 15.032 117.459 16.376 118.155 17.648C118.851 18.896 119.439 20.072 119.919 21.176C120.399 22.256 120.783 23.276 121.071 24.236C121.407 25.292 121.779 26.072 122.187 26.576C122.619 27.08 123.063 27.404 123.519 27.548C123.975 27.668 124.395 27.728 124.779 27.728C125.283 27.728 125.655 27.872 125.895 28.16C126.135 28.424 126.255 28.748 126.255 29.132C126.255 29.516 126.087 29.876 125.751 30.212C125.415 30.524 124.983 30.68 124.455 30.68C123.663 30.68 122.883 30.536 122.115 30.248C121.371 29.936 120.723 29.444 120.171 28.772C119.619 28.076 119.235 27.152 119.019 26L120.459 24.848C120.459 25.808 120.255 26.744 119.847 27.656C119.439 28.544 118.695 29.276 117.615 29.852C116.559 30.428 115.035 30.716 113.043 30.716C112.179 30.716 111.339 30.644 110.523 30.5C109.731 30.356 108.999 30.152 108.327 29.888C107.655 29.6 107.067 29.264 106.563 28.88L108.003 26.396C108.483 26.708 109.155 27.008 110.019 27.296C110.883 27.584 111.891 27.728 113.043 27.728ZM124.463 30.68L124.823 27.728C125.999 27.728 126.935 27.656 127.631 27.512C128.327 27.368 128.831 27.08 129.143 26.648C129.455 26.192 129.611 25.52 129.611 24.632C129.611 24.032 129.515 23.324 129.323 22.508C129.131 21.668 128.879 20.78 128.567 19.844C128.255 18.908 127.919 17.984 127.559 17.072L130.475 15.992C130.787 16.76 131.075 17.636 131.339 18.62C131.627 19.604 131.867 20.576 132.059 21.536C132.251 22.496 132.347 23.336 132.347 24.056C132.347 25.016 132.239 25.868 132.023 26.612C131.831 27.332 131.531 27.956 131.123 28.484C130.715 28.988 130.187 29.408 129.539 29.744C128.915 30.056 128.183 30.296 127.343 30.464C126.503 30.608 125.543 30.68 124.463 30.68ZM129.071 12.248C128.567 12.248 128.135 12.08 127.775 11.744C127.439 11.384 127.271 10.964 127.271 10.484C127.271 10.004 127.439 9.584 127.775 9.224C128.135 8.864 128.567 8.684 129.071 8.684C129.551 8.684 129.959 8.864 130.295 9.224C130.655 9.584 130.835 10.004 130.835 10.484C130.835 10.964 130.655 11.384 130.295 11.744C129.959 12.08 129.551 12.248 129.071 12.248ZM134.305 44.656V42.64L142.369 40.264V42.316L134.305 44.656ZM133.185 38.78L132.141 36.044C134.565 35.276 136.425 34.352 137.721 33.272C139.041 32.216 139.941 31.112 140.421 29.96C140.925 28.808 141.177 27.704 141.177 26.648C141.177 25.976 141.105 25.328 140.961 24.704C140.817 24.08 140.565 23.372 140.205 22.58C139.845 21.788 139.341 20.804 138.693 19.628L141.321 18.296C142.233 19.856 142.881 21.332 143.265 22.724C143.673 24.116 143.877 25.34 143.877 26.396C143.877 27.908 143.625 29.276 143.121 30.5C142.641 31.724 141.993 32.804 141.177 33.74C140.385 34.7 139.509 35.516 138.549 36.188C137.613 36.86 136.665 37.412 135.705 37.844C134.769 38.276 133.929 38.588 133.185 38.78ZM139.413 14.156C138.909 14.156 138.477 13.988 138.117 13.652C137.781 13.292 137.613 12.872 137.613 12.392C137.613 11.912 137.781 11.492 138.117 11.132C138.477 10.772 138.909 10.592 139.413 10.592C139.893 10.592 140.301 10.772 140.637 11.132C140.997 11.492 141.177 11.912 141.177 12.392C141.177 12.872 140.997 13.292 140.637 13.652C140.301 13.988 139.893 14.156 139.413 14.156ZM162.777 30.644C162.465 30.644 162.117 30.584 161.733 30.464C161.349 30.32 161.013 30.08 160.725 29.744C160.437 29.384 160.293 28.892 160.293 28.268C160.293 27.692 160.413 27.068 160.653 26.396C160.893 25.724 161.193 25.052 161.553 24.38C161.937 23.684 162.297 23.048 162.633 22.472L164.793 23.588C164.553 24.02 164.325 24.488 164.109 24.992C163.893 25.472 163.713 25.904 163.569 26.288C163.425 26.648 163.341 26.9 163.317 27.044C163.869 27.188 164.265 27.416 164.505 27.728C164.769 28.016 164.901 28.328 164.901 28.664C164.901 29.192 164.733 29.66 164.397 30.068C164.061 30.452 163.521 30.644 162.777 30.644ZM169.945 30.536C169.945 29.672 170.065 28.712 170.305 27.656C170.545 26.6 170.929 25.436 171.457 24.164L174.049 25.172C173.665 26.18 173.377 27.104 173.185 27.944C172.993 28.784 172.897 29.564 172.897 30.284C172.897 31.604 173.221 32.672 173.869 33.488C174.541 34.328 175.429 34.94 176.533 35.324C177.661 35.708 178.897 35.9 180.241 35.9C181.873 35.9 183.241 35.72 184.345 35.36C185.449 35.024 186.325 34.556 186.973 33.956C187.621 33.356 188.077 32.672 188.341 31.904C188.629 31.16 188.773 30.38 188.773 29.564C188.773 28.508 188.689 27.512 188.521 26.576C188.377 25.64 188.173 24.728 187.909 23.84C187.669 22.928 187.405 22.004 187.117 21.068L190.033 20.276C190.297 21.188 190.501 21.932 190.645 22.508C190.789 23.06 190.897 23.504 190.969 23.84C191.065 24.176 191.149 24.476 191.221 24.74C191.485 25.628 191.833 26.288 192.265 26.72C192.697 27.128 193.189 27.404 193.741 27.548C194.317 27.668 194.905 27.728 195.505 27.728C196.009 27.728 196.369 27.872 196.585 28.16C196.825 28.424 196.945 28.748 196.945 29.132C196.945 29.516 196.777 29.876 196.441 30.212C196.105 30.524 195.673 30.68 195.145 30.68C194.137 30.68 193.297 30.512 192.625 30.176C191.953 29.816 191.425 29.372 191.041 28.844C190.681 28.316 190.441 27.764 190.321 27.188L191.797 29.024C191.725 30.248 191.485 31.436 191.077 32.588C190.693 33.764 190.069 34.82 189.205 35.756C188.341 36.716 187.165 37.472 185.677 38.024C184.213 38.576 182.365 38.852 180.133 38.852C178.765 38.852 177.469 38.684 176.245 38.348C175.021 38.012 173.929 37.496 172.969 36.8C172.033 36.128 171.289 35.264 170.737 34.208C170.209 33.176 169.945 31.952 169.945 30.536ZM180.817 16.172C180.313 16.172 179.881 16.004 179.521 15.668C179.185 15.308 179.017 14.888 179.017 14.408C179.017 13.928 179.185 13.508 179.521 13.148C179.881 12.788 180.313 12.608 180.817 12.608C181.297 12.608 181.705 12.788 182.041 13.148C182.401 13.508 182.581 13.928 182.581 14.408C182.581 14.888 182.401 15.308 182.041 15.668C181.705 16.004 181.297 16.172 180.817 16.172ZM195.162 30.68L195.522 27.728C196.722 27.728 197.658 27.644 198.33 27.476C199.002 27.284 199.506 26.936 199.842 26.432C200.202 25.904 200.49 25.148 200.706 24.164C200.922 23.18 201.186 21.896 201.498 20.312L204.306 20.852C204.21 21.284 204.102 21.764 203.982 22.292C203.862 22.82 203.754 23.348 203.658 23.876C203.586 24.38 203.55 24.824 203.55 25.208C203.55 25.568 203.574 25.904 203.622 26.216C203.67 26.528 203.85 26.792 204.162 27.008C204.474 27.224 205.002 27.404 205.746 27.548C206.49 27.668 207.558 27.728 208.95 27.728C209.454 27.728 209.814 27.872 210.03 28.16C210.27 28.424 210.39 28.748 210.39 29.132C210.39 29.516 210.222 29.876 209.886 30.212C209.55 30.524 209.118 30.68 208.59 30.68C207.126 30.68 205.962 30.608 205.098 30.464C204.234 30.296 203.574 30.056 203.118 29.744C202.686 29.432 202.374 29.048 202.182 28.592C202.014 28.112 201.882 27.56 201.786 26.936L202.866 27.008C202.482 27.776 202.062 28.4 201.606 28.88C201.174 29.36 200.67 29.732 200.094 29.996C199.518 30.26 198.822 30.44 198.006 30.536C197.214 30.632 196.266 30.68 195.162 30.68ZM204.234 37.484C203.73 37.484 203.298 37.304 202.938 36.944C202.602 36.608 202.434 36.2 202.434 35.72C202.434 35.24 202.602 34.82 202.938 34.46C203.298 34.1 203.73 33.92 204.234 33.92C204.714 33.92 205.122 34.1 205.458 34.46C205.818 34.82 205.998 35.24 205.998 35.72C205.998 36.2 205.818 36.608 205.458 36.944C205.122 37.304 204.714 37.484 204.234 37.484ZM199.302 37.484C198.798 37.484 198.366 37.304 198.006 36.944C197.67 36.608 197.502 36.2 197.502 35.72C197.502 35.24 197.67 34.82 198.006 34.46C198.366 34.1 198.798 33.92 199.302 33.92C199.782 33.92 200.19 34.1 200.526 34.46C200.886 34.82 201.066 35.24 201.066 35.72C201.066 36.2 200.886 36.608 200.526 36.944C200.19 37.304 199.782 37.484 199.302 37.484ZM208.592 30.68L208.952 27.728C209.96 27.728 210.752 27.644 211.328 27.476C211.904 27.284 212.336 26.936 212.624 26.432C212.936 25.904 213.2 25.148 213.416 24.164C213.632 23.18 213.896 21.896 214.208 20.312L217.016 20.852C216.92 21.284 216.812 21.764 216.692 22.292C216.572 22.82 216.464 23.348 216.368 23.876C216.296 24.38 216.26 24.824 216.26 25.208C216.26 25.688 216.368 26.12 216.584 26.504C216.8 26.888 217.268 27.188 217.988 27.404C218.708 27.62 219.812 27.728 221.3 27.728C221.804 27.728 222.164 27.872 222.38 28.16C222.62 28.424 222.74 28.748 222.74 29.132C222.74 29.516 222.572 29.876 222.236 30.212C221.9 30.524 221.468 30.68 220.94 30.68C219.38 30.68 218.156 30.548 217.268 30.284C216.38 29.996 215.732 29.576 215.324 29.024C214.916 28.448 214.64 27.752 214.496 26.936L215.576 27.008C215.192 27.776 214.772 28.4 214.316 28.88C213.884 29.36 213.404 29.732 212.876 29.996C212.348 30.26 211.736 30.44 211.04 30.536C210.344 30.632 209.528 30.68 208.592 30.68ZM214.208 16.604C213.704 16.604 213.272 16.436 212.912 16.1C212.576 15.74 212.408 15.32 212.408 14.84C212.408 14.36 212.576 13.94 212.912 13.58C213.272 13.22 213.704 13.04 214.208 13.04C214.688 13.04 215.096 13.22 215.432 13.58C215.792 13.94 215.972 14.36 215.972 14.84C215.972 15.32 215.792 15.74 215.432 16.1C215.096 16.436 214.688 16.604 214.208 16.604ZM222.512 12.828V10.812L230.576 8.436V10.488L222.512 12.828ZM220.932 30.68L221.256 27.728C222.504 27.728 223.728 27.632 224.928 27.44C226.128 27.248 227.304 26.972 228.456 26.612C229.608 26.252 230.712 25.82 231.768 25.316C232.848 24.788 233.868 24.188 234.828 23.516C234.204 22.964 233.484 22.484 232.668 22.076C231.852 21.668 230.952 21.356 229.968 21.14C229.008 20.9 227.988 20.78 226.908 20.78C226.524 20.78 226.164 20.792 225.828 20.816C225.492 20.84 225.156 20.888 224.82 20.96C224.484 21.008 224.1 21.08 223.668 21.176L223.092 18.44C223.74 18.248 224.388 18.104 225.036 18.008C225.684 17.888 226.308 17.828 226.908 17.828C228.156 17.828 229.284 17.984 230.292 18.296C231.3 18.584 232.212 18.944 233.028 19.376C233.868 19.808 234.648 20.24 235.368 20.672C236.112 21.104 236.832 21.476 237.528 21.788C238.224 22.076 238.944 22.22 239.688 22.22H240.444L240.696 24.812C239.664 24.812 238.716 24.956 237.852 25.244C236.988 25.532 236.136 25.904 235.296 26.36C234.48 26.792 233.616 27.26 232.704 27.764C231.792 28.244 230.784 28.712 229.68 29.168C228.576 29.6 227.304 29.96 225.864 30.248C224.448 30.536 222.804 30.68 220.932 30.68ZM230.976 37.196C230.472 37.196 230.04 37.016 229.68 36.656C229.344 36.32 229.176 35.912 229.176 35.432C229.176 34.952 229.344 34.532 229.68 34.172C230.04 33.812 230.472 33.632 230.976 33.632C231.456 33.632 231.864 33.812 232.2 34.172C232.56 34.532 232.74 34.952 232.74 35.432C232.74 35.912 232.56 36.32 232.2 36.656C231.864 37.016 231.456 37.196 230.976 37.196Z" fill="#1A1A1A"/>
</svg>
