<svg width="274" height="31" viewBox="0 0 274 31" fill="none" xmlns="http://www.w3.org/2000/svg">
<path d="M22.2754 0.939999L23.0674 1.516L22.8874 2.488C22.6474 2.464 22.4074 2.452 22.1674 2.452C21.9514 2.452 21.7234 2.452 21.4834 2.452C17.4754 2.452 13.8274 3.58 10.5394 5.836L8.70342 11.812L17.4514 9.652L19.5034 10.012L19.9354 11.2C15.5914 11.272 11.4514 12.256 7.51542 14.152C4.80342 17.944 2.83542 22.06 1.61142 26.5L0.243422 25.708L0.423422 23.836L4.99542 15.088L5.17542 13.36C7.04742 12.016 8.07942 10.084 8.27142 7.564L7.15542 6.808L7.51542 5.512L9.13542 3.856L20.5474 0.939999H22.2754ZM33.6137 13.54L33.1817 17.5L29.0417 21.82L30.4097 23.728L33.0017 25.204L32.7497 26.5C29.9177 26.188 28.0097 24.772 27.0257 22.252L27.3137 20.884L31.6337 16.924L31.9577 15.088L30.2297 16.312L29.9777 17.68C27.0977 20.8 23.9537 23.62 20.5457 26.14L19.1777 25.996L19.6097 24.34L32.3897 12.748L33.6137 13.54ZM46.4905 15.88L46.8145 17.5L47.6785 18.472L47.6065 19.84L44.6545 24.16L46.4905 24.592L52.5385 23.044L51.8545 24.16L46.3105 26.32L43.5385 25.708L42.9265 24.952V23.224H42.3505L37.1665 26.5H35.6905L34.6465 25.204L35.0785 23.224C37.5745 19.504 40.7665 16.732 44.6545 14.908L46.4905 15.88ZM41.9185 18.292L36.6265 23.98L36.8065 24.412L40.6225 22.792L45.4465 19.228L45.2665 17.248L44.3305 16.744L41.9185 18.292ZM55.8105 16.744V17.608L53.4705 20.704L53.6505 21.928C56.8185 21.928 59.4705 20.716 61.6065 18.292L62.9025 18.724V19.588L60.3825 23.044L59.7705 26.572L58.2225 25.816L58.6545 22.432L53.8305 23.656L52.1025 23.476L51.3105 22.684C51.3585 19.756 52.5945 17.656 55.0185 16.384L55.8105 16.744ZM66.8721 21.46L68.4201 22.072L69.4641 24.556L68.2401 28.552L65.7561 30.352L64.7121 30.1L67.6641 26.032L66.8721 21.46ZM94.6723 1.048L94.8523 2.596C92.3563 9.988 89.1043 17.02 85.0963 23.692L89.2363 22.468L92.6923 22.72L95.8963 25.924L95.4643 27.4L94.1683 27.22C93.4483 25.084 92.1883 24.016 90.3883 24.016C89.6443 24.016 88.7683 24.22 87.7603 24.628L84.4843 26.104L82.5043 25.672L82.6843 24.124C87.7483 17.14 91.4323 9.328 93.7363 0.688L94.6723 1.048ZM109.143 15.34L110.151 16.636V17.68C107.247 20.416 103.767 22.12 99.7111 22.792L100.503 24.34L102.231 25.024L109.575 24.16V25.204L105.147 26.5H101.619L99.7111 25.816L97.1191 22L97.4791 20.812H98.6671C100.299 17.62 103.119 15.796 107.127 15.34H109.143ZM104.967 17.68L101.259 20.02V20.2L105.399 19.084L108.531 17.248L107.415 16.924L104.967 17.68ZM131.582 1.804V2.56C128.918 5.008 126.374 7.54 123.95 10.156C121.55 12.748 119.258 15.46 117.074 18.292L117.506 18.652L121.754 15.952L123.194 16.132L124.598 17.68C124.718 18.088 124.79 18.496 124.814 18.904C124.862 19.288 124.886 19.672 124.886 20.056C124.886 22.912 123.41 25.06 120.458 26.5L116.642 26.14L114.302 23.836L111.53 25.204L110.162 24.772L110.522 23.404L119.414 12.748L128.918 2.56L130.646 1.696L131.582 1.804ZM117.254 20.632L115.706 22.432L115.85 23.548L118.01 24.952L121.034 23.98L123.374 20.452L123.194 18.652L121.826 17.68L117.254 20.632ZM138.85 15.34L139.858 16.636V17.68C136.954 20.416 133.474 22.12 129.418 22.792L130.21 24.34L131.938 25.024L139.282 24.16V25.204L134.854 26.5H131.326L129.418 25.816L126.826 22L127.186 20.812H128.374C130.006 17.62 132.826 15.796 136.834 15.34H138.85ZM134.674 17.68L130.966 20.02V20.2L135.106 19.084L138.238 17.248L137.122 16.924L134.674 17.68ZM144.189 18.796L143.253 22.18L148.689 19.516H150.057L150.741 20.632V22.792L149.877 24.412L149.733 26.5L148.329 26.14C147.969 25.612 147.789 25.084 147.789 24.556C147.789 23.692 148.293 22.84 149.301 22L148.941 21.388L141.597 24.772L139.869 24.34L142.965 18.472L144.189 18.796ZM154.692 21.46L156.24 22.072L157.284 24.556L156.06 28.552L153.576 30.352L152.532 30.1L155.484 26.032L154.692 21.46ZM191.061 0.939999L191.853 1.516L191.673 2.488C191.433 2.464 191.193 2.452 190.953 2.452C190.737 2.452 190.509 2.452 190.269 2.452C186.261 2.452 182.613 3.58 179.325 5.836L177.489 11.812L186.237 9.652L188.289 10.012L188.721 11.2C184.377 11.272 180.237 12.256 176.301 14.152C173.589 17.944 171.621 22.06 170.397 26.5L169.029 25.708L169.209 23.836L173.781 15.088L173.961 13.36C175.833 12.016 176.865 10.084 177.057 7.564L175.941 6.808L176.301 5.512L177.921 3.856L189.333 0.939999H191.061ZM202.399 13.54L201.967 17.5L197.827 21.82L199.195 23.728L201.787 25.204L201.535 26.5C198.703 26.188 196.795 24.772 195.811 22.252L196.099 20.884L200.419 16.924L200.743 15.088L199.015 16.312L198.763 17.68C195.883 20.8 192.739 23.62 189.331 26.14L187.963 25.996L188.395 24.34L201.175 12.748L202.399 13.54ZM215.456 15.34L216.464 16.636V17.68C213.56 20.416 210.08 22.12 206.024 22.792L206.816 24.34L208.544 25.024L215.888 24.16V25.204L211.46 26.5H207.932L206.024 25.816L203.432 22L203.792 20.812H204.98C206.612 17.62 209.432 15.796 213.44 15.34H215.456ZM211.28 17.68L207.572 20.02V20.2L211.712 19.084L214.844 17.248L213.728 16.924L211.28 17.68ZM221.047 18.292L222.163 18.724L221.839 19.84L219.247 22.792L217.699 26.5L216.475 25.708L217.843 21.82L221.047 18.292ZM223.819 9.04L224.755 9.22L226.339 10.948L225.619 11.812L224.251 11.56L223.387 10.264L223.819 9.04ZM240.496 1.948L227.284 20.812L227.644 21.244L230.236 19.408H232.216L234.988 22.972L237.148 22.792L237.328 23.548L236.104 24.34H233.584L231.964 21.568L230.668 21.064L223.576 26.5L222.532 25.816V24.592C227.644 16.48 233.296 8.788 239.488 1.516L240.496 1.948ZM249.346 15.34L250.354 16.636V17.68C247.45 20.416 243.97 22.12 239.914 22.792L240.706 24.34L242.434 25.024L249.778 24.16V25.204L245.35 26.5H241.822L239.914 25.816L237.322 22L237.682 20.812H238.87C240.502 17.62 243.322 15.796 247.33 15.34H249.346ZM245.17 17.68L241.462 20.02V20.2L245.602 19.084L248.734 17.248L247.618 16.924L245.17 17.68ZM254.937 18.292L256.053 18.724L255.729 19.84L253.137 22.792L251.589 26.5L250.365 25.708L251.733 21.82L254.937 18.292ZM257.709 9.04L258.645 9.22L260.229 10.948L259.509 11.812L258.141 11.56L257.277 10.264L257.709 9.04ZM266.287 15.088L273.019 16.312L272.839 16.924C272.431 16.972 272.035 17.008 271.651 17.032C271.291 17.056 270.907 17.068 270.499 17.068C269.155 17.068 267.835 16.924 266.539 16.636C264.787 19.684 262.543 22.336 259.807 24.592L258.835 26.5L257.467 25.996L257.647 24.592L264.127 17.356L263.767 16.636H262.831L260.851 18.112L259.987 17.86L260.419 15.952L262.831 15.088H266.287Z" fill="#1A1A1A"/>
</svg>
