<svg width="237" height="39" viewBox="0 0 237 39" fill="none" xmlns="http://www.w3.org/2000/svg">
<path d="M0.460859 30.536C0.460859 29.96 0.508859 29.348 0.604859 28.7C0.724859 28.028 0.892859 27.32 1.10886 26.576C1.34886 25.808 1.63686 25.004 1.97286 24.164L4.56486 25.172C4.32486 25.844 4.10886 26.48 3.91686 27.08C3.74886 27.68 3.61686 28.244 3.52086 28.772C3.44886 29.3 3.41286 29.804 3.41286 30.284C3.41286 31.22 3.60486 32.036 3.98886 32.732C4.39686 33.428 4.96086 34.004 5.68086 34.46C6.40086 34.94 7.24086 35.3 8.20086 35.54C9.16086 35.78 10.1929 35.9 11.2969 35.9C13.0249 35.9 14.5369 35.708 15.8329 35.324C17.1289 34.964 18.2089 34.496 19.0729 33.92C19.9369 33.344 20.5729 32.744 20.9809 32.12C21.4129 31.496 21.6289 30.944 21.6289 30.464C21.6289 30.128 21.4249 29.828 21.0169 29.564C20.6089 29.3 20.0809 29.048 19.4329 28.808C18.7849 28.568 18.1009 28.316 17.3809 28.052C16.6609 27.764 15.9769 27.428 15.3289 27.044C14.6809 26.66 14.1529 26.204 13.7449 25.676C13.3369 25.124 13.1329 24.476 13.1329 23.732C13.1329 22.748 13.3729 21.776 13.8529 20.816C14.3569 19.832 15.0289 18.932 15.8689 18.116C16.7329 17.3 17.6929 16.652 18.7489 16.172C19.8049 15.668 20.8969 15.416 22.0249 15.416C23.0329 15.416 23.8969 15.56 24.6169 15.848C25.3369 16.112 25.8529 16.364 26.1649 16.604L24.9769 19.16C24.5689 18.968 24.1129 18.788 23.6089 18.62C23.1049 18.452 22.5769 18.368 22.0249 18.368C21.3289 18.368 20.6209 18.512 19.9009 18.8C19.2049 19.088 18.5569 19.472 17.9569 19.952C17.3809 20.432 16.9129 20.96 16.5529 21.536C16.1929 22.112 16.0129 22.688 16.0129 23.264C16.0129 23.672 16.2169 24.044 16.6249 24.38C17.0569 24.716 17.6089 25.028 18.2809 25.316C18.9529 25.604 19.6609 25.904 20.4049 26.216C21.1729 26.504 21.8929 26.828 22.5649 27.188C23.2369 27.524 23.7769 27.92 24.1849 28.376C24.6169 28.832 24.8329 29.372 24.8329 29.996C24.8329 30.884 24.5329 31.844 23.9329 32.876C23.3329 33.908 22.4449 34.868 21.2689 35.756C20.0929 36.668 18.6529 37.412 16.9489 37.988C15.2689 38.564 13.3249 38.852 11.1169 38.852C9.60486 38.852 8.20086 38.684 6.90486 38.348C5.63286 38.012 4.50486 37.496 3.52086 36.8C2.56086 36.128 1.80486 35.264 1.25286 34.208C0.724859 33.176 0.460859 31.952 0.460859 30.536ZM27.9924 28.88L29.4324 26.396C29.9124 26.708 30.5844 27.008 31.4484 27.296C32.3124 27.584 33.3204 27.728 34.4724 27.728C35.6724 27.728 36.6204 27.608 37.3164 27.368C38.0364 27.128 38.5524 26.78 38.8644 26.324C39.2004 25.844 39.3684 25.292 39.3684 24.668C39.3684 24.188 39.2604 23.6 39.0444 22.904C38.8524 22.184 38.4204 21.224 37.7484 20.024C37.0764 18.8 36.0444 17.204 34.6524 15.236L37.1364 13.616C38.4084 15.368 39.4164 16.952 40.1604 18.368C40.9284 19.784 41.4684 21.032 41.7804 22.112C42.1164 23.168 42.2844 24.08 42.2844 24.848C42.2844 25.808 42.0444 26.744 41.5644 27.656C41.0844 28.544 40.2804 29.276 39.1524 29.852C38.0244 30.428 36.4644 30.716 34.4724 30.716C33.6084 30.716 32.7684 30.644 31.9524 30.5C31.1604 30.356 30.4284 30.152 29.7564 29.888C29.0844 29.6 28.4964 29.264 27.9924 28.88ZM47.2007 30.5L46.4807 4.796H49.3967L50.1167 30.5H47.2007ZM51.6967 38.78L50.6527 36.044C53.0767 35.276 54.9367 34.352 56.2327 33.272C57.5527 32.216 58.4527 31.112 58.9327 29.96C59.4367 28.808 59.6887 27.704 59.6887 26.648C59.6887 25.976 59.6167 25.328 59.4727 24.704C59.3287 24.08 59.0767 23.372 58.7167 22.58C58.3567 21.788 57.8527 20.804 57.2047 19.628L59.8327 18.296C60.7447 19.856 61.3927 21.332 61.7767 22.724C62.1847 24.116 62.3887 25.34 62.3887 26.396C62.3887 27.908 62.1367 29.276 61.6327 30.5C61.1527 31.724 60.5047 32.804 59.6887 33.74C58.8967 34.7 58.0207 35.516 57.0607 36.188C56.1247 36.86 55.1767 37.412 54.2167 37.844C53.2807 38.276 52.4407 38.588 51.6967 38.78ZM57.9247 14.156C57.4207 14.156 56.9887 13.988 56.6287 13.652C56.2927 13.292 56.1247 12.872 56.1247 12.392C56.1247 11.912 56.2927 11.492 56.6287 11.132C56.9887 10.772 57.4207 10.592 57.9247 10.592C58.4047 10.592 58.8127 10.772 59.1487 11.132C59.5087 11.492 59.6887 11.912 59.6887 12.392C59.6887 12.872 59.5087 13.292 59.1487 13.652C58.8127 13.988 58.4047 14.156 57.9247 14.156ZM67.9755 30.5L67.3635 7.316H70.2795L70.8915 30.5H67.9755ZM71.2155 3.824C70.4955 3.824 69.8475 3.704 69.2715 3.464C68.6955 3.2 68.1675 2.948 67.6875 2.708C67.2075 2.468 66.7635 2.348 66.3555 2.348C65.9235 2.348 65.5275 2.456 65.1675 2.672C64.8315 2.888 64.4715 3.188 64.0875 3.572L62.7195 2.42C63.2715 1.724 63.8475 1.184 64.4475 0.799998C65.0475 0.391998 65.6835 0.187998 66.3555 0.187998C66.9555 0.187998 67.5075 0.307998 68.0115 0.547999C68.5155 0.787999 69.0195 1.028 69.5235 1.268C70.0515 1.508 70.6155 1.628 71.2155 1.628C71.5995 1.628 71.9595 1.568 72.2955 1.448C72.6315 1.304 73.0395 1.088 73.5195 0.799998L74.5635 2.276C73.7955 2.948 73.1355 3.38 72.5835 3.572C72.0555 3.74 71.5995 3.824 71.2155 3.824ZM89.7611 30.644C89.4491 30.644 89.1011 30.584 88.7171 30.464C88.3331 30.32 87.9971 30.08 87.7091 29.744C87.4211 29.384 87.2771 28.892 87.2771 28.268C87.2771 27.692 87.3971 27.068 87.6371 26.396C87.8771 25.724 88.1771 25.052 88.5371 24.38C88.9211 23.684 89.2811 23.048 89.6171 22.472L91.7771 23.588C91.5371 24.02 91.3091 24.488 91.0931 24.992C90.8771 25.472 90.6971 25.904 90.5531 26.288C90.4091 26.648 90.3251 26.9 90.3011 27.044C90.8531 27.188 91.2491 27.416 91.4891 27.728C91.7531 28.016 91.8851 28.328 91.8851 28.664C91.8851 29.192 91.7171 29.66 91.3811 30.068C91.0451 30.452 90.5051 30.644 89.7611 30.644ZM96.9296 30.536C96.9296 29.96 96.9776 29.348 97.0736 28.7C97.1936 28.028 97.3616 27.32 97.5776 26.576C97.8176 25.808 98.1056 25.004 98.4416 24.164L101.034 25.172C100.794 25.844 100.578 26.48 100.386 27.08C100.218 27.68 100.086 28.244 99.9896 28.772C99.9176 29.3 99.8816 29.804 99.8816 30.284C99.8816 31.292 100.098 32.144 100.53 32.84C100.986 33.56 101.61 34.148 102.402 34.604C103.194 35.06 104.094 35.396 105.102 35.612C106.134 35.828 107.226 35.936 108.378 35.936C109.77 35.936 111.066 35.816 112.266 35.576C113.49 35.336 114.558 34.988 115.47 34.532C116.406 34.1 117.138 33.596 117.666 33.02C118.194 32.468 118.458 31.868 118.458 31.22C118.458 30.908 118.338 30.62 118.098 30.356C117.858 30.092 117.498 29.84 117.018 29.6C116.538 29.36 115.962 29.132 115.29 28.916C114.618 28.676 113.85 28.436 112.986 28.196L113.67 25.208C114.918 25.688 116.022 26.096 116.982 26.432C117.942 26.744 118.782 26.996 119.502 27.188C120.222 27.38 120.846 27.524 121.374 27.62C121.902 27.692 122.346 27.728 122.706 27.728C123.21 27.728 123.57 27.872 123.786 28.16C124.026 28.424 124.146 28.748 124.146 29.132C124.146 29.516 123.978 29.876 123.642 30.212C123.306 30.524 122.874 30.68 122.346 30.68C122.202 30.68 122.058 30.68 121.914 30.68C121.77 30.68 121.614 30.68 121.446 30.68C121.302 30.68 121.158 30.68 121.014 30.68C121.062 30.896 121.098 31.064 121.122 31.184C121.146 31.328 121.158 31.508 121.158 31.724C121.158 32.612 120.846 33.476 120.222 34.316C119.622 35.156 118.734 35.912 117.558 36.584C116.382 37.28 114.954 37.832 113.274 38.24C111.618 38.648 109.722 38.852 107.586 38.852C105.69 38.852 103.926 38.54 102.294 37.916C100.686 37.316 99.3896 36.404 98.4056 35.18C97.4216 33.956 96.9296 32.408 96.9296 30.536ZM122.321 10.7L120.989 8.684C121.925 8.108 123.041 7.424 124.337 6.632C125.657 5.84 127.169 4.964 128.873 4.004C130.577 3.044 132.461 2.024 134.525 0.943999L135.533 3.14C133.445 4.244 131.585 5.252 129.953 6.164C128.345 7.076 126.917 7.904 125.669 8.648C124.421 9.392 123.305 10.076 122.321 10.7ZM122.357 30.68L122.717 27.728H126.101C127.517 27.728 128.633 27.656 129.449 27.512C130.289 27.344 130.901 27.14 131.285 26.9C131.693 26.636 131.957 26.36 132.077 26.072C132.221 25.76 132.293 25.448 132.293 25.136C132.293 24.584 132.077 23.9 131.645 23.084C131.237 22.268 130.385 21.212 129.089 19.916C128.417 19.244 127.745 18.632 127.073 18.08C126.401 17.504 125.777 17 125.201 16.568C124.649 16.112 124.205 15.728 123.869 15.416C123.533 15.104 123.365 14.864 123.365 14.696C123.365 14.336 123.389 13.988 123.437 13.652C123.509 13.316 123.593 13.004 123.689 12.716C123.809 12.428 123.953 12.2 124.121 12.032C124.601 11.528 125.213 11.024 125.957 10.52C126.725 10.016 127.613 9.488 128.621 8.936C129.653 8.384 130.805 7.796 132.077 7.172C133.373 6.524 134.789 5.816 136.325 5.048L137.549 7.712C135.629 8.624 134.021 9.404 132.725 10.052C131.453 10.676 130.373 11.24 129.485 11.744C128.597 12.224 127.817 12.68 127.145 13.112C126.473 13.544 125.789 14.024 125.093 14.552L125.633 13.184C127.145 14.384 128.477 15.512 129.629 16.568C130.805 17.624 131.789 18.644 132.581 19.628C133.373 20.588 133.973 21.536 134.381 22.472C134.789 23.408 134.993 24.356 134.993 25.316C134.993 25.844 134.897 26.42 134.705 27.044C134.513 27.668 134.105 28.256 133.481 28.808C132.857 29.36 131.921 29.816 130.673 30.176C129.425 30.512 127.745 30.68 125.633 30.68H122.357ZM144.933 27.728C146.133 27.728 147.081 27.608 147.777 27.368C148.497 27.128 149.013 26.78 149.325 26.324C149.661 25.844 149.829 25.292 149.829 24.668C149.829 24.188 149.697 23.612 149.433 22.94C149.193 22.268 148.857 21.524 148.425 20.708C147.993 19.868 147.489 18.992 146.913 18.08C146.361 17.144 145.761 16.196 145.113 15.236L147.597 13.616C148.533 15.032 149.349 16.376 150.045 17.648C150.741 18.896 151.329 20.072 151.809 21.176C152.289 22.256 152.673 23.276 152.961 24.236C153.297 25.292 153.669 26.072 154.077 26.576C154.509 27.08 154.953 27.404 155.409 27.548C155.865 27.668 156.285 27.728 156.669 27.728C157.173 27.728 157.545 27.872 157.785 28.16C158.025 28.424 158.145 28.748 158.145 29.132C158.145 29.516 157.977 29.876 157.641 30.212C157.305 30.524 156.873 30.68 156.345 30.68C155.553 30.68 154.773 30.536 154.005 30.248C153.261 29.936 152.613 29.444 152.061 28.772C151.509 28.076 151.125 27.152 150.909 26L152.349 24.848C152.349 25.808 152.145 26.744 151.737 27.656C151.329 28.544 150.585 29.276 149.505 29.852C148.449 30.428 146.925 30.716 144.933 30.716C144.069 30.716 143.229 30.644 142.413 30.5C141.621 30.356 140.889 30.152 140.217 29.888C139.545 29.6 138.957 29.264 138.453 28.88L139.893 26.396C140.373 26.708 141.045 27.008 141.909 27.296C142.773 27.584 143.781 27.728 144.933 27.728ZM156.354 30.68L156.714 27.728C157.89 27.728 158.826 27.656 159.522 27.512C160.218 27.368 160.722 27.08 161.034 26.648C161.346 26.192 161.502 25.52 161.502 24.632C161.502 24.032 161.406 23.324 161.214 22.508C161.022 21.668 160.77 20.78 160.458 19.844C160.146 18.908 159.81 17.984 159.45 17.072L162.366 15.992C162.678 16.76 162.966 17.636 163.23 18.62C163.518 19.604 163.758 20.576 163.95 21.536C164.142 22.496 164.238 23.336 164.238 24.056C164.238 25.016 164.13 25.868 163.914 26.612C163.722 27.332 163.422 27.956 163.014 28.484C162.606 28.988 162.078 29.408 161.43 29.744C160.806 30.056 160.074 30.296 159.234 30.464C158.394 30.608 157.434 30.68 156.354 30.68ZM160.962 12.248C160.458 12.248 160.026 12.08 159.666 11.744C159.33 11.384 159.162 10.964 159.162 10.484C159.162 10.004 159.33 9.584 159.666 9.224C160.026 8.864 160.458 8.684 160.962 8.684C161.442 8.684 161.85 8.864 162.186 9.224C162.546 9.584 162.726 10.004 162.726 10.484C162.726 10.964 162.546 11.384 162.186 11.744C161.85 12.08 161.442 12.248 160.962 12.248ZM165.076 38.78L164.032 36.044C166.456 35.276 168.316 34.352 169.612 33.272C170.932 32.216 171.832 31.112 172.312 29.96C172.816 28.808 173.068 27.704 173.068 26.648C173.068 25.976 172.996 25.328 172.852 24.704C172.708 24.08 172.456 23.372 172.096 22.58C171.736 21.788 171.232 20.804 170.584 19.628L173.212 18.296C174.124 19.856 174.772 21.332 175.156 22.724C175.564 24.116 175.768 25.34 175.768 26.396C175.768 27.908 175.516 29.276 175.012 30.5C174.532 31.724 173.884 32.804 173.068 33.74C172.276 34.7 171.4 35.516 170.44 36.188C169.504 36.86 168.556 37.412 167.596 37.844C166.66 38.276 165.82 38.588 165.076 38.78ZM171.304 14.156C170.8 14.156 170.368 13.988 170.008 13.652C169.672 13.292 169.504 12.872 169.504 12.392C169.504 11.912 169.672 11.492 170.008 11.132C170.368 10.772 170.8 10.592 171.304 10.592C171.784 10.592 172.192 10.772 172.528 11.132C172.888 11.492 173.068 11.912 173.068 12.392C173.068 12.872 172.888 13.292 172.528 13.652C172.192 13.988 171.784 14.156 171.304 14.156ZM194.667 30.644C194.355 30.644 194.007 30.584 193.623 30.464C193.239 30.32 192.903 30.08 192.615 29.744C192.327 29.384 192.183 28.892 192.183 28.268C192.183 27.692 192.303 27.068 192.543 26.396C192.783 25.724 193.083 25.052 193.443 24.38C193.827 23.684 194.187 23.048 194.523 22.472L196.683 23.588C196.443 24.02 196.215 24.488 195.999 24.992C195.783 25.472 195.603 25.904 195.459 26.288C195.315 26.648 195.231 26.9 195.207 27.044C195.759 27.188 196.155 27.416 196.395 27.728C196.659 28.016 196.791 28.328 196.791 28.664C196.791 29.192 196.623 29.66 196.287 30.068C195.951 30.452 195.411 30.644 194.667 30.644ZM201.836 30.536C201.836 29.96 201.884 29.348 201.98 28.7C202.1 28.028 202.268 27.32 202.484 26.576C202.724 25.808 203.012 25.004 203.348 24.164L205.94 25.172C205.7 25.844 205.484 26.48 205.292 27.08C205.124 27.68 204.992 28.244 204.896 28.772C204.824 29.3 204.788 29.804 204.788 30.284C204.788 31.532 205.112 32.564 205.76 33.38C206.408 34.196 207.296 34.808 208.424 35.216C209.552 35.624 210.824 35.828 212.24 35.828C213.848 35.828 215.192 35.612 216.272 35.18C217.376 34.748 218.252 34.172 218.9 33.452C219.548 32.756 220.004 31.976 220.268 31.112C220.556 30.248 220.7 29.396 220.7 28.556C220.7 27.644 220.52 26.54 220.16 25.244C219.824 23.948 219.188 22.34 218.252 20.42L220.952 19.052C221.432 19.964 221.864 20.924 222.248 21.932C222.656 22.916 222.98 23.936 223.22 24.992C223.484 26.024 223.616 27.08 223.616 28.16C223.616 29.096 223.496 30.056 223.256 31.04C223.04 32.024 222.668 32.972 222.14 33.884C221.612 34.82 220.904 35.648 220.016 36.368C219.152 37.112 218.072 37.7 216.776 38.132C215.504 38.564 213.98 38.78 212.204 38.78C210.812 38.78 209.48 38.612 208.208 38.276C206.96 37.964 205.856 37.472 204.896 36.8C203.96 36.128 203.216 35.276 202.664 34.244C202.112 33.212 201.836 31.976 201.836 30.536ZM212.708 16.172C212.204 16.172 211.772 16.004 211.412 15.668C211.076 15.308 210.908 14.888 210.908 14.408C210.908 13.928 211.076 13.508 211.412 13.148C211.772 12.788 212.204 12.608 212.708 12.608C213.188 12.608 213.596 12.788 213.932 13.148C214.292 13.508 214.472 13.928 214.472 14.408C214.472 14.888 214.292 15.308 213.932 15.668C213.596 16.004 213.188 16.172 212.708 16.172ZM225.544 38.78L224.5 36.044C226.924 35.276 228.784 34.352 230.08 33.272C231.4 32.216 232.3 31.112 232.78 29.96C233.284 28.808 233.536 27.704 233.536 26.648C233.536 25.976 233.464 25.328 233.32 24.704C233.176 24.08 232.924 23.372 232.564 22.58C232.204 21.788 231.7 20.804 231.052 19.628L233.68 18.296C234.592 19.856 235.24 21.332 235.624 22.724C236.032 24.116 236.236 25.34 236.236 26.396C236.236 27.908 235.984 29.276 235.48 30.5C235 31.724 234.352 32.804 233.536 33.74C232.744 34.7 231.868 35.516 230.908 36.188C229.972 36.86 229.024 37.412 228.064 37.844C227.128 38.276 226.288 38.588 225.544 38.78ZM231.772 14.156C231.268 14.156 230.836 13.988 230.476 13.652C230.14 13.292 229.972 12.872 229.972 12.392C229.972 11.912 230.14 11.492 230.476 11.132C230.836 10.772 231.268 10.592 231.772 10.592C232.252 10.592 232.66 10.772 232.996 11.132C233.356 11.492 233.536 11.912 233.536 12.392C233.536 12.872 233.356 13.292 232.996 13.652C232.66 13.988 232.252 14.156 231.772 14.156Z" fill="#1A1A1A"/>
</svg>
