<svg width="98" height="40" viewBox="0 0 98 40" fill="none" xmlns="http://www.w3.org/2000/svg">
<g clip-path="url(#clip0_166_3615)">
<path d="M87.467 39.3923C87.276 38.6972 87.0721 38.0048 86.8967 37.306C86.6616 36.3667 86.4733 35.4145 86.217 34.4816C86.0361 33.8213 85.7863 33.1786 85.5401 32.5386C85.4777 32.3751 85.338 32.2043 85.1874 32.118C84.4481 31.6919 83.874 31.0877 83.3551 30.4321C82.8453 29.7866 82.3677 29.1154 81.8911 28.4441C81.5255 27.929 81.2913 27.3468 81.0993 26.7481C80.8697 26.0319 80.6429 25.3148 80.4261 24.594C80.3076 24.201 80.2286 23.8006 80.371 23.3911C80.3866 23.347 80.3627 23.2809 80.3407 23.2331C80.1028 22.7263 79.8723 22.2157 79.616 21.718C79.5141 21.5197 79.3873 21.3443 79.4636 21.1056C79.4709 21.0826 79.4121 21.0239 79.3717 21.0027C78.9593 20.7778 78.7637 20.3664 78.535 19.9954C78.332 19.6667 78.1896 19.3012 78.0308 18.9468C77.9995 18.8779 78.005 18.7852 78.0142 18.7062C78.0583 18.3187 78.1263 17.9331 78.1529 17.5446C78.1878 17.0277 78.49 16.7127 78.9005 16.4648C79.0135 16.3969 79.1274 16.3307 79.2698 16.2472C78.5359 15.6375 78.3568 14.8643 78.4578 14.0269C78.5543 13.2243 79.6427 12.2078 80.754 12.9066C81.4713 13.3575 82.1703 13.8258 82.6763 14.5255C82.77 14.655 82.8683 14.7798 82.9675 14.9102C83.1549 14.7119 83.1723 14.4364 82.9895 14.16C82.8288 13.9167 82.6405 13.689 82.4476 13.4686C81.666 12.5706 81.0305 11.5935 80.6098 10.4669C80.3701 9.8241 80.0018 9.22817 79.6913 8.61111C79.2679 7.76909 78.8546 6.92155 78.4174 6.08687C78.0556 5.39636 77.6597 4.72513 77.2905 4.03829C77.0948 3.67374 76.9892 3.28166 77.0039 2.85927C77.0223 2.33036 77.5403 1.82625 78.1492 1.76105C78.9612 1.67382 79.6133 2.04479 80.0477 2.87763C80.4537 3.65722 80.8174 4.45792 81.2307 5.23291C81.4667 5.67642 81.7469 6.09973 82.0343 6.51294C82.6359 7.377 83.1117 8.31177 83.6224 9.22817C84.3323 10.5008 85.0947 11.7441 85.8257 13.004C85.9654 13.2445 86.1334 13.3566 86.4081 13.2601C86.4154 13.2574 86.4237 13.2556 86.4319 13.2556C87.118 13.2005 87.2062 13.1298 87.2255 12.3006C87.2512 11.2116 87.2264 10.1216 87.4055 9.03901C87.4615 8.70018 87.3972 8.34023 87.3789 7.99038C87.3504 7.45321 87.3412 6.91421 87.276 6.38163C87.1933 5.70856 87.0648 5.04008 86.9527 4.37069C86.8728 3.89412 86.7415 3.42123 86.7194 2.94283C86.6974 2.46167 86.7525 1.97041 86.8269 1.49201C86.9371 0.776704 88.0448 0.470013 88.5674 0.685799C89.0753 0.895157 89.3288 1.31663 89.5602 1.76014C89.9496 2.50483 90.1085 3.3138 90.1783 4.1448C90.2316 4.7793 90.2932 5.41289 90.3492 6.04739C90.3602 6.17778 90.3483 6.31092 90.3694 6.43856C90.4989 7.19611 90.644 7.9509 90.7671 8.70936C90.9168 9.62944 91.061 10.5495 91.1877 11.4723C91.387 12.9222 91.4027 14.4006 91.8481 15.8119C91.9684 16.1921 92.1457 16.5539 92.277 16.9303C92.4782 17.507 92.6729 18.0864 92.8502 18.6713C93.0403 19.2985 93.2139 19.9302 93.381 20.5638C93.6253 21.4958 93.7181 22.4508 93.742 23.4094C93.7558 23.9696 93.9312 24.4874 94.0873 25.0053C94.2756 25.627 94.3436 26.2551 94.3592 26.8941C94.3766 27.5929 94.3518 28.2945 94.3959 28.9914C94.4198 29.3633 94.5208 29.7379 94.6384 30.0942C94.8735 30.8077 95.1325 31.5138 95.4044 32.2144C95.6432 32.8306 95.9197 33.4311 96.1676 34.0435C96.3063 34.3842 96.4221 34.7341 96.547 35.0812C96.7573 35.6652 96.9722 36.2482 97.1752 36.835C97.3304 37.284 97.4746 37.7367 97.6151 38.1903C97.7382 38.5897 97.8493 38.9929 97.9651 39.3941H87.467V39.3923Z" fill="white"/>
<path d="M15.5312 19.6363H10.6872L10.014 21.9144H5.65771L10.847 8.11145H15.5009L20.6893 21.9144H16.2219L15.5312 19.6363ZM14.6458 16.652L13.1221 11.6898L11.6139 16.652H14.6458Z" fill="white"/>
<path d="M21.6968 8.11243H33.7709V10.8708L26.021 18.9495H34.0538V21.9154H20.9538V19.0532L28.623 11.0591H21.6977V8.11243H21.6968Z" fill="white"/>
<path d="M44.4628 19.6363H39.6188L38.9456 21.9144H34.5893L39.7786 8.11145H44.4325L49.6209 21.9144H45.1535L44.4628 19.6363ZM43.5774 16.652L42.0536 11.6898L40.5455 16.652H43.5774Z" fill="white"/>
<path d="M51.0335 8.11243H57.3718C58.6209 8.11243 59.6303 8.2823 60.4 8.62113C61.1687 8.95996 61.8043 9.44663 62.3067 10.0802C62.8091 10.7147 63.1728 11.4521 63.3988 12.2932C63.6247 13.1343 63.7377 14.0259 63.7377 14.9671C63.7377 16.4418 63.5696 17.5859 63.2334 18.3994C62.8973 19.2121 62.4316 19.8934 61.8346 20.4425C61.2376 20.9916 60.5974 21.3571 59.9132 21.5398C58.9773 21.7905 58.1295 21.9163 57.37 21.9163H51.0316V8.11335L51.0335 8.11243ZM55.2997 11.2381V18.7796H56.345C57.2368 18.7796 57.8705 18.6804 58.2471 18.483C58.6237 18.2856 58.9185 17.9403 59.1325 17.4472C59.3456 16.9541 59.453 16.1562 59.453 15.0506C59.453 13.5879 59.2142 12.587 58.7376 12.0471C58.26 11.5072 57.4692 11.2372 56.3642 11.2372H55.2997V11.2381Z" fill="white"/>
<path d="M66.1495 8.11243H70.425V21.9154H66.1495V8.11243Z" fill="white"/>
<path d="M0.0881691 25.5588H8.0742C9.40506 25.5588 10.4273 25.8885 11.14 26.5478C11.8528 27.2071 12.2091 28.0234 12.2091 28.9958C12.2091 29.8121 11.9547 30.5118 11.4459 31.0958C11.107 31.4851 10.611 31.7928 9.95797 32.0186C10.9499 32.2574 11.6801 32.6669 12.1476 33.2472C12.6151 33.8276 12.8493 34.5576 12.8493 35.4363C12.8493 36.1516 12.6831 36.7953 12.3506 37.3665C12.0181 37.9376 11.5625 38.3894 10.9848 38.7227C10.6266 38.9302 10.0866 39.0808 9.36464 39.1745C8.40393 39.3003 7.76652 39.3627 7.45241 39.3627H0.0872498V25.5598L0.0881691 25.5588ZM4.39209 30.9728H6.24738C6.91327 30.9728 7.37617 30.858 7.6361 30.6293C7.89694 30.4007 8.02736 30.0692 8.02736 29.6358C8.02736 29.2345 7.89694 28.9205 7.6361 28.6946C7.37526 28.4687 6.92153 28.3558 6.27494 28.3558H4.39117V30.9737L4.39209 30.9728ZM4.39209 36.3959H6.56793C7.3027 36.3959 7.82071 36.2655 8.12196 36.0056C8.42322 35.7449 8.57385 35.395 8.57385 34.9561C8.57385 34.5484 8.42506 34.2206 8.12656 33.9727C7.82806 33.7247 7.30545 33.6008 6.55874 33.6008H4.393V36.3968L4.39209 36.3959Z" fill="white"/>
<path d="M15.072 25.5589H26.505V28.5055H19.3474V30.6992H25.987V33.5145H19.3474V36.2353H26.7126V39.3609H15.072V25.558V25.5589Z" fill="white"/>
<path d="M29.0666 39.3618V25.5588H36.1773C37.4962 25.5588 38.5038 25.6718 39.2009 25.8977C39.898 26.1236 40.4601 26.5423 40.8863 27.1547C41.3134 27.7663 41.5265 28.5119 41.5265 29.3906C41.5265 30.1565 41.363 30.8167 41.036 31.3722C40.709 31.9277 40.2599 32.3786 39.6886 32.7229C39.324 32.9424 38.8253 33.1251 38.1906 33.2693C38.6985 33.4392 39.0687 33.609 39.301 33.778C39.4581 33.8909 39.6849 34.1333 39.9834 34.5034C40.281 34.8744 40.4803 35.1599 40.5814 35.361L42.647 39.3609H37.826L35.5454 35.1425C35.2561 34.5961 34.9989 34.2417 34.773 34.0782C34.4653 33.8652 34.1172 33.7578 33.7278 33.7578H33.3512V39.36H29.0657L29.0666 39.3618ZM33.3521 31.1518H35.1505C35.3452 31.1518 35.7218 31.0894 36.2802 30.9636C36.5631 30.9067 36.7936 30.7625 36.9727 30.5302C37.1518 30.2979 37.2409 30.0316 37.2409 29.7295C37.2409 29.2841 37.0995 28.9416 36.8175 28.7029C36.5346 28.4641 36.0047 28.3448 35.2258 28.3448H33.3512V31.1509L33.3521 31.1518Z" fill="white"/>
<path d="M44.0128 25.5588H48.279V35.9634H54.9379V39.3627H44.0128V25.5598V25.5588Z" fill="white"/>
<path d="M57.0466 25.5588H61.3221V39.3618H57.0466V25.5588Z" fill="white"/>
<path d="M64.4118 25.5588H68.3952L73.5937 33.1958V25.5588H77.6147V39.3618H73.5937L68.4236 31.7827V39.3618H64.4118V25.5588Z" fill="white"/>
</g>
<defs>
<clipPath id="clip0_166_3615">
<rect width="98" height="38.8415" fill="white" transform="translate(0 0.579224)"/>
</clipPath>
</defs>
</svg>
