<svg width="21" height="39" viewBox="0 0 21 39" fill="none" xmlns="http://www.w3.org/2000/svg">
<path d="M10.467 38.8129C10.276 38.1178 10.0721 37.4255 9.89668 36.7267C9.66155 35.7873 9.47326 34.8351 9.21701 33.9022C9.03608 33.242 8.78625 32.5992 8.54011 31.9592C8.47765 31.7958 8.33805 31.625 8.18742 31.5387C7.44806 31.1126 6.87402 30.5084 6.35509 29.8528C5.84534 29.2073 5.36774 28.536 4.89105 27.8648C4.52551 27.3497 4.2913 26.7675 4.09934 26.1688C3.86972 25.4526 3.64287 24.7354 3.42611 24.0146C3.30763 23.6216 3.22864 23.2213 3.371 22.8117C3.38662 22.7676 3.36273 22.7015 3.34069 22.6538C3.10281 22.1469 2.87227 21.6364 2.61602 21.1387C2.51407 20.9404 2.38733 20.765 2.46356 20.5262C2.47091 20.5033 2.41213 20.4445 2.37172 20.4234C1.95933 20.1984 1.76368 19.787 1.53499 19.4161C1.33201 19.0874 1.18965 18.7219 1.03075 18.3675C0.999524 18.2986 1.00504 18.2058 1.01423 18.1269C1.05831 17.7394 1.12628 17.3537 1.15291 16.9653C1.18782 16.4483 1.48999 16.1334 1.90054 15.8855C2.01352 15.8175 2.1274 15.7514 2.26976 15.6678C1.53591 15.0581 1.35681 14.285 1.45784 13.4475C1.55428 12.645 2.64266 11.6285 3.754 12.3273C4.47132 12.7781 5.17027 13.2464 5.67634 13.9461C5.77003 14.0756 5.8683 14.2005 5.96749 14.3309C6.15486 14.1325 6.17231 13.8571 5.98953 13.5807C5.8288 13.3373 5.64053 13.1096 5.44765 12.8892C4.66604 11.9912 4.03046 11.0142 3.6098 9.88752C3.37008 9.24476 3.00178 8.64882 2.69134 8.03176C2.26793 7.18974 1.85462 6.34221 1.41743 5.50753C1.05556 4.81701 0.659699 4.14578 0.290477 3.45894C0.094844 3.0944 -0.0107788 2.70231 0.00391661 2.27992C0.0222859 1.75102 0.540296 1.2469 1.14924 1.18171C1.96116 1.09448 2.61327 1.46544 3.0477 2.29829C3.45366 3.07787 3.81738 3.87857 4.23068 4.65357C4.46673 5.09708 4.74686 5.52038 5.03434 5.93359C5.63593 6.79765 6.11169 7.73242 6.62235 8.64882C7.33233 9.9215 8.09465 11.1648 8.82575 12.4246C8.96535 12.6652 9.13344 12.7772 9.40806 12.6808C9.41541 12.6781 9.42367 12.6762 9.43194 12.6762C10.118 12.6211 10.2062 12.5504 10.2255 11.7212C10.2512 10.6322 10.2264 9.54227 10.4055 8.45966C10.4615 8.12083 10.3972 7.76089 10.3789 7.41104C10.3504 6.87387 10.3412 6.33486 10.276 5.80228C10.1933 5.12921 10.0648 4.46074 9.9527 3.79134C9.8728 3.31478 9.74146 2.84188 9.71942 2.36348C9.69738 1.88233 9.75248 1.39107 9.82687 0.912666C9.93709 0.197358 11.0448 -0.109333 11.5674 0.106453C12.0753 0.315811 12.3288 0.737282 12.5602 1.18079C12.9496 1.92548 13.1085 2.73445 13.1783 3.56546C13.2316 4.19996 13.2932 4.83354 13.3492 5.46804C13.3602 5.59843 13.3483 5.73158 13.3694 5.85921C13.4989 6.61676 13.644 7.37155 13.7671 8.13002C13.9168 9.05009 14.061 9.97017 14.1877 10.893C14.387 12.3429 14.4027 13.8213 14.8481 15.2326C14.9684 15.6127 15.1457 15.9745 15.277 16.351C15.4782 16.9277 15.6729 17.5071 15.8502 18.092C16.0403 18.7191 16.2139 19.3509 16.381 19.9845C16.6253 20.9165 16.7181 21.8714 16.742 22.8301C16.7558 23.3902 16.9312 23.9081 17.0873 24.426C17.2756 25.0476 17.3436 25.6757 17.3592 26.3148C17.3766 27.0136 17.3518 27.7151 17.3959 28.4121C17.4198 28.7839 17.5208 29.1586 17.6384 29.5149C17.8735 30.2283 18.1325 30.9345 18.4044 31.6351C18.6432 32.2512 18.9197 32.8517 19.1676 33.4642C19.3063 33.8049 19.4221 34.1547 19.547 34.5018C19.7573 35.0858 19.9722 35.6689 20.1752 36.2556C20.3304 36.7047 20.4746 37.1574 20.6151 37.611C20.7382 38.0104 20.8493 38.4135 20.9651 38.8148H10.467V38.8129Z" fill="#1A1A1A"/>
</svg>
