<svg width="24" height="25" viewBox="0 0 24 25" fill="none" xmlns="http://www.w3.org/2000/svg">
<g clip-path="url(#clip0_166_3491)">
<path d="M12 0.416748C8.7435 0.416748 8.334 0.431748 7.0545 0.488748C5.775 0.548748 4.9035 0.749748 4.14 1.04675C3.33914 1.34798 2.61374 1.82049 2.0145 2.43125C1.40411 3.03079 0.931661 3.75611 0.63 4.55675C0.333 5.31875 0.1305 6.19175 0.072 7.46675C0.015 8.74925 0 9.15725 0 12.4182C0 15.6762 0.015 16.0842 0.072 17.3637C0.132 18.6417 0.333 19.5132 0.63 20.2767C0.9375 21.0657 1.347 21.7347 2.0145 22.4022C2.6805 23.0697 3.3495 23.4807 4.1385 23.7867C4.9035 24.0837 5.7735 24.2862 7.0515 24.3447C8.3325 24.4017 8.7405 24.4167 12 24.4167C15.2595 24.4167 15.666 24.4017 16.947 24.3447C18.2235 24.2847 19.098 24.0837 19.8615 23.7867C20.6618 23.4854 21.3867 23.0129 21.9855 22.4022C22.653 21.7347 23.0625 21.0657 23.37 20.2767C23.6655 19.5132 23.868 18.6417 23.928 17.3637C23.985 16.0842 24 15.6762 24 12.4167C24 9.15725 23.985 8.74925 23.928 7.46825C23.868 6.19175 23.6655 5.31875 23.37 4.55675C23.0684 3.75609 22.5959 3.03076 21.9855 2.43125C21.3864 1.82026 20.661 1.34772 19.86 1.04675C19.095 0.749748 18.222 0.547248 16.9455 0.488748C15.6645 0.431748 15.258 0.416748 11.997 0.416748H12.0015H12ZM10.9245 2.57975H12.0015C15.2055 2.57975 15.585 2.59025 16.8495 2.64875C18.0195 2.70125 18.6555 2.89775 19.0785 3.06125C19.638 3.27875 20.0385 3.53975 20.4585 3.95975C20.8785 4.37975 21.138 4.77875 21.3555 5.33975C21.5205 5.76125 21.7155 6.39725 21.768 7.56725C21.8265 8.83175 21.8385 9.21125 21.8385 12.4137C21.8385 15.6162 21.8265 15.9972 21.768 17.2617C21.7155 18.4317 21.519 19.0662 21.3555 19.4892C21.1631 20.0103 20.856 20.4814 20.457 20.8677C20.037 21.2877 19.638 21.5472 19.077 21.7647C18.657 21.9297 18.021 22.1247 16.8495 22.1787C15.585 22.2357 15.2055 22.2492 12.0015 22.2492C8.7975 22.2492 8.4165 22.2357 7.152 22.1787C5.982 22.1247 5.3475 21.9297 4.9245 21.7647C4.40325 21.5726 3.93169 21.2661 3.5445 20.8677C3.14513 20.4808 2.83758 20.0092 2.6445 19.4877C2.481 19.0662 2.2845 18.4302 2.232 17.2602C2.175 15.9957 2.163 15.6162 2.163 12.4107C2.163 9.20675 2.175 8.82875 2.232 7.56425C2.286 6.39425 2.481 5.75825 2.646 5.33525C2.8635 4.77575 3.1245 4.37525 3.5445 3.95525C3.9645 3.53525 4.3635 3.27575 4.9245 3.05825C5.3475 2.89325 5.982 2.69825 7.152 2.64425C8.259 2.59325 8.688 2.57825 10.9245 2.57675V2.57975ZM18.4065 4.57175C18.2174 4.57175 18.0301 4.60899 17.8554 4.68136C17.6807 4.75373 17.522 4.8598 17.3883 4.99351C17.2545 5.12723 17.1485 5.28597 17.0761 5.46068C17.0037 5.63539 16.9665 5.82264 16.9665 6.01175C16.9665 6.20085 17.0037 6.3881 17.0761 6.56281C17.1485 6.73752 17.2545 6.89627 17.3883 7.02998C17.522 7.1637 17.6807 7.26977 17.8554 7.34213C18.0301 7.4145 18.2174 7.45175 18.4065 7.45175C18.7884 7.45175 19.1547 7.30003 19.4247 7.02998C19.6948 6.75993 19.8465 6.39366 19.8465 6.01175C19.8465 5.62984 19.6948 5.26357 19.4247 4.99351C19.1547 4.72346 18.7884 4.57175 18.4065 4.57175ZM12.0015 6.25475C11.1841 6.242 10.3723 6.39198 9.61347 6.69596C8.85459 6.99994 8.16377 7.45185 7.58123 8.02538C6.99868 8.59891 6.53605 9.2826 6.22026 10.0366C5.90448 10.7907 5.74185 11.6 5.74185 12.4175C5.74185 13.235 5.90448 14.0443 6.22026 14.7984C6.53605 15.5524 6.99868 16.2361 7.58123 16.8096C8.16377 17.3831 8.85459 17.8351 9.61347 18.139C10.3723 18.443 11.1841 18.593 12.0015 18.5802C13.6193 18.555 15.1623 17.8946 16.2975 16.7416C17.4326 15.5886 18.0689 14.0355 18.0689 12.4175C18.0689 10.7995 17.4326 9.24637 16.2975 8.09337C15.1623 6.94038 13.6193 6.27999 12.0015 6.25475ZM12.0015 8.41625C13.0625 8.41625 14.08 8.83773 14.8303 9.58797C15.5805 10.3382 16.002 11.3557 16.002 12.4167C16.002 13.4777 15.5805 14.4953 14.8303 15.2455C14.08 15.9958 13.0625 16.4172 12.0015 16.4172C10.9405 16.4172 9.92296 15.9958 9.17272 15.2455C8.42248 14.4953 8.001 13.4777 8.001 12.4167C8.001 11.3557 8.42248 10.3382 9.17272 9.58797C9.92296 8.83773 10.9405 8.41625 12.0015 8.41625Z" fill="white"/>
</g>
<defs>
<clipPath id="clip0_166_3491">
<rect width="24" height="24" fill="white" transform="translate(0 0.416748)"/>
</clipPath>
</defs>
</svg>
