<svg width="24" height="24" viewBox="0 0 24 24" fill="none" xmlns="http://www.w3.org/2000/svg">
<path d="M19 8.4H16.6C15.88 8.4 15.4 8.88 15.4 9.6C15.4 10.32 15.88 10.8 16.6 10.8H19C19.72 10.8 20.2 11.28 20.2 12V20.4C20.2 21.12 19.72 21.6 19 21.6H4.6C3.88 21.6 3.4 21.12 3.4 20.4V12C3.4 11.28 3.88 10.8 4.6 10.8H7C7.72 10.8 8.2 10.32 8.2 9.6C8.2 8.88 7.72 8.4 7 8.4H4.6C2.56 8.4 1 9.96 1 12V20.4C1 22.44 2.56 24 4.6 24H19C21.04 24 22.6 22.44 22.6 20.4V12C22.6 9.96 21.04 8.4 19 8.4ZM7.36 15.24L10.96 18.84C11.2 19.08 11.44 19.2 11.8 19.2C12.16 19.2 12.4 19.08 12.64 18.84L16.24 15.24C16.72 14.76 16.72 14.04 16.24 13.56C15.76 13.08 15.04 13.08 14.56 13.56L13 15.12V1.2C13 0.48 12.52 0 11.8 0C11.08 0 10.6 0.48 10.6 1.2V15.12L9.04 13.56C8.56 13.08 7.84 13.08 7.36 13.56C6.88 14.04 6.88 14.76 7.36 15.24Z" fill="white"/>
</svg>
