<svg width="29" height="25" viewBox="0 0 29 25" fill="none" xmlns="http://www.w3.org/2000/svg">
<g clip-path="url(#clip0_166_3493)">
<path d="M9.10962 24.4167C20.0535 24.4167 26.0402 15.1809 26.0402 7.18567C26.0402 6.92722 26.0402 6.66508 26.0293 6.40663C27.1949 5.54727 28.2008 4.48332 29 3.26465C27.9113 3.75357 26.7575 4.07581 25.5762 4.2209C26.8205 3.46335 27.7525 2.27141 28.1989 0.866619C27.0298 1.57204 25.7502 2.06724 24.4162 2.33054C23.5193 1.35771 22.3325 0.713245 21.0397 0.49696C19.7468 0.280676 18.4199 0.504647 17.2647 1.13418C16.1094 1.76372 15.1902 2.76368 14.6494 3.97918C14.1087 5.19468 13.9765 6.55788 14.2734 7.85763C11.9077 7.73681 9.59323 7.11084 7.48027 6.02033C5.3673 4.92982 3.50299 3.39912 2.00825 1.52751C1.24943 2.86236 1.01785 4.44132 1.36055 5.94376C1.70324 7.4462 2.59451 8.75948 3.85337 9.61692C2.91004 9.58428 1.98744 9.32628 1.16 8.86373V8.9468C1.16163 10.3452 1.63724 11.7 2.50646 12.7825C3.37567 13.8649 4.58517 14.6084 5.9305 14.8874C5.41985 15.0307 4.89235 15.1021 4.36269 15.0997C3.98928 15.1009 3.61663 15.0656 3.24981 14.9945C3.63005 16.1982 4.37043 17.2507 5.36726 18.0044C6.36409 18.7582 7.56743 19.1755 8.80875 19.198C6.70001 20.8849 4.09516 21.7998 1.41375 21.7953C0.941269 21.7974 0.469117 21.7696 0 21.7123C2.7215 23.4794 5.8821 24.4178 9.10962 24.4167Z" fill="white"/>
</g>
<defs>
<clipPath id="clip0_166_3493">
<rect width="29" height="24" fill="white" transform="translate(0 0.416748)"/>
</clipPath>
</defs>
</svg>
