<svg width="96" height="96" viewBox="0 0 96 96" fill="none" xmlns="http://www.w3.org/2000/svg">
<path d="M79.9648 8.00781C79.4395 8.00751 78.9192 8.11077 78.4338 8.31168C77.9483 8.5126 77.5072 8.80722 77.1357 9.17872C76.7643 9.55021 76.4696 9.99129 76.2687 10.4767C76.0678 10.9622 75.9645 11.4824 75.9648 12.0078V14.5547C72.5913 18.7375 68.3275 22.1155 63.4838 24.4427C58.6402 26.7699 53.3385 27.9878 47.9648 28.0078H23.9648C20.7833 28.0113 17.7331 29.2767 15.4834 31.5264C13.2337 33.7761 11.9683 36.8263 11.9648 40.0078V48.0078C11.9683 51.1893 13.2337 54.2396 15.4834 56.4893C17.7331 58.7389 20.7833 60.0043 23.9648 60.0078H25.9L16.2891 82.4334C16.0279 83.0417 15.9219 83.7052 15.9805 84.3646C16.0391 85.0239 16.2606 85.6584 16.625 86.211C16.9894 86.7636 17.4853 87.2171 18.0682 87.5307C18.6512 87.8443 19.3029 88.0083 19.9648 88.0078H35.9648C36.7479 88.0083 37.5137 87.7786 38.1673 87.3473C38.8208 86.916 39.3332 86.3022 39.6406 85.582L50.5356 60.1598C55.4582 60.5212 60.2544 61.8879 64.6281 64.1755C69.0018 66.4631 72.8602 69.623 75.9648 73.4601V76.0078C75.9648 77.0687 76.3863 78.0861 77.1364 78.8362C77.8866 79.5864 78.904 80.0078 79.9648 80.0078C81.0257 80.0078 82.0431 79.5864 82.7933 78.8362C83.5434 78.0861 83.9648 77.0687 83.9648 76.0078V12.0078C83.9651 11.4824 83.8619 10.9622 83.661 10.4767C83.4601 9.99128 83.1654 9.5502 82.7939 9.17871C82.4224 8.80721 81.9814 8.51258 81.4959 8.31167C81.0105 8.11076 80.4902 8.00751 79.9648 8.00781ZM23.9648 52.0078C22.9042 52.0071 21.8872 51.5854 21.1372 50.8355C20.3872 50.0855 19.9656 49.0685 19.9648 48.0078V40.0078C19.9656 38.9472 20.3872 37.9302 21.1372 37.1802C21.8872 36.4302 22.9042 36.0085 23.9648 36.0078H27.9648V52.0078H23.9648ZM33.3281 80.0078H26.0312L34.6016 60.0078H41.8984L33.3281 80.0078ZM75.9648 62.095C68.0779 55.5975 58.1835 52.0329 47.9648 52.0076H35.9648V36.0076H47.9648C58.1837 35.9815 68.078 32.4162 75.9648 25.9183V62.095Z" fill="#1A1A1A" fill-opacity="0.5"/>
</svg>
