<svg width="24" height="24" viewBox="0 0 19 22" fill="none" xmlns="http://www.w3.org/2000/svg">
<path d="M15.8333 7.85H13.7222C13.0889 7.85 12.6667 8.27 12.6667 8.9C12.6667 9.53 13.0889 9.95 13.7222 9.95H15.8333C16.4667 9.95 16.8889 10.37 16.8889 11V18.35C16.8889 18.98 16.4667 19.4 15.8333 19.4H3.16667C2.53333 19.4 2.11111 18.98 2.11111 18.35V11C2.11111 10.37 2.53333 9.95 3.16667 9.95H5.27778C5.91111 9.95 6.33333 9.53 6.33333 8.9C6.33333 8.27 5.91111 7.85 5.27778 7.85H3.16667C1.37222 7.85 0 9.215 0 11V18.35C0 20.135 1.37222 21.5 3.16667 21.5H15.8333C17.6278 21.5 19 20.135 19 18.35V11C19 9.215 17.6278 7.85 15.8333 7.85ZM5.59444 13.835L8.76111 16.985C8.97222 17.195 9.18333 17.3 9.5 17.3C9.81667 17.3 10.0278 17.195 10.2389 16.985L13.4056 13.835C13.8278 13.415 13.8278 12.785 13.4056 12.365C12.9833 11.945 12.35 11.945 11.9278 12.365L10.5556 13.73V1.55C10.5556 0.92 10.1333 0.5 9.5 0.5C8.86667 0.5 8.44444 0.92 8.44444 1.55V13.73L7.07222 12.365C6.65 11.945 6.01667 11.945 5.59444 12.365C5.17222 12.785 5.17222 13.415 5.59444 13.835Z" fill="white"/>
</svg>
