<svg width="96" height="96" viewBox="0 0 96 96" fill="none" xmlns="http://www.w3.org/2000/svg">
<path d="M88.0001 28.9601C88.0031 28.4336 87.9022 27.9118 87.7032 27.4244C87.5041 26.9371 87.2108 26.4938 86.8401 26.1201L69.8801 9.16007C69.5063 8.78934 69.063 8.49604 68.5757 8.29698C68.0883 8.09792 67.5665 7.99702 67.0401 8.00007C66.5136 7.99702 65.9918 8.09792 65.5044 8.29698C65.0171 8.49604 64.5738 8.78934 64.2001 9.16007L52.8801 20.4801L9.16007 64.2001C8.78934 64.5738 8.49604 65.0171 8.29698 65.5044C8.09792 65.9918 7.99702 66.5136 8.00007 67.0401V84.0001C8.00007 85.0609 8.42149 86.0784 9.17164 86.8285C9.92179 87.5786 10.9392 88.0001 12.0001 88.0001H28.9601C29.5198 88.0305 30.0796 87.943 30.6033 87.7431C31.1271 87.5433 31.6029 87.2356 32.0001 86.8401L75.4801 43.1201L86.8401 32.0001C87.2052 31.6124 87.5026 31.1662 87.7201 30.6801C87.7586 30.3612 87.7586 30.0389 87.7201 29.7201C87.7388 29.5339 87.7388 29.3463 87.7201 29.1601L88.0001 28.9601ZM27.3201 80.0001H16.0001V68.6801L55.7201 28.9601L67.0401 40.2801L27.3201 80.0001ZM72.6801 34.6401L61.3601 23.3201L67.0401 17.6801L78.3201 28.9601L72.6801 34.6401Z" fill="#1A1A1A" fill-opacity="0.5"/>
</svg>
