<svg width="96" height="96" viewBox="0 0 96 96" fill="none" xmlns="http://www.w3.org/2000/svg">
<path d="M31.9995 44C31.2083 44 30.435 44.2346 29.7772 44.6741C29.1194 45.1136 28.6067 45.7384 28.3039 46.4693C28.0012 47.2002 27.922 48.0044 28.0763 48.7804C28.2307 49.5563 28.6116 50.269 29.171 50.8284C29.7304 51.3878 30.4432 51.7688 31.2191 51.9231C31.995 52.0775 32.7993 51.9983 33.5302 51.6955C34.2611 51.3928 34.8858 50.8801 35.3253 50.2223C35.7649 49.5645 35.9995 48.7911 35.9995 48C35.9995 46.9391 35.578 45.9217 34.8279 45.1716C34.0777 44.4214 33.0603 44 31.9995 44ZM47.9995 44C47.2083 44 46.435 44.2346 45.7772 44.6741C45.1194 45.1136 44.6067 45.7384 44.3039 46.4693C44.0012 47.2002 43.922 48.0044 44.0763 48.7804C44.2307 49.5563 44.6116 50.269 45.171 50.8284C45.7304 51.3878 46.4432 51.7688 47.2191 51.9231C47.995 52.0775 48.7993 51.9983 49.5302 51.6955C50.2611 51.3928 50.8858 50.8801 51.3253 50.2223C51.7649 49.5645 51.9995 48.7911 51.9995 48C51.9995 46.9391 51.578 45.9217 50.8279 45.1716C50.0777 44.4214 49.0603 44 47.9995 44ZM63.9995 44C63.2083 44 62.435 44.2346 61.7772 44.6741C61.1194 45.1136 60.6067 45.7384 60.3039 46.4693C60.0012 47.2002 59.922 48.0044 60.0763 48.7804C60.2307 49.5563 60.6116 50.269 61.171 50.8284C61.7304 51.3878 62.4432 51.7688 63.2191 51.9231C63.995 52.0775 64.7993 51.9983 65.5302 51.6955C66.2611 51.3928 66.8858 50.8801 67.3253 50.2223C67.7649 49.5645 67.9995 48.7911 67.9995 48C67.9995 46.9391 67.578 45.9217 66.8279 45.1716C66.0778 44.4214 65.0603 44 63.9995 44ZM47.9995 8C42.7466 8 37.5451 9.03463 32.6921 11.0448C27.8391 13.055 23.4295 16.0014 19.7152 19.7157C12.2137 27.2172 7.99946 37.3913 7.99946 48C7.9645 57.2365 11.1626 66.1942 17.0395 73.32L9.03946 81.32C8.48443 81.8825 8.10845 82.5968 7.95895 83.3727C7.80946 84.1487 7.89315 84.9516 8.19946 85.68C8.5317 86.3997 9.07028 87.0045 9.74685 87.4176C10.4234 87.8306 11.2075 88.0333 11.9995 88H47.9995C58.6081 88 68.7823 83.7857 76.2837 76.2843C83.7852 68.7828 87.9995 58.6087 87.9995 48C87.9995 37.3913 83.7852 27.2172 76.2837 19.7157C68.7823 12.2143 58.6081 8 47.9995 8ZM47.9995 80H21.6395L25.3595 76.28C26.1045 75.5305 26.5226 74.5167 26.5226 73.46C26.5226 72.4033 26.1045 71.3895 25.3595 70.64C20.1218 65.4082 16.8602 58.5222 16.1302 51.1552C15.4003 43.7882 17.2472 36.396 21.3564 30.2381C25.4655 24.0802 31.5826 19.5374 38.6655 17.3839C45.7484 15.2303 53.3589 15.5992 60.2003 18.4277C67.0418 21.2561 72.6909 26.3691 76.1852 32.8956C79.6796 39.422 80.8029 46.9582 79.364 54.22C77.925 61.4819 74.0127 68.0202 68.2936 72.721C62.5745 77.4217 55.4025 79.9942 47.9995 80Z" fill="#1A1A1A" fill-opacity="0.5"/>
</svg>
