<svg width="29" height="25" viewBox="0 0 29 25" fill="none" xmlns="http://www.w3.org/2000/svg">
<g clip-path="url(#clip0_33_4896)">
<path d="M9.10962 24.6577C20.0535 24.6577 26.0402 15.4219 26.0402 7.42663C26.0402 7.16819 26.0402 6.90605 26.0293 6.6476C27.1949 5.78823 28.2008 4.72429 29 3.50561C27.9113 3.99454 26.7575 4.31678 25.5762 4.46187C26.8205 3.70432 27.7525 2.51238 28.1989 1.10759C27.0298 1.81301 25.7502 2.30821 24.4162 2.57151C23.5193 1.59868 22.3325 0.954211 21.0397 0.737927C19.7468 0.521643 18.4199 0.745614 17.2647 1.37515C16.1094 2.00468 15.1902 3.00465 14.6494 4.22015C14.1087 5.43565 13.9765 6.79885 14.2734 8.0986C11.9077 7.97778 9.59323 7.35181 7.48027 6.2613C5.3673 5.17079 3.50299 3.64009 2.00825 1.76847C1.24943 3.10333 1.01785 4.68229 1.36055 6.18473C1.70324 7.68717 2.59451 9.00045 3.85337 9.85789C2.91004 9.82524 1.98744 9.56724 1.16 9.1047V9.18777C1.16163 10.5861 1.63724 11.941 2.50646 13.0234C3.37567 14.1058 4.58517 14.8494 5.9305 15.1284C5.41985 15.2717 4.89235 15.3431 4.36269 15.3407C3.98928 15.3418 3.61663 15.3066 3.24981 15.2354C3.63005 16.4392 4.37043 17.4916 5.36726 18.2454C6.36409 18.9992 7.56743 19.4165 8.80875 19.4389C6.70001 21.1258 4.09516 22.0408 1.41375 22.0363C0.941269 22.0383 0.469117 22.0106 0 21.9532C2.7215 23.7204 5.8821 24.6587 9.10962 24.6577Z" fill="white"/>
</g>
<defs>
<clipPath id="clip0_33_4896">
<rect width="29" height="24" fill="white" transform="translate(0 0.657715)"/>
</clipPath>
</defs>
</svg>
