<svg width="24" height="25" viewBox="0 0 24 25" fill="none" xmlns="http://www.w3.org/2000/svg">
<g clip-path="url(#clip0_33_4718)">
<path d="M12 0.657715C8.7435 0.657715 8.334 0.672715 7.0545 0.729715C5.775 0.789715 4.9035 0.990715 4.14 1.28771C3.33914 1.58894 2.61374 2.06145 2.0145 2.67221C1.40411 3.27176 0.931661 3.99707 0.63 4.79771C0.333 5.55971 0.1305 6.43271 0.072 7.70771C0.015 8.99021 0 9.39822 0 12.6592C0 15.9172 0.015 16.3252 0.072 17.6047C0.132 18.8827 0.333 19.7542 0.63 20.5177C0.9375 21.3067 1.347 21.9757 2.0145 22.6432C2.6805 23.3107 3.3495 23.7217 4.1385 24.0277C4.9035 24.3247 5.7735 24.5272 7.0515 24.5857C8.3325 24.6427 8.7405 24.6577 12 24.6577C15.2595 24.6577 15.666 24.6427 16.947 24.5857C18.2235 24.5257 19.098 24.3247 19.8615 24.0277C20.6618 23.7263 21.3867 23.2538 21.9855 22.6432C22.653 21.9757 23.0625 21.3067 23.37 20.5177C23.6655 19.7542 23.868 18.8827 23.928 17.6047C23.985 16.3252 24 15.9172 24 12.6577C24 9.39821 23.985 8.99022 23.928 7.70922C23.868 6.43271 23.6655 5.55971 23.37 4.79771C23.0684 3.99705 22.5959 3.27173 21.9855 2.67221C21.3864 2.06123 20.661 1.58868 19.86 1.28771C19.095 0.990715 18.222 0.788215 16.9455 0.729715C15.6645 0.672715 15.258 0.657715 11.997 0.657715H12.0015H12ZM10.9245 2.82071H12.0015C15.2055 2.82071 15.585 2.83121 16.8495 2.88971C18.0195 2.94221 18.6555 3.13871 19.0785 3.30221C19.638 3.51971 20.0385 3.78071 20.4585 4.20071C20.8785 4.62071 21.138 5.01971 21.3555 5.58072C21.5205 6.00221 21.7155 6.63822 21.768 7.80822C21.8265 9.07271 21.8385 9.45222 21.8385 12.6547C21.8385 15.8572 21.8265 16.2382 21.768 17.5027C21.7155 18.6727 21.519 19.3072 21.3555 19.7302C21.1631 20.2513 20.856 20.7224 20.457 21.1087C20.037 21.5287 19.638 21.7882 19.077 22.0057C18.657 22.1707 18.021 22.3657 16.8495 22.4197C15.585 22.4767 15.2055 22.4902 12.0015 22.4902C8.7975 22.4902 8.4165 22.4767 7.152 22.4197C5.982 22.3657 5.3475 22.1707 4.9245 22.0057C4.40325 21.8136 3.93169 21.5071 3.5445 21.1087C3.14513 20.7218 2.83758 20.2502 2.6445 19.7287C2.481 19.3072 2.2845 18.6712 2.232 17.5012C2.175 16.2367 2.163 15.8572 2.163 12.6517C2.163 9.44771 2.175 9.06971 2.232 7.80521C2.286 6.63521 2.481 5.99922 2.646 5.57621C2.8635 5.01672 3.1245 4.61621 3.5445 4.19621C3.9645 3.77621 4.3635 3.51671 4.9245 3.29921C5.3475 3.13421 5.982 2.93921 7.152 2.88521C8.259 2.83421 8.688 2.81921 10.9245 2.81771V2.82071ZM18.4065 4.81271C18.2174 4.81271 18.0301 4.84996 17.8554 4.92233C17.6807 4.9947 17.522 5.10076 17.3883 5.23448C17.2545 5.3682 17.1485 5.52694 17.0761 5.70165C17.0037 5.87636 16.9665 6.06361 16.9665 6.25272C16.9665 6.44182 17.0037 6.62907 17.0761 6.80378C17.1485 6.97849 17.2545 7.13723 17.3883 7.27095C17.522 7.40466 17.6807 7.51073 17.8554 7.5831C18.0301 7.65547 18.2174 7.69272 18.4065 7.69271C18.7884 7.69271 19.1547 7.541 19.4247 7.27095C19.6948 7.0009 19.8465 6.63463 19.8465 6.25272C19.8465 5.8708 19.6948 5.50453 19.4247 5.23448C19.1547 4.96443 18.7884 4.81272 18.4065 4.81271ZM12.0015 6.49571C11.1841 6.48296 10.3723 6.63294 9.61347 6.93693C8.85459 7.24091 8.16377 7.69282 7.58123 8.26635C6.99868 8.83988 6.53605 9.52357 6.22026 10.2776C5.90448 11.0316 5.74185 11.841 5.74185 12.6585C5.74185 13.476 5.90448 14.2853 6.22026 15.0393C6.53605 15.7934 6.99868 16.4771 7.58123 17.0506C8.16377 17.6241 8.85459 18.076 9.61347 18.38C10.3723 18.684 11.1841 18.834 12.0015 18.8212C13.6193 18.796 15.1623 18.1356 16.2975 16.9826C17.4326 15.8296 18.0689 14.2765 18.0689 12.6585C18.0689 11.0405 17.4326 9.48733 16.2975 8.33434C15.1623 7.18134 13.6193 6.52096 12.0015 6.49571ZM12.0015 8.65722C13.0625 8.65722 14.08 9.0787 14.8303 9.82893C15.5805 10.5792 16.002 11.5967 16.002 12.6577C16.002 13.7187 15.5805 14.7363 14.8303 15.4865C14.08 16.2367 13.0625 16.6582 12.0015 16.6582C10.9405 16.6582 9.92296 16.2367 9.17272 15.4865C8.42248 14.7363 8.001 13.7187 8.001 12.6577C8.001 11.5967 8.42248 10.5792 9.17272 9.82893C9.92296 9.0787 10.9405 8.65722 12.0015 8.65722Z" fill="white"/>
</g>
<defs>
<clipPath id="clip0_33_4718">
<rect width="24" height="24" fill="white" transform="translate(0 0.657715)"/>
</clipPath>
</defs>
</svg>
