<svg width="96" height="96" viewBox="0 0 96 96" fill="none" xmlns="http://www.w3.org/2000/svg">
<path d="M79.9648 8.008C79.4395 8.0077 78.9192 8.11095 78.4338 8.31187C77.9483 8.51278 77.5072 8.80741 77.1357 9.1789C76.7642 9.55039 76.4696 9.99147 76.2687 10.4769C76.0678 10.9623 75.9645 11.4826 75.9648 12.008V14.5549C72.5913 18.7377 68.3275 22.1156 63.4838 24.4429C58.6402 26.7701 53.3385 27.988 47.9648 28.008H23.9648C20.7833 28.0115 17.7331 29.2769 15.4834 31.5266C13.2337 33.7762 11.9683 36.8265 11.9648 40.008V48.008C11.9683 51.1895 13.2337 54.2398 15.4834 56.4894C17.7331 58.7391 20.7833 60.0045 23.9648 60.008H25.9L16.2891 82.4336C16.0279 83.0418 15.9219 83.7054 15.9805 84.3648C16.0391 85.0241 16.2606 85.6586 16.625 86.2112C16.9894 86.7638 17.4853 87.2173 18.0682 87.5309C18.6512 87.8445 19.3029 88.0085 19.9648 88.008H35.9648C36.7479 88.0085 37.5137 87.7788 38.1673 87.3475C38.8208 86.9162 39.3332 86.3024 39.6406 85.5822L50.5356 60.16C55.4582 60.5214 60.2544 61.8881 64.6281 64.1757C69.0018 66.4633 72.8602 69.6232 75.9648 73.4603V76.008C75.9648 77.0689 76.3863 78.0863 77.1364 78.8364C77.8866 79.5866 78.904 80.008 79.9648 80.008C81.0257 80.008 82.0431 79.5866 82.7933 78.8364C83.5434 78.0863 83.9648 77.0689 83.9648 76.008V12.008C83.9651 11.4826 83.8619 10.9623 83.661 10.4769C83.4601 9.99146 83.1654 9.55038 82.7939 9.17889C82.4224 8.80739 81.9814 8.51277 81.4959 8.31186C81.0105 8.11095 80.4902 8.00769 79.9648 8.008ZM23.9648 52.008C22.9042 52.0073 21.8872 51.5856 21.1372 50.8356C20.3872 50.0857 19.9656 49.0686 19.9648 48.008V40.008C19.9656 38.9474 20.3872 37.9304 21.1372 37.1804C21.8872 36.4304 22.9042 36.0087 23.9648 36.008H27.9648V52.008H23.9648ZM33.3281 80.008H26.0312L34.6016 60.008H41.8984L33.3281 80.008ZM75.9648 62.0952C68.0779 55.5977 58.1835 52.0331 47.9648 52.0078H35.9648V36.0078H47.9648C58.1837 35.9817 68.078 32.4164 75.9648 25.9184V62.0952Z" fill="#C1C7CD"/>
</svg>
