<svg width="96" height="96" viewBox="0 0 96 96" fill="none" xmlns="http://www.w3.org/2000/svg">
<path d="M88 28.96C88.0031 28.4336 87.9022 27.9117 87.7031 27.4244C87.504 26.937 87.2107 26.4938 86.84 26.12L69.88 9.16001C69.5062 8.78928 69.063 8.49598 68.5756 8.29692C68.0883 8.09786 67.5664 7.99696 67.04 8.00001C66.5136 7.99696 65.9917 8.09786 65.5044 8.29692C65.017 8.49598 64.5738 8.78928 64.2 9.16001L52.88 20.48L9.16001 64.2C8.78928 64.5738 8.49598 65.017 8.29692 65.5044C8.09786 65.9917 7.99696 66.5136 8.00001 67.04V84C8.00001 85.0609 8.42143 86.0783 9.17158 86.8284C9.92172 87.5786 10.9391 88 12 88H28.96C29.5197 88.0304 30.0796 87.9429 30.6033 87.7431C31.127 87.5432 31.6028 87.2356 32 86.84L75.48 43.12L86.84 32C87.2051 31.6123 87.5026 31.1661 87.72 30.68C87.7585 30.3612 87.7585 30.0388 87.72 29.72C87.7387 29.5338 87.7387 29.3462 87.72 29.16L88 28.96ZM27.32 80H16V68.68L55.72 28.96L67.04 40.28L27.32 80ZM72.68 34.64L61.36 23.32L67.04 17.68L78.32 28.96L72.68 34.64Z" fill="#C1C7CD"/>
</svg>
