<svg width="96" height="96" viewBox="0 0 96 96" fill="none" xmlns="http://www.w3.org/2000/svg">
<path d="M32 44C31.2089 44 30.4355 44.2346 29.7777 44.6741C29.1199 45.1136 28.6072 45.7384 28.3045 46.4693C28.0017 47.2002 27.9225 48.0044 28.0769 48.7804C28.2312 49.5563 28.6122 50.269 29.1716 50.8284C29.731 51.3878 30.4437 51.7688 31.2197 51.9231C31.9956 52.0775 32.7998 51.9983 33.5307 51.6955C34.2617 51.3928 34.8864 50.8801 35.3259 50.2223C35.7654 49.5645 36 48.7911 36 48C36 46.9391 35.5786 45.9217 34.8284 45.1716C34.0783 44.4214 33.0609 44 32 44ZM48 44C47.2089 44 46.4355 44.2346 45.7777 44.6741C45.1199 45.1136 44.6072 45.7384 44.3045 46.4693C44.0017 47.2002 43.9225 48.0044 44.0769 48.7804C44.2312 49.5563 44.6122 50.269 45.1716 50.8284C45.731 51.3878 46.4437 51.7688 47.2197 51.9231C47.9956 52.0775 48.7998 51.9983 49.5308 51.6955C50.2617 51.3928 50.8864 50.8801 51.3259 50.2223C51.7654 49.5645 52 48.7911 52 48C52 46.9391 51.5786 45.9217 50.8284 45.1716C50.0783 44.4214 49.0609 44 48 44ZM64 44C63.2089 44 62.4355 44.2346 61.7777 44.6741C61.1199 45.1136 60.6072 45.7384 60.3045 46.4693C60.0017 47.2002 59.9225 48.0044 60.0769 48.7804C60.2312 49.5563 60.6122 50.269 61.1716 50.8284C61.731 51.3878 62.4437 51.7688 63.2197 51.9231C63.9956 52.0775 64.7998 51.9983 65.5307 51.6955C66.2617 51.3928 66.8864 50.8801 67.3259 50.2223C67.7654 49.5645 68 48.7911 68 48C68 46.9391 67.5786 45.9217 66.8284 45.1716C66.0783 44.4214 65.0609 44 64 44ZM48 8C42.7471 8 37.5457 9.03463 32.6927 11.0448C27.8397 13.055 23.4301 16.0014 19.7157 19.7157C12.2143 27.2172 8.00001 37.3913 8.00001 48C7.96504 57.2365 11.1632 66.1942 17.04 73.32L9.04001 81.32C8.48498 81.8825 8.109 82.5968 7.9595 83.3727C7.81 84.1487 7.8937 84.9516 8.20001 85.68C8.53224 86.3997 9.07083 87.0045 9.7474 87.4176C10.424 87.8306 11.208 88.0333 12 88H48C58.6087 88 68.7828 83.7857 76.2843 76.2843C83.7857 68.7828 88 58.6087 88 48C88 37.3913 83.7857 27.2172 76.2843 19.7157C68.7828 12.2143 58.6087 8 48 8ZM48 80H21.64L25.36 76.28C26.105 75.5305 26.5232 74.5167 26.5232 73.46C26.5232 72.4033 26.105 71.3895 25.36 70.64C20.1224 65.4082 16.8607 58.5222 16.1308 51.1552C15.4008 43.7882 17.2478 36.396 21.3569 30.2381C25.4661 24.0802 31.5832 19.5374 38.6661 17.3839C45.749 15.2303 53.3595 15.5992 60.2009 18.4277C67.0423 21.2561 72.6914 26.3691 76.1858 32.8956C79.6801 39.422 80.8035 46.9582 79.3645 54.22C77.9256 61.4819 74.0132 68.0202 68.2942 72.721C62.5751 77.4217 55.4031 79.9942 48 80Z" fill="#C1C7CD"/>
</svg>
