<svg width="96" height="96" viewBox="0 0 96 96" fill="none" xmlns="http://www.w3.org/2000/svg">
<g clip-path="url(#clip0_658_3004)">
<path d="M76.6186 11.6227L14.8165 21.6474C12.3804 22.0471 10.1269 23.1884 8.3632 24.9157C6.59949 26.643 5.41142 28.8722 4.96097 31.2994C4.51052 33.7266 4.8196 36.2336 5.84609 38.4787C6.87257 40.7238 8.5665 42.5977 10.6969 43.8449L31.0436 55.6586C31.5239 55.9526 31.9409 56.3393 32.2702 56.7962C32.5994 57.2531 32.8343 57.771 32.9612 58.3196L37.7313 81.3587C38.1396 83.3162 39.0307 85.1406 40.3235 86.6662C41.6162 88.1918 43.2698 89.3701 45.1338 90.0941C46.9978 90.8181 49.0132 91.0648 50.9968 90.8118C52.9804 90.5587 54.8693 89.814 56.4919 88.6453C58.0004 87.5351 59.2416 86.1016 60.1245 84.4498L89.186 28.9932C90.2133 27.0212 90.6725 24.8025 90.5123 22.5847C90.3522 20.3669 89.5789 18.2373 88.2789 16.4333C86.9789 14.6294 85.2032 13.2221 83.15 12.3685C81.0968 11.515 78.8468 11.2487 76.6511 11.5993L76.6186 11.6227ZM82.0793 25.2892L53.0177 80.7457C52.6276 81.4621 52.0277 82.0421 51.2986 82.4079C50.5695 82.7737 49.746 82.9078 48.9385 82.7923C48.131 82.6768 47.3781 82.3171 46.7808 81.7616C46.1835 81.2061 45.7703 80.4812 45.5966 79.6842L40.7941 56.6685C40.7268 56.3635 40.6417 56.0626 40.5392 55.7675L62.8982 39.6545C63.7589 39.0342 64.3379 38.0975 64.5079 37.0503C64.6779 36.0032 64.425 34.9314 63.8047 34.0707C63.1845 33.21 62.2477 32.631 61.2006 32.461C60.1534 32.291 59.0816 32.544 58.221 33.1642L35.862 49.2772C35.6145 49.0867 35.356 48.9107 35.0879 48.7504L14.7737 36.9133C14.0725 36.4964 13.5156 35.8751 13.1776 35.1327C12.8395 34.3903 12.7366 33.5624 12.8824 32.7598C13.0283 31.9572 13.4161 31.2184 13.9938 30.6425C14.5715 30.0665 15.3114 29.681 16.1144 29.5375L77.9166 19.5129C78.6444 19.4021 79.3886 19.4944 80.0674 19.7795C80.7461 20.0646 81.333 20.5315 81.7634 21.1287C82.1938 21.726 82.4511 22.4304 82.5068 23.1645C82.5625 23.8986 82.4146 24.6338 82.0793 25.2892Z" fill="#C1C7CD"/>
</g>
<defs>
<clipPath id="clip0_658_3004">
<rect width="96" height="96" fill="white"/>
</clipPath>
</defs>
</svg>
