<svg width="115" height="42" viewBox="0 0 115 42" fill="none" xmlns="http://www.w3.org/2000/svg">
<g clip-path="url(#clip0_658_4127)">
<path d="M102.045 41.9689C101.822 41.2173 101.584 40.4687 101.379 39.7131C101.105 38.6973 100.885 37.6677 100.587 36.6589C100.375 35.945 100.084 35.2499 99.7968 34.5579C99.7239 34.3811 99.5611 34.1965 99.3853 34.1031C98.5227 33.6424 97.853 32.9891 97.2476 32.2802C96.6529 31.5821 96.0957 30.8563 95.5396 30.1305C95.1131 29.5735 94.8399 28.944 94.6159 28.2966C94.348 27.5221 94.0834 26.7467 93.8305 25.9672C93.6922 25.5423 93.6001 25.1094 93.7662 24.6665C93.7844 24.6189 93.7565 24.5474 93.7308 24.4958C93.4533 23.9477 93.1843 23.3956 92.8854 22.8575C92.7664 22.643 92.6186 22.4533 92.7075 22.1952C92.7161 22.1704 92.6475 22.1068 92.6003 22.084C92.1192 21.8407 91.891 21.3959 91.6242 20.9948C91.3874 20.6393 91.2213 20.2441 91.0359 19.8609C90.9995 19.7864 91.0059 19.6861 91.0166 19.6007C91.068 19.1817 91.1473 18.7647 91.1784 18.3447C91.2191 17.7857 91.5717 17.4451 92.0506 17.177C92.1824 17.1036 92.3153 17.0321 92.4814 16.9417C91.6252 16.2824 91.4163 15.4464 91.5342 14.5409C91.6467 13.6731 92.9164 12.5739 94.213 13.3295C95.0499 13.817 95.8653 14.3234 96.4557 15.08C96.565 15.22 96.6797 15.355 96.7954 15.496C97.014 15.2816 97.0344 14.9837 96.8211 14.6848C96.6336 14.4217 96.414 14.1755 96.1889 13.9372C95.2771 12.9661 94.5355 11.9097 94.0448 10.6914C93.7651 9.99632 93.3354 9.35192 92.9732 8.68469C92.4793 7.77419 91.9971 6.85774 91.487 5.95519C91.0648 5.20852 90.603 4.4827 90.1722 3.74001C89.944 3.34582 89.8208 2.92185 89.8379 2.46512C89.8593 1.8932 90.4637 1.34809 91.1741 1.2776C92.1214 1.18327 92.8822 1.58441 93.389 2.48497C93.8626 3.32795 94.2869 4.19377 94.7691 5.03178C95.0445 5.51136 95.3713 5.96909 95.7067 6.41589C96.4086 7.35022 96.9636 8.361 97.5594 9.35192C98.3877 10.7281 99.2771 12.0725 100.13 13.4348C100.293 13.6949 100.489 13.816 100.809 13.7118C100.818 13.7088 100.828 13.7068 100.837 13.7068C101.638 13.6472 101.741 13.5708 101.763 12.6742C101.793 11.4966 101.764 10.318 101.973 9.14739C102.038 8.781 101.963 8.39178 101.942 8.01348C101.909 7.43263 101.898 6.8498 101.822 6.27391C101.726 5.54611 101.576 4.82327 101.445 4.09944C101.352 3.58412 101.198 3.07278 101.173 2.55547C101.147 2.03519 101.211 1.50398 101.298 0.986675C101.427 0.2132 102.719 -0.118431 103.329 0.114902C103.921 0.341285 104.217 0.79703 104.487 1.2766C104.941 2.08185 105.127 2.9566 105.208 3.85519C105.27 4.54129 105.342 5.22639 105.407 5.91249C105.42 6.05348 105.406 6.19746 105.431 6.33547C105.582 7.15462 105.751 7.97079 105.895 8.79093C106.07 9.78582 106.238 10.7807 106.386 11.7786C106.618 13.3464 106.636 14.945 107.156 16.4711C107.297 16.8821 107.503 17.2733 107.657 17.6804C107.891 18.304 108.118 18.9305 108.325 19.563C108.547 20.2411 108.75 20.9243 108.945 21.6094C109.23 22.6172 109.338 23.6498 109.366 24.6864C109.382 25.2921 109.586 25.8521 109.769 26.4121C109.988 27.0843 110.068 27.7634 110.086 28.4545C110.106 29.2101 110.077 29.9687 110.129 30.7223C110.156 31.1244 110.274 31.5295 110.411 31.9148C110.686 32.6863 110.988 33.4498 111.305 34.2074C111.584 34.8736 111.906 35.523 112.196 36.1853C112.357 36.5536 112.492 36.9319 112.638 37.3072C112.884 37.9387 113.134 38.5692 113.371 39.2037C113.552 39.6892 113.72 40.1787 113.884 40.6692C114.028 41.1011 114.158 41.537 114.293 41.9709H102.045V41.9689Z" fill="white"/>
<path d="M18.1197 20.607H12.4684L11.683 23.0704H6.60065L12.6548 8.14502H18.0843L24.1375 23.0704H18.9255L18.1197 20.607ZM17.0867 17.3801L15.3091 12.0144L13.5496 17.3801H17.0867Z" fill="white"/>
<path d="M25.313 8.14624H39.3995V11.1289L30.3579 19.8645H39.7295V23.0716H24.4462V19.9767L33.3935 11.3325H25.3141V8.14624H25.313Z" fill="white"/>
<path d="M51.8733 20.607H46.222L45.4366 23.0704H40.3542L46.4085 8.14502H51.838L57.8911 23.0704H52.6791L51.8733 20.607ZM50.8403 17.3801L49.0627 12.0144L47.3032 17.3801H50.8403Z" fill="white"/>
<path d="M59.539 8.14624H66.9337C68.391 8.14624 69.5687 8.32993 70.4666 8.69631C71.3635 9.0627 72.105 9.58894 72.6911 10.274C73.2773 10.9601 73.7016 11.7574 73.9652 12.667C74.2288 13.5765 74.3606 14.5406 74.3606 15.5583C74.3606 17.1529 74.1645 18.3901 73.7723 19.2698C73.3801 20.1485 72.8369 20.8853 72.1404 21.479C71.4439 22.0728 70.697 22.4679 69.8987 22.6655C68.8068 22.9366 67.8178 23.0726 66.9316 23.0726H59.5369V8.14723L59.539 8.14624ZM64.5163 11.5261V19.6809H65.7358C66.7762 19.6809 67.5156 19.5736 67.9549 19.3601C68.3942 19.1467 68.7382 18.7733 68.9879 18.2401C69.2365 17.707 69.3618 16.8441 69.3618 15.6487C69.3618 14.067 69.0833 12.9847 68.5271 12.4009C67.9699 11.817 67.0473 11.5251 65.7583 11.5251H64.5163V11.5261Z" fill="white"/>
<path d="M77.1745 8.14624H82.1625V23.0716H77.1745V8.14624Z" fill="white"/>
<path d="M0.102879 27.011H9.41992C10.9726 27.011 12.1652 27.3674 12.9967 28.0803C13.8282 28.7933 14.244 29.676 14.244 30.7274C14.244 31.6101 13.9472 32.3667 13.3535 32.9982C12.9581 33.4192 12.3795 33.7518 11.6177 33.9961C12.7749 34.2543 13.6268 34.6971 14.1722 35.3246C14.7176 35.9521 14.9909 36.7415 14.9909 37.6917C14.9909 38.4652 14.7969 39.1612 14.409 39.7788C14.0211 40.3964 13.4896 40.8849 12.8156 41.2453C12.3977 41.4697 11.7677 41.6325 10.9254 41.7338C9.8046 41.8699 9.06096 41.9374 8.69449 41.9374H0.101807V27.012L0.102879 27.011ZM5.12412 32.8652H7.28863C8.06549 32.8652 8.60555 32.7411 8.9088 32.4938C9.21312 32.2466 9.36527 31.8881 9.36527 31.4195C9.36527 30.9856 9.21312 30.646 8.9088 30.4018C8.60448 30.1575 8.07514 30.0354 7.32077 30.0354H5.12304V32.8662L5.12412 32.8652ZM5.12412 38.7293H7.6626C8.51983 38.7293 9.12418 38.5883 9.47564 38.3073C9.82711 38.0253 10.0028 37.647 10.0028 37.1724C10.0028 36.7316 9.82925 36.3771 9.481 36.109C9.13275 35.8409 8.52304 35.7069 7.65188 35.7069H5.12519V38.7303L5.12412 38.7293Z" fill="white"/>
<path d="M17.584 27.0115H30.9226V30.1977H22.5721V32.5698H30.3182V35.614H22.5721V38.556H31.1647V41.9359H17.584V27.0105V27.0115Z" fill="white"/>
<path d="M33.911 41.9364V27.011H42.2069C43.7456 27.011 44.9211 27.1331 45.7344 27.3774C46.5477 27.6216 47.2035 28.0744 47.7007 28.7367C48.199 29.3979 48.4476 30.2042 48.4476 31.1544C48.4476 31.9825 48.2568 32.6964 47.8754 33.2971C47.4939 33.8978 46.9699 34.3853 46.3034 34.7577C45.878 34.995 45.2962 35.1925 44.5557 35.3484C45.1483 35.5321 45.5801 35.7158 45.8512 35.8985C46.0345 36.0206 46.2991 36.2828 46.6474 36.6829C46.9946 37.084 47.2271 37.3928 47.3449 37.6103L49.7548 41.9354H44.1303L41.4697 37.374C41.1322 36.7832 40.8321 36.3999 40.5685 36.2232C40.2096 35.9928 39.8034 35.8767 39.3491 35.8767H38.9098V41.9344H33.91L33.911 41.9364ZM38.9108 33.0588H41.0089C41.2361 33.0588 41.6754 32.9913 42.3269 32.8552C42.657 32.7937 42.9259 32.6378 43.1349 32.3866C43.3438 32.1354 43.4477 31.8474 43.4477 31.5208C43.4477 31.0392 43.2827 30.6689 42.9538 30.4107C42.6237 30.1525 42.0055 30.0235 41.0968 30.0235H38.9098V33.0578L38.9108 33.0588Z" fill="white"/>
<path d="M51.3483 27.011H56.3256V38.2616H64.0942V41.9374H51.3483V27.012V27.011Z" fill="white"/>
<path d="M66.5544 27.011H71.5424V41.9364H66.5544V27.011Z" fill="white"/>
<path d="M75.1472 27.011H79.7945L85.8594 35.269V27.011H90.5506V41.9364H85.8594L79.8277 33.7409V41.9364H75.1472V27.011Z" fill="white"/>
</g>
<defs>
<clipPath id="clip0_658_4127">
<rect width="114.333" height="42" fill="white"/>
</clipPath>
</defs>
</svg>
