<svg width="115" height="46" viewBox="0 0 115 46" fill="none" xmlns="http://www.w3.org/2000/svg">
<g clip-path="url(#clip0_658_1815)">
<path d="M102.045 45.2818C101.822 44.4708 101.584 43.6631 101.379 42.8479C101.105 41.7519 100.885 40.641 100.587 39.5526C100.375 38.7824 100.084 38.0325 99.7968 37.2858C99.7239 37.0951 99.5611 36.8958 99.3853 36.7951C98.5227 36.2981 97.853 35.5932 97.2476 34.8283C96.6529 34.0752 96.0957 33.2921 95.5396 32.509C95.1131 31.908 94.8399 31.2288 94.6159 30.5303C94.348 29.6947 94.0834 28.858 93.8305 28.0171C93.6922 27.5586 93.6001 27.0915 93.7662 26.6137C93.7844 26.5623 93.7565 26.4852 93.7308 26.4295C93.4533 25.8381 93.1843 25.2425 92.8854 24.6618C92.7664 24.4305 92.6186 24.2258 92.7075 23.9473C92.7161 23.9205 92.6475 23.852 92.6003 23.8273C92.1192 23.5649 91.891 23.0849 91.6242 22.6521C91.3874 22.2686 91.2213 21.8422 91.0359 21.4287C90.9995 21.3484 91.0059 21.2402 91.0166 21.1481C91.068 20.696 91.1473 20.246 91.1784 19.7929C91.2191 19.1898 91.5717 18.8223 92.0506 18.5331C92.1824 18.4538 92.3153 18.3767 92.4814 18.2792C91.6252 17.5679 91.4163 16.6658 91.5342 15.6888C91.6467 14.7525 92.9164 13.5666 94.213 14.3819C95.0499 14.9079 95.8653 15.4542 96.4557 16.2705C96.565 16.4216 96.6797 16.5673 96.7954 16.7194C97.014 16.488 97.0344 16.1666 96.8211 15.8442C96.6336 15.5603 96.414 15.2946 96.1889 15.0375C95.2771 13.9898 94.5355 12.8499 94.0448 11.5355C93.7651 10.7856 93.3354 10.0903 92.9732 9.37043C92.4793 8.38807 91.9971 7.39928 91.487 6.42549C91.0648 5.61989 90.603 4.83679 90.1722 4.03547C89.944 3.61017 89.8208 3.15274 89.8379 2.65995C89.8593 2.04289 90.4637 1.45476 91.1741 1.3787C92.1214 1.27693 92.8822 1.70973 93.389 2.68138C93.8626 3.59089 94.2869 4.52504 94.7691 5.4292C95.0445 5.94663 95.3713 6.44049 95.7067 6.92256C96.4086 7.93064 96.9636 9.0212 97.5594 10.0903C98.3877 11.5751 99.2771 13.0256 100.13 14.4954C100.293 14.7761 100.489 14.9068 100.809 14.7943C100.818 14.7911 100.828 14.789 100.837 14.789C101.638 14.7247 101.741 14.6422 101.763 13.6748C101.793 12.4043 101.764 11.1327 101.973 9.86965C102.038 9.47435 101.963 9.05441 101.942 8.64625C101.909 8.01955 101.898 7.39071 101.822 6.76937C101.726 5.98412 101.576 5.20423 101.445 4.42327C101.352 3.86728 101.198 3.31557 101.173 2.75744C101.147 2.19609 101.211 1.62295 101.298 1.06482C101.427 0.230292 102.719 -0.127515 103.329 0.124236C103.921 0.368487 104.217 0.860203 104.487 1.37763C104.941 2.24644 105.127 3.19023 105.208 4.15974C105.27 4.89999 105.342 5.63917 105.407 6.37943C105.42 6.53155 105.406 6.68688 105.431 6.83579C105.582 7.71959 105.751 8.60018 105.895 9.48506C106.07 10.5585 106.238 11.6319 106.386 12.7085C106.618 14.4001 106.636 16.1248 107.156 17.7714C107.297 18.2149 107.503 18.637 107.657 19.0762C107.891 19.749 108.118 20.4249 108.325 21.1074C108.547 21.839 108.75 22.5761 108.945 23.3153C109.23 24.4026 109.338 25.5167 109.366 26.6351C109.382 27.2886 109.586 27.8928 109.769 28.497C109.988 29.2223 110.068 29.955 110.086 30.7006C110.106 31.5159 110.077 32.3343 110.129 33.1474C110.156 33.5813 110.274 34.0184 110.411 34.434C110.686 35.2664 110.988 36.0902 111.305 36.9076C111.584 37.6265 111.906 38.3271 112.196 39.0416C112.357 39.4391 112.492 39.8472 112.638 40.2522C112.884 40.9335 113.134 41.6138 113.371 42.2983C113.552 42.8222 113.72 43.3503 113.884 43.8795C114.028 44.3455 114.158 44.8158 114.293 45.284H102.045V45.2818Z" fill="white"/>
<path d="M18.1197 22.2332H12.4684L11.683 24.891H6.60065L12.6548 8.7876H18.0843L24.1375 24.891H18.9255L18.1197 22.2332ZM17.0867 18.7516L15.3091 12.9624L13.5496 18.7516H17.0867Z" fill="white"/>
<path d="M25.313 8.7887H39.3995V12.0068L30.3579 21.4319H39.7295V24.8921H24.4462V21.553L33.3935 12.2264H25.3141V8.7887H25.313Z" fill="white"/>
<path d="M51.8733 22.2332H46.222L45.4366 24.891H40.3542L46.4085 8.7876H51.8379L57.8911 24.891H52.6791L51.8733 22.2332ZM50.8403 18.7516L49.0627 12.9624L47.3032 18.7516H50.8403Z" fill="white"/>
<path d="M59.539 8.7887H66.9337C68.391 8.7887 69.5687 8.98688 70.4666 9.38219C71.3635 9.77749 72.105 10.3453 72.6911 11.0844C73.2773 11.8247 73.7016 12.6849 73.9652 13.6662C74.2288 14.6475 74.3606 15.6877 74.3606 16.7858C74.3606 18.5063 74.1645 19.8411 73.7723 20.7902C73.3801 21.7383 72.8369 22.5332 72.1404 23.1738C71.4439 23.8144 70.697 24.2408 69.8987 24.454C68.8068 24.7464 67.8178 24.8932 66.9316 24.8932H59.5369V8.78977L59.539 8.7887ZM64.5163 12.4353V21.2337H65.7358C66.7762 21.2337 67.5156 21.118 67.9549 20.8877C68.3942 20.6574 68.7382 20.2546 68.9879 19.6793C69.2365 19.104 69.3618 18.1731 69.3618 16.8833C69.3618 15.1767 69.0833 14.009 68.5271 13.3791C67.9699 12.7492 67.0473 12.4343 65.7583 12.4343H64.5163V12.4353Z" fill="white"/>
<path d="M77.1745 8.7887H82.1625V24.8921H77.1745V8.7887Z" fill="white"/>
<path d="M0.102879 29.1427H9.41992C10.9726 29.1427 12.1652 29.5273 12.9967 30.2965C13.8282 31.0656 14.244 32.018 14.244 33.1525C14.244 34.1049 13.9472 34.9212 13.3535 35.6025C12.9581 36.0567 12.3795 36.4156 11.6177 36.6791C12.7749 36.9577 13.6268 37.4355 14.1722 38.1125C14.7176 38.7896 14.9909 39.6412 14.9909 40.6664C14.9909 41.501 14.7969 42.2519 14.409 42.9183C14.0211 43.5846 13.4896 44.1117 12.8156 44.5005C12.3977 44.7426 11.7677 44.9183 10.9254 45.0276C9.8046 45.1744 9.06096 45.2472 8.69449 45.2472H0.101807V29.1438L0.102879 29.1427ZM5.12412 35.459H7.28863C8.06549 35.459 8.60555 35.325 8.9088 35.0583C9.21312 34.7915 9.36527 34.4048 9.36527 33.8992C9.36527 33.431 9.21312 33.0646 8.9088 32.8011C8.60448 32.5376 8.07514 32.4058 7.32077 32.4058H5.12304V35.46L5.12412 35.459ZM5.12412 41.7859H7.6626C8.51983 41.7859 9.12418 41.6338 9.47564 41.3306C9.82711 41.0264 10.0028 40.6182 10.0028 40.1062C10.0028 39.6305 9.82925 39.2481 9.481 38.9588C9.13275 38.6696 8.52304 38.525 7.65188 38.525H5.12519V41.787L5.12412 41.7859Z" fill="white"/>
<path d="M17.584 29.1427H30.9226V32.5804H22.5721V35.1397H30.3182V38.4242H22.5721V41.5984H31.1647V45.245H17.584V29.1416V29.1427Z" fill="white"/>
<path d="M33.911 45.2461V29.1427H42.2069C43.7456 29.1427 44.9211 29.2745 45.7344 29.538C46.5477 29.8015 47.2035 30.29 47.7007 31.0046C48.199 31.7181 48.4476 32.5879 48.4476 33.6131C48.4476 34.5066 48.2568 35.2768 47.8754 35.925C47.4939 36.5731 46.9699 37.0991 46.3034 37.5008C45.878 37.7568 45.2962 37.97 44.5557 38.1382C45.1483 38.3364 45.5801 38.5346 45.8512 38.7317C46.0345 38.8635 46.2991 39.1463 46.6474 39.578C46.9946 40.0108 47.2271 40.344 47.3449 40.5786L49.7548 45.2451H44.1303L41.4697 40.3236C41.1322 39.6862 40.8321 39.2727 40.5685 39.082C40.2096 38.8335 39.8034 38.7081 39.3491 38.7081H38.9098V45.244H33.91L33.911 45.2461ZM38.9108 35.6679H41.0089C41.2361 35.6679 41.6754 35.595 42.3269 35.4482C42.657 35.3818 42.9259 35.2136 43.1349 34.9426C43.3438 34.6716 43.4477 34.3609 43.4477 34.0084C43.4477 33.4889 43.2827 33.0893 42.9538 32.8108C42.6237 32.5322 42.0055 32.393 41.0968 32.393H38.9098V35.6668L38.9108 35.6679Z" fill="white"/>
<path d="M51.3483 29.1427H56.3256V41.2813H64.0942V45.2472H51.3483V29.1438V29.1427Z" fill="white"/>
<path d="M66.5544 29.1427H71.5424V45.2461H66.5544V29.1427Z" fill="white"/>
<path d="M75.1472 29.1427H79.7945L85.8594 38.0525V29.1427H90.5506V45.2461H85.8594L79.8277 36.4038V45.2461H75.1472V29.1427Z" fill="white"/>
</g>
<defs>
<clipPath id="clip0_658_1815">
<rect width="114.333" height="45.315" fill="white"/>
</clipPath>
</defs>
</svg>
