<svg width="24" height="24" viewBox="0 0 24 24" fill="none" xmlns="http://www.w3.org/2000/svg">
<path d="M7.99996 11C7.80218 11 7.60884 11.0586 7.44439 11.1685C7.27994 11.2784 7.15177 11.4346 7.07608 11.6173C7.00039 11.8 6.98059 12.0011 7.01917 12.1951C7.05776 12.3891 7.153 12.5673 7.29285 12.7071C7.4327 12.847 7.61089 12.9422 7.80487 12.9808C7.99885 13.0194 8.19992 12.9996 8.38264 12.9239C8.56537 12.8482 8.72155 12.72 8.83143 12.5556C8.94131 12.3911 8.99996 12.1978 8.99996 12C8.99996 11.7348 8.8946 11.4804 8.70706 11.2929C8.51953 11.1054 8.26517 11 7.99996 11ZM12 11C11.8022 11 11.6088 11.0586 11.4444 11.1685C11.2799 11.2784 11.1518 11.4346 11.0761 11.6173C11.0004 11.8 10.9806 12.0011 11.0192 12.1951C11.0578 12.3891 11.153 12.5673 11.2929 12.7071C11.4327 12.847 11.6109 12.9422 11.8049 12.9808C11.9988 13.0194 12.1999 12.9996 12.3826 12.9239C12.5654 12.8482 12.7215 12.72 12.8314 12.5556C12.9413 12.3911 13 12.1978 13 12C13 11.7348 12.8946 11.4804 12.7071 11.2929C12.5195 11.1054 12.2652 11 12 11ZM16 11C15.8022 11 15.6088 11.0586 15.4444 11.1685C15.2799 11.2784 15.1518 11.4346 15.0761 11.6173C15.0004 11.8 14.9806 12.0011 15.0192 12.1951C15.0578 12.3891 15.153 12.5673 15.2929 12.7071C15.4327 12.847 15.6109 12.9422 15.8049 12.9808C15.9988 13.0194 16.1999 12.9996 16.3826 12.9239C16.5654 12.8482 16.7215 12.72 16.8314 12.5556C16.9413 12.3911 17 12.1978 17 12C17 11.7348 16.8946 11.4804 16.7071 11.2929C16.5195 11.1054 16.2652 11 16 11ZM12 2C10.6867 2 9.38638 2.25866 8.17312 2.7612C6.95987 3.26375 5.85748 4.00035 4.92889 4.92893C3.05353 6.8043 1.99996 9.34784 1.99996 12C1.99122 14.3091 2.79075 16.5485 4.25996 18.33L2.25996 20.33C2.1212 20.4706 2.0272 20.6492 1.98983 20.8432C1.95246 21.0372 1.97338 21.2379 2.04996 21.42C2.13302 21.5999 2.26766 21.7511 2.4368 21.8544C2.60595 21.9577 2.80196 22.0083 2.99996 22H12C14.6521 22 17.1957 20.9464 19.071 19.0711C20.9464 17.1957 22 14.6522 22 12C22 9.34784 20.9464 6.8043 19.071 4.92893C17.1957 3.05357 14.6521 2 12 2ZM12 20H5.40996L6.33996 19.07C6.52621 18.8826 6.63075 18.6292 6.63075 18.365C6.63075 18.1008 6.52621 17.8474 6.33996 17.66C5.03054 16.352 4.21513 14.6305 4.03265 12.7888C3.85017 10.947 4.3119 9.09901 5.33918 7.55952C6.36647 6.02004 7.89575 4.88436 9.66647 4.34597C11.4372 3.80759 13.3398 3.8998 15.0502 4.60691C16.7605 5.31402 18.1728 6.59227 19.0464 8.22389C19.92 9.85551 20.2008 11.7395 19.8411 13.555C19.4813 15.3705 18.5033 17.005 17.0735 18.1802C15.6437 19.3554 13.8507 19.9985 12 20Z" fill="#BDBDBD"/>
</svg>
