<svg width="24" height="24" viewBox="0 0 24 24" fill="none" xmlns="http://www.w3.org/2000/svg">
<path d="M18 9H16C15.4 9 15 9.4 15 10C15 10.6 15.4 11 16 11H18C18.6 11 19 11.4 19 12V19C19 19.6 18.6 20 18 20H5.99997C5.39997 20 4.99997 19.6 4.99997 19V12C4.99997 11.4 5.39997 11 5.99997 11H7.99997C8.59997 11 8.99997 10.6 8.99997 10C8.99997 9.4 8.59997 9 7.99997 9H5.99997C4.29997 9 2.99997 10.3 2.99997 12V19C2.99997 20.7 4.29997 22 5.99997 22H18C19.7 22 21 20.7 21 19V12C21 10.3 19.7 9 18 9ZM8.29997 14.7L11.3 17.7C11.5 17.9 11.7 18 12 18C12.3 18 12.5 17.9 12.7 17.7L15.7 14.7C16.1 14.3 16.1 13.7 15.7 13.3C15.3 12.9 14.7 12.9 14.3 13.3L13 14.6V3C13 2.4 12.6 2 12 2C11.4 2 11 2.4 11 3V14.6L9.69997 13.3C9.29997 12.9 8.69997 12.9 8.29997 13.3C7.89997 13.7 7.89997 14.3 8.29997 14.7Z" fill="#BDBDBD"/>
</svg>
