<svg width="24" height="24" viewBox="0 0 24 24" fill="none" xmlns="http://www.w3.org/2000/svg">
<path d="M19 4H17V3C17 2.73478 16.8946 2.48043 16.7071 2.29289C16.5195 2.10536 16.2652 2 16 2C15.7348 2 15.4804 2.10536 15.2929 2.29289C15.1053 2.48043 15 2.73478 15 3V4H8.99997V3C8.99997 2.73478 8.89461 2.48043 8.70708 2.29289C8.51954 2.10536 8.26519 2 7.99997 2C7.73475 2 7.4804 2.10536 7.29286 2.29289C7.10533 2.48043 6.99997 2.73478 6.99997 3V4H4.99997C4.20432 4 3.44126 4.31607 2.87865 4.87868C2.31604 5.44129 1.99997 6.20435 1.99997 7V19C1.99997 19.7956 2.31604 20.5587 2.87865 21.1213C3.44126 21.6839 4.20432 22 4.99997 22H19C19.7956 22 20.5587 21.6839 21.1213 21.1213C21.6839 20.5587 22 19.7956 22 19V7C22 6.20435 21.6839 5.44129 21.1213 4.87868C20.5587 4.31607 19.7956 4 19 4ZM20 19C20 19.2652 19.8946 19.5196 19.7071 19.7071C19.5195 19.8946 19.2652 20 19 20H4.99997C4.73475 20 4.4804 19.8946 4.29286 19.7071C4.10533 19.5196 3.99997 19.2652 3.99997 19V12H20V19ZM20 10H3.99997V7C3.99997 6.73478 4.10533 6.48043 4.29286 6.29289C4.4804 6.10536 4.73475 6 4.99997 6H6.99997V7C6.99997 7.26522 7.10533 7.51957 7.29286 7.70711C7.4804 7.89464 7.73475 8 7.99997 8C8.26519 8 8.51954 7.89464 8.70708 7.70711C8.89461 7.51957 8.99997 7.26522 8.99997 7V6H15V7C15 7.26522 15.1053 7.51957 15.2929 7.70711C15.4804 7.89464 15.7348 8 16 8C16.2652 8 16.5195 7.89464 16.7071 7.70711C16.8946 7.51957 17 7.26522 17 7V6H19C19.2652 6 19.5195 6.10536 19.7071 6.29289C19.8946 6.48043 20 6.73478 20 7V10Z" fill="#BDBDBD"/>
</svg>
