<svg width="24" height="24" viewBox="0 0 24 24" fill="none" xmlns="http://www.w3.org/2000/svg">
<path d="M17.09 2.82007C16.1703 2.06365 15.0933 1.5221 13.9376 1.23491C12.782 0.947727 11.5768 0.922157 10.41 1.16007C8.85635 1.47389 7.43096 2.24214 6.31466 3.36735C5.19835 4.49256 4.44144 5.924 4.13997 7.48007C3.91982 8.64679 3.95982 9.84772 4.25713 10.9972C4.55444 12.1467 5.10173 13.2164 5.85997 14.1301C6.56366 14.9241 6.96701 15.9396 6.99997 17.0001V20.0001C6.99997 20.7957 7.31604 21.5588 7.87865 22.1214C8.44126 22.684 9.20432 23.0001 9.99997 23.0001H14C14.7956 23.0001 15.5587 22.684 16.1213 22.1214C16.6839 21.5588 17 20.7957 17 20.0001V17.1901C17.0335 16.0192 17.4637 14.8945 18.22 14.0001C19.5451 12.3608 20.1697 10.2649 19.9581 8.16769C19.7466 6.0705 18.7158 4.14156 17.09 2.80007V2.82007ZM15 20.0001C15 20.2653 14.8946 20.5196 14.7071 20.7072C14.5195 20.8947 14.2652 21.0001 14 21.0001H9.99997C9.73476 21.0001 9.4804 20.8947 9.29287 20.7072C9.10533 20.5196 8.99997 20.2653 8.99997 20.0001V19.0001H15V20.0001ZM16.67 12.7601C15.6645 13.9527 15.0778 15.4421 15 17.0001H13V14.0001C13 13.7349 12.8946 13.4805 12.7071 13.293C12.5195 13.1054 12.2652 13.0001 12 13.0001C11.7348 13.0001 11.4804 13.1054 11.2929 13.293C11.1053 13.4805 11 13.7349 11 14.0001V17.0001H8.99997C8.97359 15.4682 8.40692 13.9948 7.39997 12.8401C6.73561 12.0441 6.28886 11.0895 6.10328 10.0694C5.9177 9.04934 5.99962 7.99858 6.34106 7.0196C6.6825 6.04061 7.27179 5.16681 8.05149 4.48339C8.83119 3.79998 9.77469 3.33027 10.79 3.12007C11.6625 2.94041 12.5641 2.95731 13.4293 3.16954C14.2945 3.38176 15.1016 3.78399 15.792 4.34702C16.4824 4.91005 17.0387 5.61975 17.4207 6.42459C17.8026 7.22943 18.0005 8.10921 18 9.00007C18.0074 10.3699 17.5371 11.6995 16.67 12.7601Z" fill="#BDBDBD"/>
</svg>
